<?xml version="1.0" encoding="UTF-8"?>
<svg width="261px" height="269px" viewBox="0 0 261 269" version="1.1" xmlns="http://www.w3.org/2000/svg" xmlns:xlink="http://www.w3.org/1999/xlink">
    <!-- Generator: Sketch 47.1 (45422) - http://www.bohemiancoding.com/sketch -->
    <title>room 2</title>
    <desc>Created with Sketch.</desc>
    <defs>
        <polygon id="path-1" points="219.061472 44.3550359 9.40691158 153.251177 0.512741061 64.5082491 131.34925 0.0469015811"></polygon>
        <radialGradient cx="52.3703039%" cy="38.513804%" fx="52.3703039%" fy="38.513804%" r="63.4015182%" gradientTransform="translate(0.523703,0.385138),scale(0.566096,1.000000),rotate(90.000000),translate(-0.523703,-0.385138)" id="radialGradient-3">
            <stop stop-color="#8EA6BA" offset="0%"></stop>
            <stop stop-color="#2D4564" offset="100%"></stop>
        </radialGradient>
        <polygon id="path-4" points="0.843878644 144.629762 266.442669 0 471.046419 114.260542 211.074728 266.179984"></polygon>
        <radialGradient cx="76.7317951%" cy="0%" fx="76.7317951%" fy="0%" r="63.4015182%" gradientTransform="translate(0.767318,0.000000),scale(0.483907,1.000000),rotate(90.000000),translate(-0.767318,-0.000000)" id="radialGradient-6">
            <stop stop-color="#0D2132" offset="0%"></stop>
            <stop stop-color="#2D4564" offset="100%"></stop>
        </radialGradient>
        <radialGradient cx="4.24256437%" cy="29.5135616%" fx="4.24256437%" fy="29.5135616%" r="63.4015182%" gradientTransform="translate(0.042426,0.295136),scale(0.695375,1.000000),rotate(90.000000),translate(-0.042426,-0.295136)" id="radialGradient-7">
            <stop stop-color="#0D2132" offset="0%"></stop>
            <stop stop-color="#2D4564" offset="100%"></stop>
        </radialGradient>
        <radialGradient cx="53.8354894%" cy="78.9787448%" fx="53.8354894%" fy="78.9787448%" r="73.9071051%" gradientTransform="translate(0.538355,0.789787),scale(0.967347,1.000000),rotate(96.795623),scale(1.000000,0.986484),translate(-0.538355,-0.789787)" id="radialGradient-8">
            <stop stop-color="#C9607D" offset="0%"></stop>
            <stop stop-color="#80647E" offset="54.9366231%"></stop>
            <stop stop-color="#473C60" offset="100%"></stop>
        </radialGradient>
        <radialGradient cx="100%" cy="132.571945%" fx="100%" fy="132.571945%" r="99.8844069%" gradientTransform="translate(1.000000,1.325719),scale(0.555330,1.000000),rotate(90.000000),translate(-1.000000,-1.325719)" id="radialGradient-9">
            <stop stop-color="#2F1E48" offset="0%"></stop>
            <stop stop-color="#3F394C" offset="100%"></stop>
        </radialGradient>
        <linearGradient x1="50%" y1="0%" x2="33.2844558%" y2="81.1720736%" id="linearGradient-10">
            <stop stop-color="#302346" offset="0%"></stop>
            <stop stop-color="#97627D" offset="100%"></stop>
        </linearGradient>
        <radialGradient cx="42.2003805%" cy="89.6025678%" fx="42.2003805%" fy="89.6025678%" r="48.9512664%" gradientTransform="translate(0.422004,0.896026),scale(1.000000,0.890731),rotate(97.156414),translate(-0.422004,-0.896026)" id="radialGradient-11">
            <stop stop-color="#C9607D" offset="0%"></stop>
            <stop stop-color="#80647E" offset="100%"></stop>
        </radialGradient>
        <path d="M201.016707,117.170972 L201.016707,225.966757 L0.530877524,109.559813 L0.218990772,0.536458727 L201.016707,117.170972 Z M30.223,103.2376 L50.9,115.2496 L50.9,47.3064 L30.223,35.2944 L30.223,103.2376 Z M58.223,119.2376 L78.9,131.2496 L78.9,63.3064 L58.223,51.2944 L58.223,119.2376 Z M133.223,160.2376 L153.9,172.2496 L153.9,104.3064 L133.223,92.2944 L133.223,160.2376 Z M161.223,176.2376 L181.9,188.2496 L181.9,120.3064 L161.223,108.2944 L161.223,176.2376 Z" id="path-12"></path>
        <radialGradient cx="100%" cy="132.571945%" fx="100%" fy="132.571945%" r="99.8844069%" gradientTransform="translate(1.000000,1.325719),scale(0.583215,1.000000),rotate(90.000000),translate(-1.000000,-1.325719)" id="radialGradient-14">
            <stop stop-color="#2F1E48" offset="0%"></stop>
            <stop stop-color="#3F394C" offset="100%"></stop>
        </radialGradient>
        <polygon id="path-15" points="-0.240023095 117.170972 206.669786 -3.03387284 200.249765 -6.79898779 -5.89310215 114.098722"></polygon>
        <radialGradient cx="112.446802%" cy="74.5810842%" fx="112.446802%" fy="74.5810842%" r="63.2178949%" gradientTransform="translate(1.124468,0.745811),scale(1.000000,0.387833),rotate(91.956053),scale(1.000000,0.926390),translate(-1.124468,-0.745811)" id="radialGradient-17">
            <stop stop-color="#A15680" offset="0%"></stop>
            <stop stop-color="#3D2A4B" offset="100%"></stop>
        </radialGradient>
        <radialGradient cx="135.144198%" cy="8.13891269%" fx="135.144198%" fy="8.13891269%" r="100%" gradientTransform="translate(1.351442,0.081389),scale(1.000000,0.236657),rotate(90.000000),translate(-1.351442,-0.081389)" id="radialGradient-18">
            <stop stop-color="#CD769D" offset="0%"></stop>
            <stop stop-color="#3F394C" offset="100%"></stop>
        </radialGradient>
    </defs>
    <g id="Page-1" stroke="none" stroke-width="1" fill="none" fill-rule="evenodd">
        <g id="Grids" transform="translate(-2018.000000, -884.000000)">
            <g id="Group-26" transform="translate(1776.000000, 138.000000)">
                <g id="floor-3" transform="translate(112.000000, 745.000000)">
                    <g id="room-2" transform="translate(130.000000, 0.000000)">
                        <g id="room-2-floor" transform="translate(9.000000, 116.000000)">
                            <mask id="mask-2" fill="white">
                                <use xlink:href="#path-1"></use>
                            </mask>
                            <use id="Mask" fill="#D8D8D8" xlink:href="#path-1"></use>
                            <g id="floor-1" mask="url(#mask-2)">
                                <g transform="translate(-137.000000, 0.000000)">
                                    <mask id="mask-5" fill="white">
                                        <use xlink:href="#path-4"></use>
                                    </mask>
                                    <use id="Mask" stroke="none" fill="url(#radialGradient-3)" fill-rule="evenodd" xlink:href="#path-4"></use>
                                    <polygon id="Mask-Copy" stroke="none" fill="url(#radialGradient-6)" fill-rule="evenodd" mask="url(#mask-5)" points="-8 235.880787 153.224264 149 219.673553 192.797348 58.0258371 259.172739"></polygon>
                                    <polygon id="Mask-Copy-5" stroke="none" fill="url(#radialGradient-7)" fill-rule="evenodd" mask="url(#mask-5)" points="235.239043 150.437024 373.224264 53 439.673553 96.7973476 333.170558 195.158549"></polygon>
                                    <polygon id="Rectangle-6-Copy-4" stroke="none" fill="#040303" fill-rule="evenodd" opacity="0.699999988" mask="url(#mask-5)" points="143 68.9772271 223.216681 23 266 45.8188382 184.446087 93.1778625"></polygon>
                                    <polygon id="Rectangle-6-Copy-4" stroke="none" fill="#040303" fill-rule="evenodd" opacity="0.699999988" mask="url(#mask-5)" points="291 113.841394 371.216681 67.8641672 414 90.6830054 332.446087 138.04203"></polygon>
                                    <g id="Group" stroke="none" stroke-width="1" fill="none" fill-rule="evenodd" mask="url(#mask-5)">
                                        <g transform="translate(249.406677, 132.193745) rotate(1.000000) translate(-249.406677, -132.193745) translate(8.906677, -7.306255)" id="Group-6">
                                            <g transform="translate(226.982203, 140.474273) scale(1, -1) translate(-226.982203, -140.474273) translate(0.482203, 2.474273)">
                                                <polygon id="Fill-21" fill="#0A0607" points="277.765471 274.665562 1.20927637 113.990234 0.442929819 114.448482 276.999124 275.12333"></polygon>
                                                <polygon id="Fill-21-Copy" fill="#0A0607" points="278.02724 264.668989 1.47104586 103.99366 0.704699302 104.451909 277.260894 265.126757"></polygon>
                                                <polygon id="Fill-21-Copy-3" fill="#0A0607" points="298.046564 264.192871 21.4903693 103.517542 20.7240227 103.97579 297.280217 264.650639"></polygon>
                                                <polygon id="Fill-21-Copy-2" fill="#0A0607" points="298.308333 254.196297 21.7521388 93.5209688 20.9857922 93.9792172 297.541987 254.654065"></polygon>
                                                <polygon id="Fill-21-Copy-7" fill="#0A0607" points="328.140991 260.97955 51.5847968 100.304221 50.8184503 100.76247 327.374645 261.437318"></polygon>
                                                <polygon id="Fill-21-Copy-6" fill="#0A0607" points="328.402761 250.982976 51.8465663 90.307648 51.0802198 90.7658963 327.636414 251.440744"></polygon>
                                                <polygon id="Fill-21-Copy-5" fill="#0A0607" points="348.422084 250.506858 71.8658898 89.8315296 71.0995432 90.2897779 347.655738 250.964626"></polygon>
                                                <polygon id="Fill-21-Copy-4" fill="#0A0607" points="348.683854 240.510285 72.1276593 79.8349564 71.3613127 80.2932047 347.917507 240.968053"></polygon>
                                                <polygon id="Fill-21-Copy-11" fill="#0A0607" points="368.677 241.033824 92.1208058 80.3584953 91.3544592 80.8167437 367.910654 241.491592"></polygon>
                                                <polygon id="Fill-21-Copy-10" fill="#0A0607" points="368.93877 231.037251 92.3825752 70.3619221 91.6162287 70.8201704 368.172423 231.495019"></polygon>
                                                <polygon id="Fill-21-Copy-9" fill="#0A0607" points="388.958093 230.561132 112.401899 69.8858037 111.635552 70.344052 388.191747 231.0189"></polygon>
                                                <polygon id="Fill-21-Copy-8" fill="#0A0607" points="389.219863 220.564559 112.663668 59.8892305 111.897322 60.3474788 388.453516 221.022327"></polygon>
                                                <polygon id="Fill-21-Copy-15" fill="#0A0607" points="392.454427 211.646174 115.898233 50.9708454 115.131886 51.4290937 391.688081 212.103942"></polygon>
                                                <polygon id="Fill-21-Copy-14" fill="#0A0607" points="392.716197 201.649601 116.160002 40.9742721 115.393656 41.4325205 391.94985 202.107369"></polygon>
                                                <polygon id="Fill-21-Copy-13" fill="#0A0607" points="412.73552 201.173482 136.179326 40.4981538 135.412979 40.9564021 411.969174 201.63125"></polygon>
                                                <polygon id="Fill-21-Copy-12" fill="#0A0607" points="412.99729 191.176909 136.441095 30.5015805 135.674749 30.9598289 412.230943 191.634677"></polygon>
                                                <polygon id="Fill-21-Copy-20" fill="#0A0607" points="429.219863 190.564559 152.663668 29.8892305 151.897322 30.3474788 428.453516 191.022327"></polygon>
                                                <polygon id="Fill-21-Copy-19" fill="#0A0607" points="432.454427 181.646174 155.898233 20.9708454 155.131886 21.4290937 431.688081 182.103942"></polygon>
                                                <polygon id="Fill-21-Copy-18" fill="#0A0607" points="432.716197 171.649601 156.160002 10.9742721 155.393656 11.4325205 431.94985 172.107369"></polygon>
                                                <polygon id="Fill-21-Copy-17" fill="#0A0607" points="452.73552 171.173482 176.179326 10.4981538 175.412979 10.9564021 451.969174 171.63125"></polygon>
                                                <polygon id="Fill-21-Copy-16" fill="#0A0607" points="452.99729 161.176909 176.441095 0.501580537 175.674749 0.959828862 452.230943 161.634677"></polygon>
                                            </g>
                                        </g>
                                    </g>
                                </g>
                            </g>
                        </g>
                        <g id="room-2-back-wall">
                            <g id="back-wall-" transform="translate(-128.000000, 1.000000)">
                                <polygon id="Rectangle-3-Copy" fill="url(#radialGradient-8)" transform="translate(134.814785, 134.267595) scale(-1, 1) translate(-134.814785, -134.267595) " points="263.316581 261.674143 266.521942 259.43039 266.521942 151.461538 3.10762819 6.86104621 3.10762819 116.653474"></polygon>
                                <polygon id="Rectangle-3-Copy" fill="url(#radialGradient-9)" points="0.985940637 147.423429 7.45779396 151.19621 272.881788 3.8877536 266.611903 0.204196279"></polygon>
                                <polygon id="Path-3" fill="url(#linearGradient-10)" points="134.045535 100.708234 62 197.103584 152.66399 189.035977"></polygon>
                            </g>
                        </g>
                        <g id="room-1-window-wall" transform="translate(138.000000, 0.000000)">
                            <g id="room-common-walls" transform="translate(0.000000, 8.000000)">
                                <mask id="mask-13" fill="white">
                                    <use xlink:href="#path-12"></use>
                                </mask>
                                <use id="Mask" fill="url(#radialGradient-11)" xlink:href="#path-12"></use>
                                <polygon id="Path-3" fill="url(#linearGradient-10)" mask="url(#mask-13)" transform="translate(167.331995, 224.197675) scale(-1, 1) translate(-167.331995, -224.197675) " points="194.045535 176 122 272.395351 212.66399 264.327743"></polygon>
                                <mask id="mask-16" fill="white">
                                    <use xlink:href="#path-15"></use>
                                </mask>
                                <use id="Rectangle-3-Copy" fill="url(#radialGradient-14)" transform="translate(100.388342, 55.185992) scale(-1, 1) translate(-100.388342, -55.185992) " xlink:href="#path-15"></use>
                                <g id="room-2-windows" transform="translate(24.000000, 28.000000)">
                                    <g>
                                        <path d="M0.0746666667,0.1444 L0.0746666667,78.81 L29.9741667,96.1832 L29.9741667,17.5228 L0.0746666667,0.1444 Z M3.14883333,5.5108 L26.9,19.3064 L26.9,90.822 L3.14883333,77.0212 L3.14883333,5.5108 L3.14883333,5.5108 Z" id="Fill-873" fill="#424B54"></path>
                                        <polyline id="Fill-874" fill="#2C353C" points="3.14883333 77.0212 26.9 90.822 26.9 87.2496 6.223 75.2376 3.14883333 77.0212"></polyline>
                                        <polyline id="Fill-875" fill="#20292F" points="3.14883333 5.5108 3.14883333 77.0212 6.223 75.2376 6.223 7.2944 3.14883333 5.5108"></polyline>
                                        <polyline id="Fill-880" fill="#20292F" points="26.9 42.54 6.223 30.528 4.37333333 31.5888 26.9 44.6772 26.9 42.54"></polyline>
                                        <polyline id="Fill-881" fill="#424B54" points="26.9 44.6772 4.37333333 31.5888 4.37333333 33.4972 26.9 46.5804 26.9 44.6772"></polyline>
                                    </g>
                                    <g transform="translate(28.000000, 16.299988)">
                                        <path d="M0.0746666667,0.1444 L0.0746666667,78.81 L29.9741667,96.1832 L29.9741667,17.5228 L0.0746666667,0.1444 Z M3.14883333,5.5108 L26.9,19.3064 L26.9,90.822 L3.14883333,77.0212 L3.14883333,5.5108 L3.14883333,5.5108 Z" id="Fill-873" fill="#424B54"></path>
                                        <polyline id="Fill-874" fill="#2C353C" points="3.14883333 77.0212 26.9 90.822 26.9 87.2496 6.223 75.2376 3.14883333 77.0212"></polyline>
                                        <polyline id="Fill-875" fill="#20292F" points="3.14883333 5.5108 3.14883333 77.0212 6.223 75.2376 6.223 7.2944 3.14883333 5.5108"></polyline>
                                        <polyline id="Fill-880" fill="#20292F" points="26.9 42.54 6.223 30.528 4.37333333 31.5888 26.9 44.6772 26.9 42.54"></polyline>
                                        <polyline id="Fill-881" fill="#424B54" points="26.9 44.6772 4.37333333 31.5888 4.37333333 33.4972 26.9 46.5804 26.9 44.6772"></polyline>
                                    </g>
                                </g>
                            </g>
                        </g>
                        <g id="room-2-bed" transform="translate(67.000000, 157.000000) scale(-1, 1) translate(-67.000000, -157.000000) translate(11.000000, 108.000000)">
                            <g id="Group-20">
                                <polygon id="Fill-395" fill="#7D384D" points="33.3856369 36.5861907 32.6090654 36.1390611 32.5833512 11.3330425 33.358894 11.7791537"></polygon>
                                <polygon id="Fill-396" fill="#7D384D" points="32.559694 3.13091291 33.3352369 3.57702402 33.3486083 8.07582032 3.70697143 24.5585185 2.9304 24.1124074 32.5730654 7.62970921"></polygon>
                                <polygon id="Fill-397" fill="#7D384D" points="1.7928 38.4867593 1.01622857 38.0406481 0.962742857 19.0615741 1.73828571 19.5076852"></polygon>
                                <path d="M1.89977143,18.2060185 C2.18057143,17.955463 2.4624,17.7130556 2.74525714,17.4757407 L2.83062857,17.4064815 L3.00651429,17.2649074 C3.19988571,17.1060185 3.39325714,16.9471296 3.58765714,16.7943519 C3.75942857,16.6599074 3.9312,16.5336111 4.104,16.4052778 L4.30148571,16.2555556 L4.41668571,16.1689815 C4.68617143,15.9724074 4.95668571,15.7819444 5.22822857,15.5975926 L5.4936,15.4244444 L5.71988571,15.2767593 C5.81965714,15.2125926 5.91942857,15.1433333 6.02022857,15.0812037 C6.2784,14.9172222 6.53862857,14.7593519 6.79782857,14.6086111 L18.2275797,7.74887587 C18.4240369,7.63683884 18.620494,7.52785735 18.8159226,7.42294995 C19.0689512,7.28748698 19.3219797,7.15813513 19.5739797,7.03489439 L19.7550083,6.95035735 C19.945294,6.85869069 20.1355797,6.76804254 20.3258654,6.6835055 C20.5758083,6.57248698 31.112494,1.37498698 31.3614083,1.27619069 L31.4519226,1.24257958 C31.6730654,1.1560055 31.8942083,1.07248698 32.1143226,0.995079577 C32.3467797,0.913598096 32.5792369,0.840264762 32.8096369,0.769986985 C33.1305512,0.672209207 33.3866654,0.602949947 33.6417512,0.538783281 C33.8464369,0.487857355 34.050094,0.442024022 34.251694,0.400264762 L34.5057512,0.348320318 L35.281294,0.794431429 L35.0282654,0.847394392 C34.5654083,0.943135133 34.0974083,1.06128328 33.6273512,1.20285735 C33.1346654,1.3535981 32.682094,1.51146847 32.228494,1.68869069 C31.7183226,1.88832032 20.9810654,7.18156106 20.528494,7.39748698 L20.4215226,7.44739439 C19.9494083,7.67656106 19.4762654,7.92507958 19.0041512,8.1960055 C18.5855226,8.43433884 6.91508571,15.4509259 6.49748571,15.7228704 L6.26914286,15.8715741 C5.87108571,16.1353704 5.47302857,16.4113889 5.076,16.7026852 L4.88262857,16.8493519 C4.51337143,17.1253704 4.14617143,17.4136111 3.78,17.7130556 L3.6072,17.8525926 C3.17417143,18.2121296 2.74422857,18.5849074 2.31737143,18.9760185 L1.73828571,19.5076852 L0.962742857,19.0615741 L1.54182857,18.5288889 C1.66114286,18.4209259 1.77942857,18.3119444 1.89977143,18.2060185 Z" id="Fill-398" fill="#7D384D"></path>
                                <path d="M33.3486083,8.07582032 L33.3352369,3.57702402 C32.0135226,3.95998698 30.6599226,4.54665365 29.2929512,5.32785735 C27.9218654,6.11211661 5.02148571,18.9291667 3.6936,20.0678704 L3.70697143,24.5585185 L33.3486083,8.07582032 Z M35.0282654,0.847394392 L35.281294,0.794431429 L35.3358083,35.4709129 L33.3856369,36.5861907 L33.358894,11.7791537 L3.71725714,28.2618519 L3.74297143,37.3714815 L1.7928,38.4867593 L1.73828571,19.5076852 L2.31737143,18.9760185 C3.06441394,18.2916613 5.10126453,16.479865 8.07858432,14.5648611 C12.1644385,11.936851 17.4614081,9.09114025 18.5211042,8.48545778 C19.9908499,7.64486317 27.2588023,3.83160011 31.687398,1.90864874 C33.0916134,1.29892097 34.5788305,0.939835699 35.0282654,0.847394392 Z" id="Fill-399" fill="#CC7772"></path>
                                <polygon id="Fill-400" fill="#7D384D" points="1.81234286 54.1862037 1.03577143 53.7400926 1.01314286 38.0233333 1.78765714 38.0233333"></polygon>
                                <polygon id="Fill-401" fill="#CC7772" points="3.76251429 52.9717596 1.81234286 54.1862037 1.78765714 36.5861907 3.74091429 36.5861907"></polygon>
                            </g>
                            <polygon id="Fill-763" fill="#9F312F" points="111.091626 67.3350727 77.923 86.109 77.933 81.608 111.101626 62.8340727"></polygon>
                            <polygon id="Fill-764" fill="#7D384D" points="77.923 86.109 2.94479622 43.1444177 2.95579622 38.6434177 77.933 81.608"></polygon>
                            <polygon id="Fill-768" fill="#BFBDE9" points="77.933 75.365 2.91 32.417 36.106353 13.6526338 111.128353 56.6016338"></polygon>
                            <polygon id="Fill-769" fill="#BBBBB6" points="111.122697 63.13674 77.923 81.903 77.933 75.365 111.132697 56.59874"></polygon>
                            <polygon id="Fill-770" fill="#B179AA" points="77.923 81.903 2.899 38.956 2.91 32.417 77.933 75.365"></polygon>
                            <g id="Group-20" transform="translate(76.000000, 43.000000)">
                                <polygon id="Fill-395" fill="#653625" points="33.3856369 36.5861907 32.6090654 36.1390611 32.5833512 11.3330425 33.358894 11.7791537"></polygon>
                                <polygon id="Fill-396" fill="#653625" points="32.559694 3.13091291 33.3352369 3.57702402 33.3486083 8.07582032 3.70697143 24.5585185 2.9304 24.1124074 32.5730654 7.62970921"></polygon>
                                <polygon id="Fill-397" fill="#653625" points="1.7928 38.4867593 1.01622857 38.0406481 0.962742857 19.0615741 1.73828571 19.5076852"></polygon>
                                <path d="M1.89977143,18.2060185 C2.18057143,17.955463 2.4624,17.7130556 2.74525714,17.4757407 L2.83062857,17.4064815 L3.00651429,17.2649074 C3.19988571,17.1060185 3.39325714,16.9471296 3.58765714,16.7943519 C3.75942857,16.6599074 3.9312,16.5336111 4.104,16.4052778 L4.30148571,16.2555556 L4.41668571,16.1689815 C4.68617143,15.9724074 4.95668571,15.7819444 5.22822857,15.5975926 L5.4936,15.4244444 L5.71988571,15.2767593 C5.81965714,15.2125926 5.91942857,15.1433333 6.02022857,15.0812037 C6.2784,14.9172222 6.53862857,14.7593519 6.79782857,14.6086111 L18.2275797,7.74887587 C18.4240369,7.63683884 18.620494,7.52785735 18.8159226,7.42294995 C19.0689512,7.28748698 19.3219797,7.15813513 19.5739797,7.03489439 L19.7550083,6.95035735 C19.945294,6.85869069 20.1355797,6.76804254 20.3258654,6.6835055 C20.5758083,6.57248698 31.112494,1.37498698 31.3614083,1.27619069 L31.4519226,1.24257958 C31.6730654,1.1560055 31.8942083,1.07248698 32.1143226,0.995079577 C32.3467797,0.913598096 32.5792369,0.840264762 32.8096369,0.769986985 C33.1305512,0.672209207 33.3866654,0.602949947 33.6417512,0.538783281 C33.8464369,0.487857355 34.050094,0.442024022 34.251694,0.400264762 L34.5057512,0.348320318 L35.281294,0.794431429 L35.0282654,0.847394392 C34.5654083,0.943135133 34.0974083,1.06128328 33.6273512,1.20285735 C33.1346654,1.3535981 32.682094,1.51146847 32.228494,1.68869069 C31.7183226,1.88832032 20.9810654,7.18156106 20.528494,7.39748698 L20.4215226,7.44739439 C19.9494083,7.67656106 19.4762654,7.92507958 19.0041512,8.1960055 C18.5855226,8.43433884 6.91508571,15.4509259 6.49748571,15.7228704 L6.26914286,15.8715741 C5.87108571,16.1353704 5.47302857,16.4113889 5.076,16.7026852 L4.88262857,16.8493519 C4.51337143,17.1253704 4.14617143,17.4136111 3.78,17.7130556 L3.6072,17.8525926 C3.17417143,18.2121296 2.74422857,18.5849074 2.31737143,18.9760185 L1.73828571,19.5076852 L0.962742857,19.0615741 L1.54182857,18.5288889 C1.66114286,18.4209259 1.77942857,18.3119444 1.89977143,18.2060185 Z" id="Fill-398" fill="#653625"></path>
                                <path d="M33.3486083,8.07582032 L33.3352369,3.57702402 C32.0135226,3.95998698 30.6599226,4.54665365 29.2929512,5.32785735 C27.9218654,6.11211661 5.02148571,18.9291667 3.6936,20.0678704 L3.70697143,24.5585185 L33.3486083,8.07582032 Z M35.0282654,0.847394392 L35.281294,0.794431429 L35.3358083,35.4709129 L33.3856369,36.5861907 L33.358894,11.7791537 L3.71725714,28.2618519 L3.74297143,37.3714815 L1.7928,38.4867593 L1.73828571,19.5076852 L2.31737143,18.9760185 C3.06441394,18.2916613 5.10126453,16.479865 8.07858432,14.5648611 C12.1644385,11.936851 17.4614081,9.09114025 18.5211042,8.48545778 C19.9908499,7.64486317 27.2588023,3.83160011 31.687398,1.90864874 C33.0916134,1.29892097 34.5788305,0.939835699 35.0282654,0.847394392 Z" id="Fill-399" fill="#8F5239"></path>
                                <polygon id="Fill-400" fill="#653625" points="1.81234286 54.1862037 1.03577143 53.7400926 1.01314286 38.0233333 1.78765714 38.0233333"></polygon>
                                <polygon id="Fill-401" fill="#8F5239" points="3.76251429 52.9717596 1.81234286 54.1862037 1.78765714 36.5861907 3.74091429 36.5861907"></polygon>
                            </g>
                        </g>
                        <g id="room-2-separation" transform="translate(6.000000, 100.000000)">
                            <g id="Group-8">
                                <polygon id="Rectangle-3-Copy" fill="#2E2047" transform="translate(29.735595, 17.083473) scale(-1, 1) translate(-29.735595, -17.083473) " points="2.25430309 33.7813967 59.4711891 1.76511495 56.9836323 0.385549531 -5.61328761e-13 32.2626713"></polygon>
                                <polygon id="Rectangle-3-Copy" fill="url(#radialGradient-17)" transform="translate(28.662037, 75.597950) scale(-1, 1) translate(-28.662037, -75.597950) " points="-1.3500312e-13 33.6742095 57.3240733 1.69489555 57.3240733 117.340145 0.64611633 149.501005"></polygon>
                                <polygon id="Rectangle-3-Copy" stroke="#8AB5FB" stroke-width="0.7" fill="#3479EB" stroke-linecap="round" stroke-linejoin="round" transform="translate(58.235595, 61.815197) scale(-1, 1) translate(-58.235595, -61.815197) " points="59.4711891 33.459835 59.4711891 91.3677236 57 89.0657695 57 32.2626713"></polygon>
                            </g>
                            <g id="Container" transform="translate(26.000000, 30.000000)">
                                <polygon id="Rectangle-3" fill="#2E2047" points="2.94965156 19.3478009 33.4330882 2.08302385 30.7936979 0.412763328 0.557248493 17.5141726"></polygon>
                                <polygon id="Rectangle-3" fill="#5F4A83" points="2.94965156 19.3478009 2.94965156 130.556485 0.557248493 128.883231 0.557248493 17.5141726"></polygon>
                                <polygon id="Path-8" fill="url(#radialGradient-18)" points="3.05318017 19.2770676 3.05318017 130.5817 33.4330882 114.677065 33.4330882 2.2108823"></polygon>
                            </g>
                        </g>
                    </g>
                </g>
            </g>
        </g>
    </g>
</svg>