<?xml version="1.0" encoding="UTF-8"?>
<svg width="291px" height="274px" viewBox="0 0 291 274" version="1.1" xmlns="http://www.w3.org/2000/svg" xmlns:xlink="http://www.w3.org/1999/xlink">
    <!-- Generator: Sketch 47.1 (45422) - http://www.bohemiancoding.com/sketch -->
    <title>room 1</title>
    <desc>Created with Sketch.</desc>
    <defs>
        <radialGradient cx="52.3703039%" cy="38.513804%" fx="52.3703039%" fy="38.513804%" r="63.4015182%" gradientTransform="translate(0.523703,0.385138),scale(0.566096,1.000000),rotate(90.000000),translate(-0.523703,-0.385138)" id="radialGradient-1">
            <stop stop-color="#8EA6BA" offset="0%"></stop>
            <stop stop-color="#2D4564" offset="100%"></stop>
        </radialGradient>
        <polygon id="path-2" points="0.843878644 144.629762 266.442669 0 471.046419 114.260542 211.074728 266.179984"></polygon>
        <radialGradient cx="76.7317951%" cy="0%" fx="76.7317951%" fy="0%" r="63.4015182%" gradientTransform="translate(0.767318,0.000000),scale(0.483907,1.000000),rotate(90.000000),translate(-0.767318,-0.000000)" id="radialGradient-4">
            <stop stop-color="#0D2132" offset="0%"></stop>
            <stop stop-color="#2D4564" offset="100%"></stop>
        </radialGradient>
        <radialGradient cx="76.7317951%" cy="0%" fx="76.7317951%" fy="0%" r="63.4015182%" gradientTransform="translate(0.767318,0.000000),scale(0.510923,1.000000),rotate(90.000000),translate(-0.767318,-0.000000)" id="radialGradient-5">
            <stop stop-color="#0D2132" offset="0%"></stop>
            <stop stop-color="#2D4564" offset="100%"></stop>
        </radialGradient>
        <radialGradient cx="4.24256437%" cy="29.5135616%" fx="4.24256437%" fy="29.5135616%" r="63.4015182%" gradientTransform="translate(0.042426,0.295136),scale(0.704460,1.000000),rotate(90.000000),translate(-0.042426,-0.295136)" id="radialGradient-6">
            <stop stop-color="#0D2132" offset="0%"></stop>
            <stop stop-color="#2D4564" offset="100%"></stop>
        </radialGradient>
        <radialGradient cx="76.7317951%" cy="0%" fx="76.7317951%" fy="0%" r="63.4015182%" gradientTransform="translate(0.767318,0.000000),scale(0.546551,1.000000),rotate(90.000000),translate(-0.767318,-0.000000)" id="radialGradient-7">
            <stop stop-color="#0D2132" offset="0%"></stop>
            <stop stop-color="#2D4564" offset="100%"></stop>
        </radialGradient>
        <radialGradient cx="42.2003805%" cy="89.6025678%" fx="42.2003805%" fy="89.6025678%" r="48.9512664%" gradientTransform="translate(0.422004,0.896026),scale(1.000000,0.890731),rotate(97.156414),translate(-0.422004,-0.896026)" id="radialGradient-8">
            <stop stop-color="#C9607D" offset="0%"></stop>
            <stop stop-color="#80647E" offset="100%"></stop>
        </radialGradient>
        <path d="M201.016707,117.170972 L201.016707,225.966757 L0.54204595,109.577296 L0.218990772,0.536458727 L201.016707,117.170972 Z M30.223,35.2944 L30.223,103.2376 L50.9,115.2496 L50.9,47.3064 L30.223,35.2944 Z M58.223,51.2944 L58.223,119.2376 L78.9,131.2496 L78.9,63.3064 L58.223,51.2944 Z M133.223,92.2944 L133.223,160.2376 L153.9,172.2496 L153.9,104.3064 L133.223,92.2944 Z M161.223,108.2944 L161.223,176.2376 L181.9,188.2496 L181.9,120.3064 L161.223,108.2944 Z" id="path-9"></path>
        <linearGradient x1="50%" y1="0%" x2="33.2844558%" y2="81.1720736%" id="linearGradient-11">
            <stop stop-color="#302346" offset="0%"></stop>
            <stop stop-color="#97627D" offset="100%"></stop>
        </linearGradient>
        <radialGradient cx="100%" cy="132.571945%" fx="100%" fy="132.571945%" r="99.8844069%" gradientTransform="translate(1.000000,1.325719),scale(0.583215,1.000000),rotate(90.000000),translate(-1.000000,-1.325719)" id="radialGradient-12">
            <stop stop-color="#2F1E48" offset="0%"></stop>
            <stop stop-color="#3F394C" offset="100%"></stop>
        </radialGradient>
        <polygon id="path-13" points="-0.240023095 117.170972 206.669786 -3.03387284 200.249765 -6.79898779 -5.89310215 114.098722"></polygon>
        <radialGradient cx="100%" cy="132.571945%" fx="100%" fy="132.571945%" r="99.8844069%" gradientTransform="translate(1.000000,1.325719),scale(0.563928,1.000000),rotate(90.000000),translate(-1.000000,-1.325719)" id="radialGradient-15">
            <stop stop-color="#2E2047" offset="0%"></stop>
            <stop stop-color="#291E42" offset="99.1430166%"></stop>
        </radialGradient>
        <radialGradient cx="23.9960062%" cy="91.7884308%" fx="23.9960062%" fy="91.7884308%" r="73.9071051%" gradientTransform="translate(0.239960,0.917884),scale(1.000000,0.910683),rotate(95.992862),scale(1.000000,0.986484),translate(-0.239960,-0.917884)" id="radialGradient-16">
            <stop stop-color="#C9607D" offset="0%"></stop>
            <stop stop-color="#80647E" offset="54.9366231%"></stop>
            <stop stop-color="#473C60" offset="100%"></stop>
        </radialGradient>
        <radialGradient cx="100%" cy="132.571945%" fx="100%" fy="132.571945%" r="99.8844069%" gradientTransform="translate(1.000000,1.325719),scale(1.000000,0.835044),rotate(90.000000),translate(-1.000000,-1.325719)" id="radialGradient-17">
            <stop stop-color="#2F1E48" offset="0%"></stop>
            <stop stop-color="#3F394C" offset="100%"></stop>
        </radialGradient>
        <radialGradient cx="50%" cy="26.4620567%" fx="50%" fy="26.4620567%" r="63.7438598%" gradientTransform="translate(0.500000,0.264621),scale(1.000000,0.793503),rotate(78.923540),translate(-0.500000,-0.264621)" id="radialGradient-18">
            <stop stop-color="#7F5470" offset="0%"></stop>
            <stop stop-color="#4B3E62" offset="100%"></stop>
        </radialGradient>
        <radialGradient cx="100%" cy="132.571945%" fx="100%" fy="132.571945%" r="99.8844069%" gradientTransform="translate(1.000000,1.325719),scale(1.000000,0.847959),rotate(90.000000),translate(-1.000000,-1.325719)" id="radialGradient-19">
            <stop stop-color="#2F1E48" offset="0%"></stop>
            <stop stop-color="#3F394C" offset="100%"></stop>
        </radialGradient>
        <linearGradient x1="50%" y1="12.7835531%" x2="50%" y2="73.8908359%" id="linearGradient-20">
            <stop stop-color="#2C1817" offset="0%"></stop>
            <stop stop-color="#040203" offset="100%"></stop>
        </linearGradient>
    </defs>
    <g id="Page-1" stroke="none" stroke-width="1" fill="none" fill-rule="evenodd">
        <g id="Grids" transform="translate(-2072.000000, -954.000000)">
            <g id="Group-26" transform="translate(1776.000000, 138.000000)">
                <g id="floor-3" transform="translate(112.000000, 745.000000)">
                    <g id="room-1" transform="translate(2.000000, 8.000000)">
                        <g id="room-1-floor" transform="translate(0.000000, 108.000000)">
                            <g id="floor-1">
                                <g>
                                    <mask id="mask-3" fill="white">
                                        <use xlink:href="#path-2"></use>
                                    </mask>
                                    <use id="Mask" fill="url(#radialGradient-1)" xlink:href="#path-2"></use>
                                    <polygon id="Mask-Copy" fill="url(#radialGradient-4)" mask="url(#mask-3)" points="-8 235.880787 153.224264 149 219.673553 192.797348 58.0258371 259.172739"></polygon>
                                    <polygon id="Mask-Copy-3" fill="url(#radialGradient-5)" mask="url(#mask-3)" points="104.039039 313.689495 253.224264 213 319.673553 256.797348 158.025837 323.172739"></polygon>
                                    <polygon id="Mask-Copy-5" fill="url(#radialGradient-6)" mask="url(#mask-3)" points="235.756266 150.026703 373.224264 53 439.673553 96.7973476 328.677416 196.651614"></polygon>
                                    <polygon id="Mask-Copy-4" fill="url(#radialGradient-7)" mask="url(#mask-3)" points="39.2146659 286.066559 203.224264 213 230.654607 232.579255 103.733574 317.631773"></polygon>
                                    <polygon id="Rectangle-6-Copy-4" fill="#040303" opacity="0.699999988" mask="url(#mask-3)" points="143 68.9772271 223.216681 23 266 45.8188382 184.446087 93.1778625"></polygon>
                                    <polygon id="Rectangle-6-Copy-4" fill="#040303" opacity="0.699999988" mask="url(#mask-3)" points="291 113.841394 371.216681 67.8641672 414 90.6830054 332.446087 138.04203"></polygon>
                                    <g id="Group" mask="url(#mask-3)">
                                        <g transform="translate(249.406677, 132.193745) rotate(1.000000) translate(-249.406677, -132.193745) translate(8.906677, -7.306255)" id="Group-6">
                                            <g transform="translate(226.982203, 140.474273) scale(1, -1) translate(-226.982203, -140.474273) translate(0.482203, 2.474273)">
                                                <polygon id="Fill-21" fill="#0A0607" points="277.765471 274.665562 1.20927637 113.990234 0.442929819 114.448482 276.999124 275.12333"></polygon>
                                                <polygon id="Fill-21-Copy" fill="#0A0607" points="278.02724 264.668989 1.47104586 103.99366 0.704699302 104.451909 277.260894 265.126757"></polygon>
                                                <polygon id="Fill-21-Copy-3" fill="#0A0607" points="298.046564 264.192871 21.4903693 103.517542 20.7240227 103.97579 297.280217 264.650639"></polygon>
                                                <polygon id="Fill-21-Copy-2" fill="#0A0607" points="298.308333 254.196297 21.7521388 93.5209688 20.9857922 93.9792172 297.541987 254.654065"></polygon>
                                                <polygon id="Fill-21-Copy-7" fill="#0A0607" points="328.140991 260.97955 51.5847968 100.304221 50.8184503 100.76247 327.374645 261.437318"></polygon>
                                                <polygon id="Fill-21-Copy-6" fill="#0A0607" points="328.402761 250.982976 51.8465663 90.307648 51.0802198 90.7658963 327.636414 251.440744"></polygon>
                                                <polygon id="Fill-21-Copy-5" fill="#0A0607" points="348.422084 250.506858 71.8658898 89.8315296 71.0995432 90.2897779 347.655738 250.964626"></polygon>
                                                <polygon id="Fill-21-Copy-4" fill="#0A0607" points="348.683854 240.510285 72.1276593 79.8349564 71.3613127 80.2932047 347.917507 240.968053"></polygon>
                                                <polygon id="Fill-21-Copy-11" fill="#0A0607" points="368.677 241.033824 92.1208058 80.3584953 91.3544592 80.8167437 367.910654 241.491592"></polygon>
                                                <polygon id="Fill-21-Copy-10" fill="#0A0607" points="368.93877 231.037251 92.3825752 70.3619221 91.6162287 70.8201704 368.172423 231.495019"></polygon>
                                                <polygon id="Fill-21-Copy-9" fill="#0A0607" points="388.958093 230.561132 112.401899 69.8858037 111.635552 70.344052 388.191747 231.0189"></polygon>
                                                <polygon id="Fill-21-Copy-8" fill="#0A0607" points="389.219863 220.564559 112.663668 59.8892305 111.897322 60.3474788 388.453516 221.022327"></polygon>
                                                <polygon id="Fill-21-Copy-15" fill="#0A0607" points="392.454427 211.646174 115.898233 50.9708454 115.131886 51.4290937 391.688081 212.103942"></polygon>
                                                <polygon id="Fill-21-Copy-14" fill="#0A0607" points="392.716197 201.649601 116.160002 40.9742721 115.393656 41.4325205 391.94985 202.107369"></polygon>
                                                <polygon id="Fill-21-Copy-13" fill="#0A0607" points="412.73552 201.173482 136.179326 40.4981538 135.412979 40.9564021 411.969174 201.63125"></polygon>
                                                <polygon id="Fill-21-Copy-12" fill="#0A0607" points="412.99729 191.176909 136.441095 30.5015805 135.674749 30.9598289 412.230943 191.634677"></polygon>
                                                <polygon id="Fill-21-Copy-20" fill="#0A0607" points="429.219863 190.564559 152.663668 29.8892305 151.897322 30.3474788 428.453516 191.022327"></polygon>
                                                <polygon id="Fill-21-Copy-19" fill="#0A0607" points="432.454427 181.646174 155.898233 20.9708454 155.131886 21.4290937 431.688081 182.103942"></polygon>
                                                <polygon id="Fill-21-Copy-18" fill="#0A0607" points="432.716197 171.649601 156.160002 10.9742721 155.393656 11.4325205 431.94985 172.107369"></polygon>
                                                <polygon id="Fill-21-Copy-17" fill="#0A0607" points="452.73552 171.173482 176.179326 10.4981538 175.412979 10.9564021 451.969174 171.63125"></polygon>
                                                <polygon id="Fill-21-Copy-16" fill="#0A0607" points="452.99729 161.176909 176.441095 0.501580537 175.674749 0.959828862 452.230943 161.634677"></polygon>
                                            </g>
                                        </g>
                                    </g>
                                </g>
                            </g>
                        </g>
                        <g id="room-2-window-wall" transform="translate(266.000000, 0.000000)">
                            <g id="room-common-walls">
                                <g>
                                    <mask id="mask-10" fill="white">
                                        <use xlink:href="#path-9"></use>
                                    </mask>
                                    <use id="Mask" fill="url(#radialGradient-8)" xlink:href="#path-9"></use>
                                    <polygon id="Path-3" fill="url(#linearGradient-11)" mask="url(#mask-10)" transform="translate(167.331995, 224.197675) scale(-1, 1) translate(-167.331995, -224.197675) " points="194.045535 176 122 272.395351 212.66399 264.327743"></polygon>
                                    <mask id="mask-14" fill="white">
                                        <use xlink:href="#path-13"></use>
                                    </mask>
                                    <use id="Rectangle-3-Copy" fill="url(#radialGradient-12)" transform="translate(100.388342, 55.185992) scale(-1, 1) translate(-100.388342, -55.185992) " xlink:href="#path-13"></use>
                                    <g id="room-2-windows" transform="translate(24.000000, 28.000000)">
                                        <g>
                                            <path d="M0.0746666667,0.1444 L0.0746666667,78.81 L29.9741667,96.1832 L29.9741667,17.5228 L0.0746666667,0.1444 Z M3.14883333,5.5108 L26.9,19.3064 L26.9,90.822 L3.14883333,77.0212 L3.14883333,5.5108 L3.14883333,5.5108 Z" id="Fill-873" fill="#424B54"></path>
                                            <polyline id="Fill-874" fill="#2C353C" points="3.14883333 77.0212 26.9 90.822 26.9 87.2496 6.223 75.2376 3.14883333 77.0212"></polyline>
                                            <polyline id="Fill-875" fill="#20292F" points="3.14883333 5.5108 3.14883333 77.0212 6.223 75.2376 6.223 7.2944 3.14883333 5.5108"></polyline>
                                            <polyline id="Fill-880" fill="#20292F" points="26.9 42.54 6.223 30.528 4.37333333 31.5888 26.9 44.6772 26.9 42.54"></polyline>
                                            <polyline id="Fill-881" fill="#424B54" points="26.9 44.6772 4.37333333 31.5888 4.37333333 33.4972 26.9 46.5804 26.9 44.6772"></polyline>
                                        </g>
                                        <g transform="translate(28.000000, 16.299988)">
                                            <path d="M0.0746666667,0.1444 L0.0746666667,78.81 L29.9741667,96.1832 L29.9741667,17.5228 L0.0746666667,0.1444 Z M3.14883333,5.5108 L26.9,19.3064 L26.9,90.822 L3.14883333,77.0212 L3.14883333,5.5108 L3.14883333,5.5108 Z" id="Fill-873" fill="#424B54"></path>
                                            <polyline id="Fill-874" fill="#2C353C" points="3.14883333 77.0212 26.9 90.822 26.9 87.2496 6.223 75.2376 3.14883333 77.0212"></polyline>
                                            <polyline id="Fill-875" fill="#20292F" points="3.14883333 5.5108 3.14883333 77.0212 6.223 75.2376 6.223 7.2944 3.14883333 5.5108"></polyline>
                                            <polyline id="Fill-880" fill="#20292F" points="26.9 42.54 6.223 30.528 4.37333333 31.5888 26.9 44.6772 26.9 42.54"></polyline>
                                            <polyline id="Fill-881" fill="#424B54" points="26.9 44.6772 4.37333333 31.5888 4.37333333 33.4972 26.9 46.5804 26.9 44.6772"></polyline>
                                        </g>
                                    </g>
                                </g>
                            </g>
                        </g>
                        <g id="room-2-front-wall" transform="translate(193.000000, 74.000000)">
                            <g id="room-1-windows" transform="translate(200.000000, 11.000000)">
                                <g id="windows">
                                    <path d="M0.0746666667,0.1444 L0.0746666667,78.81 L29.9741667,96.1832 L29.9741667,17.5228 L0.0746666667,0.1444 Z M3.14883333,5.5108 L26.9,19.3064 L26.9,90.822 L3.14883333,77.0212 L3.14883333,5.5108 L3.14883333,5.5108 Z" id="Fill-873" fill="#424B54"></path>
                                    <polyline id="Fill-874" fill="#2C353C" points="3.14883333 77.0212 26.9 90.822 26.9 87.2496 6.223 75.2376 3.14883333 77.0212"></polyline>
                                    <polyline id="Fill-875" fill="#20292F" points="3.14883333 5.5108 3.14883333 77.0212 6.223 75.2376 6.223 7.2944 3.14883333 5.5108"></polyline>
                                    <polyline id="Fill-880" fill="#20292F" points="26.9 42.54 6.223 30.528 4.37333333 31.5888 26.9 44.6772 26.9 42.54"></polyline>
                                    <polyline id="Fill-881" fill="#424B54" points="26.9 44.6772 4.37333333 31.5888 4.37333333 33.4972 26.9 46.5804 26.9 44.6772"></polyline>
                                </g>
                                <g id="windows" transform="translate(28.000000, 16.299988)">
                                    <path d="M0.0746666667,0.1444 L0.0746666667,78.81 L29.9741667,96.1832 L29.9741667,17.5228 L0.0746666667,0.1444 Z M3.14883333,5.5108 L26.9,19.3064 L26.9,90.822 L3.14883333,77.0212 L3.14883333,5.5108 L3.14883333,5.5108 Z" id="Fill-873" fill="#424B54"></path>
                                    <polyline id="Fill-874" fill="#2C353C" points="3.14883333 77.0212 26.9 90.822 26.9 87.2496 6.223 75.2376 3.14883333 77.0212"></polyline>
                                    <polyline id="Fill-875" fill="#20292F" points="3.14883333 5.5108 3.14883333 77.0212 6.223 75.2376 6.223 7.2944 3.14883333 5.5108"></polyline>
                                    <polyline id="Fill-880" fill="#20292F" points="26.9 42.54 6.223 30.528 4.37333333 31.5888 26.9 44.6772 26.9 42.54"></polyline>
                                    <polyline id="Fill-881" fill="#424B54" points="26.9 44.6772 4.37333333 31.5888 4.37333333 33.4972 26.9 46.5804 26.9 44.6772"></polyline>
                                </g>
                            </g>
                            <g id="room-1-mid-wall">
                                <polygon id="Rectangle-3" fill="url(#radialGradient-15)" points="3.37122662 107.723468 190.433088 2.08302385 187.793698 0.412763328 0.141502714 105.573687"></polygon>
                                <path d="M44.6090742,184.089222 L190.433088,103.098695 L190.433088,2.08726117 L4.29793908,106.583336 L4.29793908,206.47799 L18,198.867878 L18,132.5024 L44.1002069,118 L44.6090742,184.089222 Z" id="Combined-Shape" fill="url(#radialGradient-16)"></path>
                            </g>
                            <g id="room-1-door" transform="translate(31.000000, 157.000000) scale(-1, 1) translate(-31.000000, -157.000000) translate(14.000000, 113.000000)">
                                <polygon id="Fill-138" fill="#BF687F" points="5.24772414 71.0254543 5.62758621 6.55776 3.48910345 6.14592 3.48910345 71.9159467"></polygon>
                                <polyline id="Fill-137" fill="#2A1B47" points="28.5893103 86.4183467 30.9353103 87.7735467 30.9353103 19.9067733 0.915655172 2.07914667 0.915655172 70.42816 3.48910345 71.9159467 3.48910345 6.14592 28.5893103 20.64832 28.5893103 86.4183467"></polyline>
                                <polyline id="Fill-139" fill="#77465C" points="30.9353103 87.7735467 33.1945517 86.4922667 33.1945517 18.7170133 3.0517931 0.885866667 0.915655172 2.07914667 30.9353103 19.9067733 30.9353103 87.7735467"></polyline>
                                <polyline id="Fill-140" fill="#BF687F" points="30.9353103 19.9067733 33.1945517 18.7170133 33.1945517 86.4922667 30.9353103 87.7735467 30.9353103 19.9067733"></polyline>
                            </g>
                            <g id="room-1-bed" transform="translate(161.000000, 121.000000) scale(-1, 1) translate(-161.000000, -121.000000) translate(105.000000, 72.000000)">
                                <g id="Group-20">
                                    <polygon id="Fill-395" fill="#7D384D" points="33.3856369 36.5861907 32.6090654 36.1390611 32.5833512 11.3330425 33.358894 11.7791537"></polygon>
                                    <polygon id="Fill-396" fill="#7D384D" points="32.559694 3.13091291 33.3352369 3.57702402 33.3486083 8.07582032 3.70697143 24.5585185 2.9304 24.1124074 32.5730654 7.62970921"></polygon>
                                    <polygon id="Fill-397" fill="#7D384D" points="1.7928 38.4867593 1.01622857 38.0406481 0.962742857 19.0615741 1.73828571 19.5076852"></polygon>
                                    <path d="M1.89977143,18.2060185 C2.18057143,17.955463 2.4624,17.7130556 2.74525714,17.4757407 L2.83062857,17.4064815 L3.00651429,17.2649074 C3.19988571,17.1060185 3.39325714,16.9471296 3.58765714,16.7943519 C3.75942857,16.6599074 3.9312,16.5336111 4.104,16.4052778 L4.30148571,16.2555556 L4.41668571,16.1689815 C4.68617143,15.9724074 4.95668571,15.7819444 5.22822857,15.5975926 L5.4936,15.4244444 L5.71988571,15.2767593 C5.81965714,15.2125926 5.91942857,15.1433333 6.02022857,15.0812037 C6.2784,14.9172222 6.53862857,14.7593519 6.79782857,14.6086111 L18.2275797,7.74887587 C18.4240369,7.63683884 18.620494,7.52785735 18.8159226,7.42294995 C19.0689512,7.28748698 19.3219797,7.15813513 19.5739797,7.03489439 L19.7550083,6.95035735 C19.945294,6.85869069 20.1355797,6.76804254 20.3258654,6.6835055 C20.5758083,6.57248698 31.112494,1.37498698 31.3614083,1.27619069 L31.4519226,1.24257958 C31.6730654,1.1560055 31.8942083,1.07248698 32.1143226,0.995079577 C32.3467797,0.913598096 32.5792369,0.840264762 32.8096369,0.769986985 C33.1305512,0.672209207 33.3866654,0.602949947 33.6417512,0.538783281 C33.8464369,0.487857355 34.050094,0.442024022 34.251694,0.400264762 L34.5057512,0.348320318 L35.281294,0.794431429 L35.0282654,0.847394392 C34.5654083,0.943135133 34.0974083,1.06128328 33.6273512,1.20285735 C33.1346654,1.3535981 32.682094,1.51146847 32.228494,1.68869069 C31.7183226,1.88832032 20.9810654,7.18156106 20.528494,7.39748698 L20.4215226,7.44739439 C19.9494083,7.67656106 19.4762654,7.92507958 19.0041512,8.1960055 C18.5855226,8.43433884 6.91508571,15.4509259 6.49748571,15.7228704 L6.26914286,15.8715741 C5.87108571,16.1353704 5.47302857,16.4113889 5.076,16.7026852 L4.88262857,16.8493519 C4.51337143,17.1253704 4.14617143,17.4136111 3.78,17.7130556 L3.6072,17.8525926 C3.17417143,18.2121296 2.74422857,18.5849074 2.31737143,18.9760185 L1.73828571,19.5076852 L0.962742857,19.0615741 L1.54182857,18.5288889 C1.66114286,18.4209259 1.77942857,18.3119444 1.89977143,18.2060185 Z" id="Fill-398" fill="#7D384D"></path>
                                    <path d="M33.3486083,8.07582032 L33.3352369,3.57702402 C32.0135226,3.95998698 30.6599226,4.54665365 29.2929512,5.32785735 C27.9218654,6.11211661 5.02148571,18.9291667 3.6936,20.0678704 L3.70697143,24.5585185 L33.3486083,8.07582032 Z M35.0282654,0.847394392 L35.281294,0.794431429 L35.3358083,35.4709129 L33.3856369,36.5861907 L33.358894,11.7791537 L3.71725714,28.2618519 L3.74297143,37.3714815 L1.7928,38.4867593 L1.73828571,19.5076852 L2.31737143,18.9760185 C3.06441394,18.2916613 5.10126453,16.479865 8.07858432,14.5648611 C12.1644385,11.936851 17.4614081,9.09114025 18.5211042,8.48545778 C19.9908499,7.64486317 27.2588023,3.83160011 31.687398,1.90864874 C33.0916134,1.29892097 34.5788305,0.939835699 35.0282654,0.847394392 Z" id="Fill-399" fill="#CC7772"></path>
                                    <polygon id="Fill-400" fill="#7D384D" points="1.81234286 54.1862037 1.03577143 53.7400926 1.01314286 38.0233333 1.78765714 38.0233333"></polygon>
                                    <polygon id="Fill-401" fill="#CC7772" points="3.76251429 52.9717596 1.81234286 54.1862037 1.78765714 36.5861907 3.74091429 36.5861907"></polygon>
                                </g>
                                <polygon id="Fill-763" fill="#7D384D" points="111.091626 67.3350727 77.923 86.109 77.933 81.608 111.101626 62.8340727"></polygon>
                                <polygon id="Fill-764" fill="#7D384D" points="77.923 86.109 2.94479622 43.1444177 2.95579622 38.6434177 77.933 81.608"></polygon>
                                <polygon id="Fill-768" fill="#AFAED3" points="77.933 75.365 2.91 32.417 36.106353 13.6526338 111.128353 56.6016338"></polygon>
                                <polygon id="Fill-769" fill="#965D8F" points="111.122697 63.13674 77.923 81.903 77.933 75.365 111.132697 56.59874"></polygon>
                                <polygon id="Fill-770" fill="#9B7396" points="77.923 81.903 2.899 38.956 2.91 32.417 77.933 75.365"></polygon>
                                <g id="Group-20" transform="translate(76.000000, 43.000000)">
                                    <polygon id="Fill-395" fill="#7D384D" points="33.3856369 36.5861907 32.6090654 36.1390611 32.5833512 11.3330425 33.358894 11.7791537"></polygon>
                                    <polygon id="Fill-396" fill="#7D384D" points="32.559694 3.13091291 33.3352369 3.57702402 33.3486083 8.07582032 3.70697143 24.5585185 2.9304 24.1124074 32.5730654 7.62970921"></polygon>
                                    <polygon id="Fill-397" fill="#7D384D" points="1.7928 38.4867593 1.01622857 38.0406481 0.962742857 19.0615741 1.73828571 19.5076852"></polygon>
                                    <path d="M1.89977143,18.2060185 C2.18057143,17.955463 2.4624,17.7130556 2.74525714,17.4757407 L2.83062857,17.4064815 L3.00651429,17.2649074 C3.19988571,17.1060185 3.39325714,16.9471296 3.58765714,16.7943519 C3.75942857,16.6599074 3.9312,16.5336111 4.104,16.4052778 L4.30148571,16.2555556 L4.41668571,16.1689815 C4.68617143,15.9724074 4.95668571,15.7819444 5.22822857,15.5975926 L5.4936,15.4244444 L5.71988571,15.2767593 C5.81965714,15.2125926 5.91942857,15.1433333 6.02022857,15.0812037 C6.2784,14.9172222 6.53862857,14.7593519 6.79782857,14.6086111 L18.2275797,7.74887587 C18.4240369,7.63683884 18.620494,7.52785735 18.8159226,7.42294995 C19.0689512,7.28748698 19.3219797,7.15813513 19.5739797,7.03489439 L19.7550083,6.95035735 C19.945294,6.85869069 20.1355797,6.76804254 20.3258654,6.6835055 C20.5758083,6.57248698 31.112494,1.37498698 31.3614083,1.27619069 L31.4519226,1.24257958 C31.6730654,1.1560055 31.8942083,1.07248698 32.1143226,0.995079577 C32.3467797,0.913598096 32.5792369,0.840264762 32.8096369,0.769986985 C33.1305512,0.672209207 33.3866654,0.602949947 33.6417512,0.538783281 C33.8464369,0.487857355 34.050094,0.442024022 34.251694,0.400264762 L34.5057512,0.348320318 L35.281294,0.794431429 L35.0282654,0.847394392 C34.5654083,0.943135133 34.0974083,1.06128328 33.6273512,1.20285735 C33.1346654,1.3535981 32.682094,1.51146847 32.228494,1.68869069 C31.7183226,1.88832032 20.9810654,7.18156106 20.528494,7.39748698 L20.4215226,7.44739439 C19.9494083,7.67656106 19.4762654,7.92507958 19.0041512,8.1960055 C18.5855226,8.43433884 6.91508571,15.4509259 6.49748571,15.7228704 L6.26914286,15.8715741 C5.87108571,16.1353704 5.47302857,16.4113889 5.076,16.7026852 L4.88262857,16.8493519 C4.51337143,17.1253704 4.14617143,17.4136111 3.78,17.7130556 L3.6072,17.8525926 C3.17417143,18.2121296 2.74422857,18.5849074 2.31737143,18.9760185 L1.73828571,19.5076852 L0.962742857,19.0615741 L1.54182857,18.5288889 C1.66114286,18.4209259 1.77942857,18.3119444 1.89977143,18.2060185 Z" id="Fill-398" fill="#7D384D"></path>
                                    <path d="M33.3486083,8.07582032 L33.3352369,3.57702402 C32.0135226,3.95998698 30.6599226,4.54665365 29.2929512,5.32785735 C27.9218654,6.11211661 5.02148571,18.9291667 3.6936,20.0678704 L3.70697143,24.5585185 L33.3486083,8.07582032 Z M35.0282654,0.847394392 L35.281294,0.794431429 L35.3358083,35.4709129 L33.3856369,36.5861907 L33.358894,11.7791537 L3.71725714,28.2618519 L3.74297143,37.3714815 L1.7928,38.4867593 L1.73828571,19.5076852 L2.31737143,18.9760185 C3.06441394,18.2916613 5.10126453,16.479865 8.07858432,14.5648611 C12.1644385,11.936851 17.4614081,9.09114025 18.5211042,8.48545778 C19.9908499,7.64486317 27.2588023,3.83160011 31.687398,1.90864874 C33.0916134,1.29892097 34.5788305,0.939835699 35.0282654,0.847394392 Z" id="Fill-399" fill="#CC7772"></path>
                                    <polygon id="Fill-400" fill="#7D384D" points="1.81234286 54.1862037 1.03577143 53.7400926 1.01314286 38.0233333 1.78765714 38.0233333"></polygon>
                                    <polygon id="Fill-401" fill="#CC7772" points="3.76251429 52.9717596 1.81234286 54.1862037 1.78765714 36.5861907 3.74091429 36.5861907"></polygon>
                                </g>
                            </g>
                            <g id="room-1-front-wall-separation" transform="translate(108.000000, 43.000000)">
                                <polygon id="Rectangle-3-Copy" fill="url(#radialGradient-17)" transform="translate(75.533254, 91.305665) scale(-1, 1) translate(-75.533254, -91.305665) " points="29.9291197 15.7814402 34.0486478 81.1075311 89.14527 129.437883 140.40047 155.922221 140.40047 173.824595 151.04683 181.736368 107.778319 155.922221 86.4632505 132.08424 31.2770448 82.8120954 26.9108269 17.3058201 0.0196774317 2.37888083 2.71636156 0.874960836"></polygon>
                                <polygon id="Rectangle-3-Copy" fill="url(#radialGradient-18)" transform="translate(82.260942, 89.068416) scale(-1, 1) translate(-82.260942, -89.068416) " points="14.3735317 96.0331062 151.04964 175.758358 151.04964 158.026875 99.9761453 131.99052 44.6120119 82.7448982 40.3965521 17.2454004 13.4722438 2.37847381"></polygon>
                                <polygon id="Path-4" fill="#040203" opacity="0.699999988" points="31.2171778 148.961902 20.1623952 171.422102 39.7394801 161.674394"></polygon>
                            </g>
                            <g id="room-1-brick-hole" transform="translate(138.000000, 161.000000)">
                                <polygon id="Path-8" fill="#2F1423" points="0.96 24.033393 0.96 42.3729134 36.641939 21.9318228 36.7232037 3.70929934"></polygon>
                                <polygon id="Rectangle-2" fill="#3C264C" points="36.6790536 3 53.9567527 12.7388306 51.2465746 38.1997664 36.6622431 32.7070446"></polygon>
                                <g id="Container" transform="translate(1.000000, 0.000000)">
                                    <path d="M16.9571314,30.034751 L0.00964972646,20.3023181 L35.9734925,0.290290043 L52.730503,9.69464263 L16.9571314,30.034751 Z M17.3578792,25 L44,9.74257338 L35.7360542,5 L9,20.0919772 L17.3578792,25 Z" id="Combined-Shape" fill="#A66173"></path>
                                    <polygon id="Path-8" fill="#6C3E53" points="16.96 30.033393 16.96 48.3729134 52.641939 27.9318228 52.7232037 9.70929934"></polygon>
                                    <g id="Group-7" opacity="0.699999988" transform="translate(18.000000, 11.799988)" fill="#392A56">
                                        <polyline id="Fill-35" points="3.29495413 25.1545816 0.0537889908 26.995234 0.0537889908 25.3178156 3.29495413 23.4771631 3.29495413 25.1545816"></polyline>
                                        <polyline id="Fill-36" points="5.29495413 20.1900142 2.05378899 22.030766 2.05378899 20.2912908 5.29495413 18.4506383 5.29495413 20.1900142"></polyline>
                                        <polyline id="Fill-37" points="9.24116514 17.6774184 6 19.5210496 6 17.8406525 9.24116514 16 9.24116514 17.6774184"></polyline>
                                        <polyline id="Fill-38" points="3.29495413 19.0778865 0.0537889908 20.9186383 0.0537889908 19.2384397 3.29495413 17.4003688 3.29495413 19.0778865"></polyline>
                                        <polyline id="Fill-43" points="7.14253211 20.9411773 3.90429358 22.7847092 3.90429358 21.1044113 7.14253211 19.2636596 7.14253211 20.9411773"></polyline>
                                        <polyline id="Fill-44" points="13.2382385 15.6775177 10 17.5181702 10 15.8378723 13.2382385 14 13.2382385 15.6775177"></polyline>
                                        <polyline id="Fill-45" points="7.14253211 16.8910071 3.90429358 18.7317589 3.90429358 17.0542411 7.14253211 15.2134894 7.14253211 16.8910071"></polyline>
                                        <polyline id="Fill-49" points="20.907055 13.8667943 17.6689174 15.7075461 17.6689174 13.9681702 20.907055 12.1273191 20.907055 13.8667943"></polyline>
                                        <polyline id="Fill-50" points="18.907055 12.7784113 15.6689174 14.6191631 15.6689174 12.9416454 18.907055 11.1009929 18.907055 12.7784113"></polyline>
                                        <polyline id="Fill-51" points="10.907055 14.7519858 7.66891743 16.5926383 7.66891743 14.9152199 10.907055 13.0744681 10.907055 14.7519858"></polyline>
                                        <polyline id="Fill-35" points="25.2949541 13.1545816 22.053789 14.995234 22.053789 13.3178156 25.2949541 11.4771631 25.2949541 13.1545816"></polyline>
                                        <polyline id="Fill-36" points="25.2949541 11.1900142 22.053789 13.030766 22.053789 11.2912908 25.2949541 9.4506383 25.2949541 11.1900142"></polyline>
                                        <polyline id="Fill-37" points="23.2949541 10.1015319 20.053789 11.9451631 20.053789 10.264766 23.2949541 8.42411348 23.2949541 10.1015319"></polyline>
                                        <polyline id="Fill-42" points="29.1425321 10.9677021 25.9042936 12.8083546 25.9042936 11.1308369 29.1425321 9.2901844 29.1425321 10.9677021"></polyline>
                                        <polyline id="Fill-43" points="29.1425321 8.9411773 25.9042936 10.7847092 25.9042936 9.10441135 29.1425321 7.26365957 29.1425321 8.9411773"></polyline>
                                        <polyline id="Fill-44" points="29.1425321 6.91753191 25.9042936 8.7581844 25.9042936 7.07788652 29.1425321 5.24001418 29.1425321 6.91753191"></polyline>
                                        <polyline id="Fill-45" points="30.1425321 3.89100709 26.9042936 5.73175887 26.9042936 4.05424113 30.1425321 2.21348936 30.1425321 3.89100709"></polyline>
                                        <polyline id="Fill-49" points="32.907055 6.86679433 29.6689174 8.7075461 29.6689174 6.96817021 32.907055 5.12731915 32.907055 6.86679433"></polyline>
                                        <polyline id="Fill-50" points="32.907055 4.77841135 29.6689174 6.61916312 29.6689174 4.94164539 32.907055 3.10099291 32.907055 4.77841135"></polyline>
                                        <polyline id="Fill-51" points="33.907055 1.75198582 30.6689174 3.5926383 30.6689174 1.91521986 33.907055 0.0744680851 33.907055 1.75198582"></polyline>
                                    </g>
                                    <polygon id="Rectangle-2" fill="#392A56" points="0.0168105062 20.2984833 16.9567527 30.0373139 16.9534714 59.3762158 0 50.0055279"></polygon>
                                    <g id="Group-7" transform="translate(8.000000, 38.299988) scale(-1, 1) translate(-8.000000, -38.299988) translate(1.000000, 24.799988)" fill="#6B3F58">
                                        <polyline id="Fill-35" points="3.29495413 12.1545816 0.0537889908 13.995234 0.0537889908 12.3178156 3.29495413 10.4771631 3.29495413 12.1545816"></polyline>
                                        <polyline id="Fill-36" points="5.29495413 7.19001418 2.05378899 9.03076596 2.05378899 7.29129078 5.29495413 5.4506383 5.29495413 7.19001418"></polyline>
                                        <polyline id="Fill-37" points="9.24116514 4.67741844 6 6.52104965 6 4.84065248 9.24116514 3 9.24116514 4.67741844"></polyline>
                                        <polyline id="Fill-38" points="3.29495413 6.07788652 0.0537889908 7.9186383 0.0537889908 6.23843972 3.29495413 4.40036879 3.29495413 6.07788652"></polyline>
                                        <polyline id="Fill-43" points="7.14253211 7.9411773 3.90429358 9.78470922 3.90429358 8.10441135 7.14253211 6.26365957 7.14253211 7.9411773"></polyline>
                                        <polyline id="Fill-44" points="13.2382385 2.67751773 10 4.51817021 10 2.83787234 13.2382385 1 13.2382385 2.67751773"></polyline>
                                        <polyline id="Fill-45" points="7.14253211 3.89100709 3.90429358 5.73175887 3.90429358 4.05424113 7.14253211 2.21348936 7.14253211 3.89100709"></polyline>
                                        <polyline id="Fill-49" points="7.90705505 14.8667943 4.66891743 16.7075461 4.66891743 14.9681702 7.90705505 13.1273191 7.90705505 14.8667943"></polyline>
                                        <polyline id="Fill-50" points="5.90705505 13.7784113 2.66891743 15.6191631 2.66891743 13.9416454 5.90705505 12.1009929 5.90705505 13.7784113"></polyline>
                                        <polyline id="Fill-51" points="10.907055 1.75198582 7.66891743 3.5926383 7.66891743 1.91521986 10.907055 0.0744680851 10.907055 1.75198582"></polyline>
                                        <polyline id="Fill-35" points="12.2949541 14.1545816 9.05378899 15.995234 9.05378899 14.3178156 12.2949541 12.4771631 12.2949541 14.1545816"></polyline>
                                        <polyline id="Fill-36" points="12.2949541 12.1900142 9.05378899 14.030766 9.05378899 12.2912908 12.2949541 10.4506383 12.2949541 12.1900142"></polyline>
                                        <polyline id="Fill-37" points="10.2949541 11.1015319 7.05378899 12.9451631 7.05378899 11.264766 10.2949541 9.42411348 10.2949541 11.1015319"></polyline>
                                        <polyline id="Fill-42" points="9.14253211 24.9677021 5.90429358 26.8083546 5.90429358 25.1308369 9.14253211 23.2901844 9.14253211 24.9677021"></polyline>
                                        <polyline id="Fill-43" points="9.14253211 22.9411773 5.90429358 24.7847092 5.90429358 23.1044113 9.14253211 21.2636596 9.14253211 22.9411773"></polyline>
                                        <polyline id="Fill-44" points="9.14253211 20.9175319 5.90429358 22.7581844 5.90429358 21.0778865 9.14253211 19.2400142 9.14253211 20.9175319"></polyline>
                                        <polyline id="Fill-45" points="10.1425321 17.8910071 6.90429358 19.7317589 6.90429358 18.0542411 10.1425321 16.2134894 10.1425321 17.8910071"></polyline>
                                        <polyline id="Fill-49" points="12.907055 20.8667943 9.66891743 22.7075461 9.66891743 20.9681702 12.907055 19.1273191 12.907055 20.8667943"></polyline>
                                        <polyline id="Fill-50" points="12.907055 18.7784113 9.66891743 20.6191631 9.66891743 18.9416454 12.907055 17.1009929 12.907055 18.7784113"></polyline>
                                        <polyline id="Fill-51" points="13.907055 15.7519858 10.6689174 17.5926383 10.6689174 15.9152199 13.907055 14.0744681 13.907055 15.7519858"></polyline>
                                    </g>
                                </g>
                            </g>
                            <g id="room-1-front-wall" transform="translate(98.000000, 37.000000)">
                                <polygon id="Rectangle-3-Copy" fill="url(#radialGradient-19)" transform="translate(91.270868, 107.230799) scale(-1, 1) translate(-91.270868, -107.230799) " points="35.2042113 18.2588667 40.4433469 95.368196 105.137445 152.196192 181.543915 190.15666 181.543915 211.206705 177.821857 213.690015 101.988235 155.307843 37.1889486 97.3724639 32.0621638 20.3486017 0.997821921 3.08519433 4.82524485 0.771582126"></polygon>
                                <polygon id="Rectangle-3-Copy" fill="url(#linearGradient-20)" transform="translate(93.163427, 108.465098) scale(-1, 1) translate(-93.163427, -108.465098) " points="5.32685458 112.918048 181.563197 213.858582 181.563197 193.009476 105.840891 155.197645 40.8326829 97.2934517 35.8490656 20.3439331 4.76365802 3.0716136"></polygon>
                            </g>
                        </g>
                    </g>
                </g>
            </g>
        </g>
    </g>
</svg>