<?xml version="1.0" encoding="UTF-8"?>
<svg width="298px" height="331px" viewBox="0 0 298 331" version="1.1" xmlns="http://www.w3.org/2000/svg" xmlns:xlink="http://www.w3.org/1999/xlink">
    <!-- Generator: Sketch 47.1 (45422) - http://www.bohemiancoding.com/sketch -->
    <title>room 1</title>
    <desc>Created with Sketch.</desc>
    <defs>
        <polygon id="path-1" points="230.644603 75.3344566 99.1330877 0 0 40.8429055 144.832246 124.961573"></polygon>
        <radialGradient cx="52.3703039%" cy="38.513804%" fx="52.3703039%" fy="38.513804%" r="63.4015182%" gradientTransform="translate(0.523703,0.385138),scale(0.573631,1.000000),rotate(90.000000),translate(-0.523703,-0.385138)" id="radialGradient-3">
            <stop stop-color="#8EA6BA" offset="0%"></stop>
            <stop stop-color="#2D4564" offset="100%"></stop>
        </radialGradient>
        <polygon id="path-4" points="0.991080648 148.182048 258.416468 0.423845103 464.278803 115.691134 203.074728 266.179984"></polygon>
        <radialGradient cx="76.7317951%" cy="0%" fx="76.7317951%" fy="0%" r="63.4015182%" gradientTransform="translate(0.767318,0.000000),scale(0.716673,1.000000),rotate(90.000000),translate(-0.767318,-0.000000)" id="radialGradient-6">
            <stop stop-color="#0D2132" offset="0%"></stop>
            <stop stop-color="#2D4564" offset="100%"></stop>
        </radialGradient>
        <radialGradient cx="76.7317951%" cy="0%" fx="76.7317951%" fy="0%" r="63.4015182%" gradientTransform="translate(0.767318,0.000000),scale(0.449317,1.000000),rotate(90.000000),translate(-0.767318,-0.000000)" id="radialGradient-7">
            <stop stop-color="#0D2132" offset="0%"></stop>
            <stop stop-color="#2D4564" offset="100%"></stop>
        </radialGradient>
        <radialGradient cx="82.7169701%" cy="67.0992248%" fx="82.7169701%" fy="67.0992248%" r="109.686956%" gradientTransform="translate(0.827170,0.670992),scale(1.000000,0.760041),rotate(-149.735574),scale(1.000000,0.986484),translate(-0.827170,-0.670992)" id="radialGradient-8">
            <stop stop-color="#C9607D" offset="0%"></stop>
            <stop stop-color="#80647E" offset="54.9366231%"></stop>
            <stop stop-color="#473C60" offset="100%"></stop>
        </radialGradient>
        <radialGradient cx="100%" cy="132.571945%" fx="100%" fy="132.571945%" r="99.8844069%" gradientTransform="translate(1.000000,1.325719),scale(0.550511,1.000000),rotate(90.000000),translate(-1.000000,-1.325719)" id="radialGradient-9">
            <stop stop-color="#2F1E48" offset="0%"></stop>
            <stop stop-color="#3F394C" offset="100%"></stop>
        </radialGradient>
        <linearGradient x1="50%" y1="0%" x2="33.2844558%" y2="81.1720736%" id="linearGradient-10">
            <stop stop-color="#302346" offset="0%"></stop>
            <stop stop-color="#97627D" offset="100%"></stop>
        </linearGradient>
        <radialGradient cx="112.446802%" cy="74.5810842%" fx="112.446802%" fy="74.5810842%" r="63.2178949%" gradientTransform="translate(1.124468,0.745811),scale(1.000000,0.387833),rotate(91.956053),scale(1.000000,0.926390),translate(-1.124468,-0.745811)" id="radialGradient-11">
            <stop stop-color="#A15680" offset="0%"></stop>
            <stop stop-color="#3D2A4B" offset="100%"></stop>
        </radialGradient>
        <radialGradient cx="135.144198%" cy="8.13891269%" fx="135.144198%" fy="8.13891269%" r="100%" gradientTransform="translate(1.351442,0.081389),scale(1.000000,0.236657),rotate(90.000000),translate(-1.351442,-0.081389)" id="radialGradient-12">
            <stop stop-color="#CD769D" offset="0%"></stop>
            <stop stop-color="#3F394C" offset="100%"></stop>
        </radialGradient>
        <radialGradient cx="53.8354894%" cy="78.9787448%" fx="53.8354894%" fy="78.9787448%" r="73.9071051%" gradientTransform="translate(0.538355,0.789787),scale(1.000000,0.587085),rotate(93.871633),scale(1.000000,0.986484),translate(-0.538355,-0.789787)" id="radialGradient-13">
            <stop stop-color="#C9607D" offset="0%"></stop>
            <stop stop-color="#80647E" offset="54.9366231%"></stop>
            <stop stop-color="#473C60" offset="100%"></stop>
        </radialGradient>
        <radialGradient cx="100%" cy="132.571945%" fx="100%" fy="132.571945%" r="99.8844069%" gradientTransform="translate(1.000000,1.325719),scale(0.571227,1.000000),rotate(90.000000),translate(-1.000000,-1.325719)" id="radialGradient-14">
            <stop stop-color="#2F1E48" offset="0%"></stop>
            <stop stop-color="#3F394C" offset="100%"></stop>
        </radialGradient>
        <radialGradient cx="135.144198%" cy="8.13891269%" fx="135.144198%" fy="8.13891269%" r="100%" gradientTransform="translate(1.351442,0.081389),scale(1.000000,0.534106),rotate(90.000000),translate(-1.351442,-0.081389)" id="radialGradient-15">
            <stop stop-color="#CD769D" offset="0%"></stop>
            <stop stop-color="#3F394C" offset="100%"></stop>
        </radialGradient>
        <linearGradient x1="100%" y1="0%" x2="31.6134397%" y2="77.9516255%" id="linearGradient-16">
            <stop stop-color="#302346" offset="0%"></stop>
            <stop stop-color="#614260" offset="61.8723714%"></stop>
            <stop stop-color="#534258" stop-opacity="0" offset="100%"></stop>
        </linearGradient>
        <linearGradient x1="73.8829938%" y1="17.9191264%" x2="66.4296708%" y2="63.9861126%" id="linearGradient-17">
            <stop stop-color="#3A1B1A" offset="0%"></stop>
            <stop stop-color="#040203" offset="100%"></stop>
        </linearGradient>
        <radialGradient cx="100%" cy="132.571945%" fx="100%" fy="132.571945%" r="99.8844069%" gradientTransform="translate(1.000000,1.325719),scale(1.000000,0.928960),rotate(90.000000),translate(-1.000000,-1.325719)" id="radialGradient-18">
            <stop stop-color="#2F1E48" offset="0%"></stop>
            <stop stop-color="#3F394C" offset="100%"></stop>
        </radialGradient>
    </defs>
    <g id="Page-1" stroke="none" stroke-width="1" fill="none" fill-rule="evenodd" stroke-linecap="round" stroke-linejoin="round">
        <g id="Grids" transform="translate(-1884.000000, -634.000000)">
            <g id="Group-26" transform="translate(1776.000000, 138.000000)">
                <g id="floor-2" transform="translate(108.000000, 413.000000)">
                    <g id="room-1" transform="translate(0.000000, 83.000000)">
                        <g id="floor-1" transform="translate(67.000000, 173.000000)">
                            <mask id="mask-2" fill="white">
                                <use xlink:href="#path-1"></use>
                            </mask>
                            <use id="Mask" fill="#D8D8D8" xlink:href="#path-1"></use>
                            <g mask="url(#mask-2)" id="Group-29">
                                <g transform="translate(-58.000000, -152.000000)">
                                    <g transform="translate(0.000000, 11.000000)">
                                        <mask id="mask-5" fill="white">
                                            <use xlink:href="#path-4"></use>
                                        </mask>
                                        <use id="Mask" fill="url(#radialGradient-3)" xlink:href="#path-4"></use>
                                        <polygon id="Mask-Copy" fill="url(#radialGradient-6)" mask="url(#mask-5)" points="16.306947 262.880787 177.531211 176 233.97938 200.003287 98.1130307 332"></polygon>
                                        <polygon id="Mask-Copy-2" fill="url(#radialGradient-7)" mask="url(#mask-5)" points="-5.49802276 226.214451 141.447291 155.277827 152.378692 161.74067 151.355602 163.768217 21.541893 217.539791"></polygon>
                                        <polygon id="Rectangle-6-Copy" fill="#040303" opacity="0.699999988" mask="url(#mask-5)" points="219.046 103.818213 267.360437 76 276.733802 80.999362 291.262477 74.0635728 320.145038 87.7188922 304.757445 96.10329 326.489347 107.536895 276.326781 137.264828"></polygon>
                                        <polygon id="Rectangle-6-Copy-4" fill="#040303" opacity="0.699999988" mask="url(#mask-5)" points="159.125601 61.4274652 215.70195 29 245.876771 45.093991 188.35728 78.4960296"></polygon>
                                        <polygon id="Rectangle-6-Copy-5" fill="#040303" opacity="0.699999988" mask="url(#mask-5)" points="152.136484 188.093991 189.549218 167.722224 226.700964 186.353767 260.809194 168.367663 297.876771 188.093991 223.883419 229.989185"></polygon>
                                        <polygon id="Rectangle-6-Copy-6" fill="#040303" opacity="0.600000024" mask="url(#mask-5)" points="166.510781 231.094964 189.539478 219.176712 199.224623 224.361061 177.419752 236.998924"></polygon>
                                        <g id="Group-6" mask="url(#mask-5)" fill="#0A0607">
                                            <g transform="translate(233.857441, 132.949431) scale(1, -1) translate(-233.857441, -132.949431) translate(7.357441, -5.050569)">
                                                <polygon id="Fill-21" points="277.765471 274.665562 1.20927637 113.990234 0.442929819 114.448482 276.999124 275.12333"></polygon>
                                                <polygon id="Fill-21-Copy" points="278.02724 264.668989 1.47104586 103.99366 0.704699302 104.451909 277.260894 265.126757"></polygon>
                                                <polygon id="Fill-21-Copy-3" points="298.046564 264.192871 21.4903693 103.517542 20.7240227 103.97579 297.280217 264.650639"></polygon>
                                                <polygon id="Fill-21-Copy-2" points="298.308333 254.196297 21.7521388 93.5209688 20.9857922 93.9792172 297.541987 254.654065"></polygon>
                                                <polygon id="Fill-21-Copy-7" points="328.140991 260.97955 51.5847968 100.304221 50.8184503 100.76247 327.374645 261.437318"></polygon>
                                                <polygon id="Fill-21-Copy-6" points="328.402761 250.982976 51.8465663 90.307648 51.0802198 90.7658963 327.636414 251.440744"></polygon>
                                                <polygon id="Fill-21-Copy-5" points="348.422084 250.506858 71.8658898 89.8315296 71.0995432 90.2897779 347.655738 250.964626"></polygon>
                                                <polygon id="Fill-21-Copy-4" points="348.683854 240.510285 72.1276593 79.8349564 71.3613127 80.2932047 347.917507 240.968053"></polygon>
                                                <polygon id="Fill-21-Copy-11" points="368.677 241.033824 92.1208058 80.3584953 91.3544592 80.8167437 367.910654 241.491592"></polygon>
                                                <polygon id="Fill-21-Copy-10" points="368.93877 231.037251 92.3825752 70.3619221 91.6162287 70.8201704 368.172423 231.495019"></polygon>
                                                <polygon id="Fill-21-Copy-9" points="388.958093 230.561132 112.401899 69.8858037 111.635552 70.344052 388.191747 231.0189"></polygon>
                                                <polygon id="Fill-21-Copy-8" points="389.219863 220.564559 112.663668 59.8892305 111.897322 60.3474788 388.453516 221.022327"></polygon>
                                                <polygon id="Fill-21-Copy-15" points="392.454427 211.646174 115.898233 50.9708454 115.131886 51.4290937 391.688081 212.103942"></polygon>
                                                <polygon id="Fill-21-Copy-14" points="392.716197 201.649601 116.160002 40.9742721 115.393656 41.4325205 391.94985 202.107369"></polygon>
                                                <polygon id="Fill-21-Copy-13" points="412.73552 201.173482 136.179326 40.4981538 135.412979 40.9564021 411.969174 201.63125"></polygon>
                                                <polygon id="Fill-21-Copy-12" points="412.99729 191.176909 136.441095 30.5015805 135.674749 30.9598289 412.230943 191.634677"></polygon>
                                                <polygon id="Fill-21-Copy-20" points="429.219863 190.564559 152.663668 29.8892305 151.897322 30.3474788 428.453516 191.022327"></polygon>
                                                <polygon id="Fill-21-Copy-19" points="432.454427 181.646174 155.898233 20.9708454 155.131886 21.4290937 431.688081 182.103942"></polygon>
                                                <polygon id="Fill-21-Copy-18" points="432.716197 171.649601 156.160002 10.9742721 155.393656 11.4325205 431.94985 172.107369"></polygon>
                                                <polygon id="Fill-21-Copy-17" points="452.73552 171.173482 176.179326 10.4981538 175.412979 10.9564021 451.969174 171.63125"></polygon>
                                                <polygon id="Fill-21-Copy-16" points="452.99729 161.176909 176.441095 0.501580537 175.674749 0.959828862 452.230943 161.634677"></polygon>
                                            </g>
                                        </g>
                                    </g>
                                </g>
                            </g>
                        </g>
                        <g id="backwall-room1">
                            <polygon fill="url(#radialGradient-8)" points="116.832578 117.752987 137.132758 106.406106 139.633077 2.67649669 137.037111 4.20189538 116 10.0269873 116 11.3646816 5.10762819 75.4999164 5.10762819 177.43039 8.31298901 179.674143 116.832578 119.077002"></polygon>
                            <polygon fill="url(#radialGradient-9)" points="0.199639386 72.0799762 6.67149271 75.8527567 137.040771 4.20371003 130.770887 0.520152708"></polygon>
                        </g>
                        <polygon id="Path-3" fill="url(#linearGradient-10)" points="135.085801 17.7397459 63 114.103584 153.66399 106.035977"></polygon>
                        <g id="Group-7" transform="translate(135.000000, 16.000000)">
                            <g id="Group-8">
                                <polygon id="Rectangle-3-Copy" fill="#302346" transform="translate(29.735595, 17.083473) scale(-1, 1) translate(-29.735595, -17.083473) " points="2.25430309 33.7813967 59.4711891 1.76511495 56.9836323 0.385549531 -5.61328761e-13 32.2626713"></polygon>
                                <polygon id="Rectangle-3-Copy" fill="url(#radialGradient-11)" transform="translate(28.662037, 75.597950) scale(-1, 1) translate(-28.662037, -75.597950) " points="-1.3500312e-13 33.6742095 57.3240733 1.69489555 57.3240733 117.340145 0.64611633 149.501005"></polygon>
                                <polygon id="Rectangle-3-Copy" fill="#3479EB" transform="translate(58.235595, 61.815197) scale(-1, 1) translate(-58.235595, -61.815197) " points="59.4711891 33.459835 59.4711891 91.3677236 57 89.0657695 57 32.2626713"></polygon>
                            </g>
                            <g id="Container" transform="translate(26.000000, 30.000000)">
                                <polygon id="Rectangle-3" fill="#302346" points="2.94965156 19.3478009 33.4330882 2.08302385 30.7936979 0.412763328 0.557248493 17.5141726"></polygon>
                                <polygon id="Rectangle-3" fill="#6C5673" points="2.94965156 19.3478009 3.05491372 130.556485 0.557248493 128.883231 0.557248493 17.5141726"></polygon>
                                <polygon id="Path-8" fill="url(#radialGradient-12)" points="3.05318017 19.2770676 3.05318017 130.5817 33.4330882 114.677065 33.4330882 2.2108823"></polygon>
                            </g>
                        </g>
                        <g id="bed" transform="translate(147.000000, 77.000000)">
                            <g id="room1-door-wall">
                                <path d="M39.3021379,130.947606 L60.5785745,143.107376 L93.2328992,161.713805 L93.7390187,108.864596 L64.8403853,64.5094242 L60.5785745,37.1414025 L0.142521147,2.28803066 L0.142521147,49.7540122 L0.142521147,99.3690103 L0.142521147,108.567358 L14.201931,116.6025 L14.201931,52.7528533 L39.3021379,67.2552533 L39.3021379,130.947606 Z" id="Combined-Shape" fill="url(#radialGradient-13)"></path>
                                <g id="Group-13" transform="translate(10.000000, 47.000000)">
                                    <polygon id="Fill-138" fill="#2A1B47" points="5.71282759 70.5217067 5.71282759 5.55776 3 6.14592 3 71.9159467"></polygon>
                                    <polyline id="Fill-137" fill="#A66173" points="28.5893103 86.4183467 30.9353103 87.7735467 30.9353103 19.9067733 0.915655172 2.07914667 0.915655172 70.42816 3.48910345 71.9159467 3.48910345 6.14592 28.5893103 20.64832 28.5893103 86.4183467"></polyline>
                                    <polyline id="Fill-139" fill="#77465C" points="30.9353103 87.7735467 33.1945517 86.4922667 33.1945517 18.7170133 3.0517931 0.885866667 0.915655172 2.07914667 30.9353103 19.9067733 30.9353103 87.7735467"></polyline>
                                    <polyline id="Fill-140" fill="#2A1B47" points="30.9353103 19.9067733 33.1945517 18.7170133 33.1945517 86.4922667 30.9353103 87.7735467 30.9353103 19.9067733"></polyline>
                                </g>
                                <g id="Group-32">
                                    <polygon id="Rectangle-3-Copy" fill="url(#radialGradient-14)" transform="translate(32.091241, 18.891440) scale(-1, 1) translate(-32.091241, -18.891440) " points="3.60390759 37.1414025 64.039961 2.29702719 60.9732599 0.641477287 0.142521147 35.2717106"></polygon>
                                    <polygon id="Rectangle-3-Copy" fill="#6A4F78" transform="translate(64.398171, 49.950827) scale(-1, 1) translate(-64.398171, -49.950827) " points="68.2177678 37.1414025 63.987259 64.6476709 60.5785745 62.7039988 64.7553109 35.253983"></polygon>
                                    <polygon id="Rectangle-3-Copy" fill="#6A4F78" transform="translate(80.771252, 85.784317) scale(-1, 1) translate(-80.771252, -85.784317) " points="67.8579473 108.843203 96.73342 64.6476709 93.323375 62.7254298 64.8090833 106.751835"></polygon>
                                    <polygon id="Rectangle-3-Copy" fill="#3F384B" transform="translate(94.918271, 134.193106) scale(-1, 1) translate(-94.918271, -134.193106) " points="96.1519856 108.843203 96.6297048 161.639078 93.9995847 160.281488 93.2068369 106.747134"></polygon>
                                </g>
                            </g>
                            <g id="Group-20" transform="translate(15.000000, 96.000000)">
                                <polygon id="Fill-395" fill="#CC7772" points="30.1066904 32.8529059 29.4063894 32.4514018 29.3832006 10.1766096 30.0825741 10.5771992"></polygon>
                                <polygon id="Fill-396" fill="#CC7772" points="29.3618669 2.811432 30.0612404 3.21202157 30.0732986 7.25175702 3.34289388 22.0525472 2.64259286 21.6519577 29.3739251 6.85116745"></polygon>
                                <polygon id="Fill-397" fill="#CC7772" points="1.61672143 34.5595389 0.916420408 34.1589494 0.868187755 17.1165155 1.56756122 17.5171051"></polygon>
                                <path d="M1.71318673,16.3482615 C1.96640816,16.1232729 2.22055714,15.9056009 2.47563367,15.6925019 L2.55262041,15.6303099 L2.71123163,15.5031822 C2.88561122,15.3605064 3.05999082,15.2178307 3.23529796,15.0806425 C3.39019898,14.9599169 3.5451,14.8465079 3.70092857,14.7312698 L3.87901837,14.5968254 L3.98290408,14.5190854 C4.22592245,14.3425699 4.46986837,14.171542 4.71474184,14.0060015 L4.95405,13.8505215 L5.15811122,13.7179063 C5.24808367,13.6602872 5.33805612,13.5980952 5.42895612,13.5423054 C5.66177143,13.3950567 5.89644184,13.2532955 6.13018469,13.1179365 L16.437371,6.95817425 C16.6145333,6.85756957 16.7916955,6.75970865 16.9679302,6.66550608 C17.1961077,6.54386586 17.4242853,6.42771318 17.6515353,6.31704803 L17.8147843,6.24113722 C17.9863812,6.15882429 18.1579782,6.07742595 18.3295751,6.00151515 C18.55497,5.90182505 28.0568026,1.23468219 28.28127,1.14596715 L28.3628945,1.11578574 C28.5623179,1.03804576 28.7617414,0.963049537 28.9602373,0.893540845 C29.1698639,0.8203738 29.3794904,0.75452346 29.5872618,0.691416884 C29.8766577,0.603616431 30.1076179,0.541424443 30.3376506,0.483805395 C30.5222333,0.438075992 30.7058884,0.39691953 30.8876884,0.359421419 L31.1167935,0.312777428 L31.8161669,0.713366997 L31.5879894,0.760925576 C31.1705914,0.846896854 30.7485557,0.952989068 30.3246649,1.08011681 C29.8803679,1.21547584 29.4722455,1.35723699 29.0631955,1.51637531 C28.6031302,1.69563457 18.9204251,6.44874871 18.5123026,6.64264137 L18.4158373,6.68745619 C17.9900914,6.8932385 17.5634179,7.11639799 17.137672,7.35967841 C16.7601588,7.57369202 6.23592551,13.8743008 5.8593398,14.1184958 L5.65342347,14.2520257 C5.29446122,14.488904 4.93549898,14.7367574 4.57746429,14.9983296 L4.40308469,15.1300302 C4.07009388,15.3778836 3.73895816,15.636712 3.40875,15.9056009 L3.25292143,16.0308995 C2.86242245,16.3537491 2.47470612,16.6884883 2.08977245,17.0396901 L1.56756122,17.5171051 L0.868187755,17.1165155 L1.39039898,16.6381859 C1.4979949,16.5412396 1.60466327,16.4433787 1.71318673,16.3482615 Z" id="Fill-398" fill="#CC7772"></path>
                                <path d="M30.0732986,7.25175702 L30.0612404,3.21202157 C28.8693373,3.55590668 27.6486802,4.0827094 26.4159649,4.78419844 C25.1795394,5.48843125 4.52830408,16.997619 3.33083571,18.0201285 L3.34289388,22.0525472 L30.0732986,7.25175702 Z M31.5879894,0.760925576 L31.8161669,0.713366997 L31.8653271,31.851432 L30.1066904,32.8529059 L30.0825741,10.5771992 L3.35216939,25.3779894 L3.37535816,33.558065 L1.61672143,34.5595389 L1.56756122,17.5171051 L2.08977245,17.0396901 C2.76344472,16.4251653 4.60024748,14.7982461 7.28515194,13.0786508 C10.9697168,10.718805 15.7464483,8.16347288 16.7020671,7.61959475 C18.0274628,6.86477509 24.5815985,3.4406205 28.5752429,1.71388866 C29.8415442,1.16637801 31.1826953,0.843934097 31.5879894,0.760925576 Z" id="Fill-399" fill="#7D384D"></path>
                                <polygon id="Fill-400" fill="#CC7772" points="1.6343449 48.6569992 0.934043878 48.2564097 0.913637755 34.1434014 1.61208367 34.1434014"></polygon>
                                <polygon id="Fill-401" fill="#7D384D" points="3.39298163 47.566478 1.6343449 48.6569992 1.61208367 32.8529059 3.37350306 32.8529059"></polygon>
                            </g>
                            <polygon id="Fill-763" fill="#7D384D" points="115.180841 156.464147 85.2698482 173.322367 85.2788661 169.280653 115.189859 152.422433"></polygon>
                            <polygon id="Fill-764" fill="#642322" points="85.2698482 173.322367 17.6555752 134.741926 17.6654948 130.700212 85.2788661 169.280653"></polygon>
                            <polygon id="Fill-768" fill="#AFAED3" points="85.2788661 163.674694 17.6241964 125.109143 47.5601934 108.259508 115.213961 146.825957"></polygon>
                            <polygon id="Fill-769" fill="#8C5D86" points="115.20886 152.694215 85.2698482 169.545551 85.2788661 163.674694 115.217878 146.823358"></polygon>
                            <polygon id="Fill-770" fill="#9B7396" points="85.2698482 169.545551 17.6142768 130.980898 17.6241964 125.109143 85.2788661 163.674694"></polygon>
                            <g id="Group-20" transform="translate(83.535714, 134.612245)">
                                <polygon id="Fill-395" fill="#CC7772" points="30.1066904 32.8529059 29.4063894 32.4514018 29.3832006 10.1766096 30.0825741 10.5771992"></polygon>
                                <polygon id="Fill-396" fill="#CC7772" points="29.3618669 2.811432 30.0612404 3.21202157 30.0732986 7.25175702 3.34289388 22.0525472 2.64259286 21.6519577 29.3739251 6.85116745"></polygon>
                                <polygon id="Fill-397" fill="#CC7772" points="1.61672143 34.5595389 0.916420408 34.1589494 0.868187755 17.1165155 1.56756122 17.5171051"></polygon>
                                <path d="M1.71318673,16.3482615 C1.96640816,16.1232729 2.22055714,15.9056009 2.47563367,15.6925019 L2.55262041,15.6303099 L2.71123163,15.5031822 C2.88561122,15.3605064 3.05999082,15.2178307 3.23529796,15.0806425 C3.39019898,14.9599169 3.5451,14.8465079 3.70092857,14.7312698 L3.87901837,14.5968254 L3.98290408,14.5190854 C4.22592245,14.3425699 4.46986837,14.171542 4.71474184,14.0060015 L4.95405,13.8505215 L5.15811122,13.7179063 C5.24808367,13.6602872 5.33805612,13.5980952 5.42895612,13.5423054 C5.66177143,13.3950567 5.89644184,13.2532955 6.13018469,13.1179365 L16.437371,6.95817425 C16.6145333,6.85756957 16.7916955,6.75970865 16.9679302,6.66550608 C17.1961077,6.54386586 17.4242853,6.42771318 17.6515353,6.31704803 L17.8147843,6.24113722 C17.9863812,6.15882429 18.1579782,6.07742595 18.3295751,6.00151515 C18.55497,5.90182505 28.0568026,1.23468219 28.28127,1.14596715 L28.3628945,1.11578574 C28.5623179,1.03804576 28.7617414,0.963049537 28.9602373,0.893540845 C29.1698639,0.8203738 29.3794904,0.75452346 29.5872618,0.691416884 C29.8766577,0.603616431 30.1076179,0.541424443 30.3376506,0.483805395 C30.5222333,0.438075992 30.7058884,0.39691953 30.8876884,0.359421419 L31.1167935,0.312777428 L31.8161669,0.713366997 L31.5879894,0.760925576 C31.1705914,0.846896854 30.7485557,0.952989068 30.3246649,1.08011681 C29.8803679,1.21547584 29.4722455,1.35723699 29.0631955,1.51637531 C28.6031302,1.69563457 18.9204251,6.44874871 18.5123026,6.64264137 L18.4158373,6.68745619 C17.9900914,6.8932385 17.5634179,7.11639799 17.137672,7.35967841 C16.7601588,7.57369202 6.23592551,13.8743008 5.8593398,14.1184958 L5.65342347,14.2520257 C5.29446122,14.488904 4.93549898,14.7367574 4.57746429,14.9983296 L4.40308469,15.1300302 C4.07009388,15.3778836 3.73895816,15.636712 3.40875,15.9056009 L3.25292143,16.0308995 C2.86242245,16.3537491 2.47470612,16.6884883 2.08977245,17.0396901 L1.56756122,17.5171051 L0.868187755,17.1165155 L1.39039898,16.6381859 C1.4979949,16.5412396 1.60466327,16.4433787 1.71318673,16.3482615 Z" id="Fill-398" fill="#CC7772"></path>
                                <path d="M30.0732986,7.25175702 L30.0612404,3.21202157 C28.8693373,3.55590668 27.6486802,4.0827094 26.4159649,4.78419844 C25.1795394,5.48843125 4.52830408,16.997619 3.33083571,18.0201285 L3.34289388,22.0525472 L30.0732986,7.25175702 Z M31.5879894,0.760925576 L31.8161669,0.713366997 L31.8653271,31.851432 L30.1066904,32.8529059 L30.0825741,10.5771992 L3.35216939,25.3779894 L3.37535816,33.558065 L1.61672143,34.5595389 L1.56756122,17.5171051 L2.08977245,17.0396901 C2.76344472,16.4251653 4.60024748,14.7982461 7.28515194,13.0786508 C10.9697168,10.718805 15.7464483,8.16347288 16.7020671,7.61959475 C18.0274628,6.86477509 24.5815985,3.4406205 28.5752429,1.71388866 C29.8415442,1.16637801 31.1826953,0.843934097 31.5879894,0.760925576 Z" id="Fill-399" fill="#7D384D"></path>
                                <polygon id="Fill-400" fill="#CC7772" points="1.6343449 48.6569992 0.934043878 48.2564097 0.913637755 34.1434014 1.61208367 34.1434014"></polygon>
                                <polygon id="Fill-401" fill="#7D384D" points="3.39298163 47.566478 1.6343449 48.6569992 1.61208367 32.8529059 3.37350306 32.8529059"></polygon>
                            </g>
                        </g>
                        <g id="ladder_which-I-made" transform="translate(202.503521, 204.955426) scale(-1, -1) rotate(-150.000000) translate(-202.503521, -204.955426) translate(181.003521, 148.455426)">
                            <g id="Group-11" transform="translate(0.588457, 0.607695)">
                                <polygon id="Fill-144" fill="#374D65" points="16.4059224 2.09752645 40.6639382 91.6200434 35.5491946 91.7461272 10.3785447 2.28915099"></polygon>
                                <g id="Group-12" transform="translate(4.267949, 12.000000)">
                                    <polygon id="Fill-133" fill="#C1F4F8" points="13.5012337 0.944957654 9.85014658 0.933900318 0.964567123 16.2511523 4.67713436 16.2212664"></polygon>
                                    <polygon id="Fill-133" fill="#456E8D" points="13.5012337 0.944957654 14.2830284 2.2990659 5.50634838 17.6575072 4.67713436 16.2212664"></polygon>
                                </g>
                                <g id="Group-12" transform="translate(7.169873, 23.026279)">
                                    <polygon id="Fill-133" fill="#C1F4F8" points="13.5012337 0.944957654 9.85014658 0.933900318 0.964567123 16.2511523 4.67713436 16.2212664"></polygon>
                                    <polygon id="Fill-133" fill="#456E8D" points="13.5012337 0.944957654 14.2830284 2.2990659 5.50634838 17.6575072 4.67713436 16.2212664"></polygon>
                                </g>
                                <g id="Group-12" transform="translate(10.071797, 34.052559)">
                                    <polygon id="Fill-133" fill="#C1F4F8" points="13.5012337 0.944957654 9.85014658 0.933900318 0.964567123 16.2511523 4.67713436 16.2212664"></polygon>
                                    <polygon id="Fill-133" fill="#456E8D" points="13.5012337 0.944957654 14.2830284 2.2990659 5.50634838 17.6575072 4.67713436 16.2212664"></polygon>
                                </g>
                                <g id="Group-12" transform="translate(13.473721, 45.944864)">
                                    <polygon id="Fill-133" fill="#C1F4F8" points="13.5012337 0.944957654 9.85014658 0.933900318 0.964567123 16.2511523 4.67713436 16.2212664"></polygon>
                                    <polygon id="Fill-133" fill="#456E8D" points="13.5012337 0.944957654 14.2830284 2.2990659 5.50634838 17.6575072 4.67713436 16.2212664"></polygon>
                                </g>
                                <g id="Group-12" transform="translate(15.875644, 56.105118)">
                                    <polygon id="Fill-133" fill="#C1F4F8" points="13.5012337 0.944957654 9.85014658 0.933900318 0.964567123 16.2511523 4.67713436 16.2212664"></polygon>
                                    <polygon id="Fill-133" fill="#456E8D" points="13.5012337 0.944957654 14.2830284 2.2990659 5.50634838 17.6575072 4.67713436 16.2212664"></polygon>
                                </g>
                                <g id="Group-12" transform="translate(18.777568, 67.131397)">
                                    <polygon id="Fill-133" fill="#C1F4F8" points="13.5012337 0.944957654 9.85014658 0.933900318 0.964567123 16.2511523 4.67713436 16.2212664"></polygon>
                                    <polygon id="Fill-133" fill="#456E8D" points="13.5012337 0.944957654 14.2830284 2.2990659 5.50634838 17.6575072 4.67713436 16.2212664"></polygon>
                                </g>
                                <g id="Group-12" transform="translate(22.179492, 79.023702)">
                                    <polygon id="Fill-133" fill="#C1F4F8" points="13.5012337 0.944957654 9.85014658 0.933900318 0.964567123 16.2511523 4.67713436 16.2212664"></polygon>
                                    <polygon id="Fill-133" fill="#456E8D" points="13.5012337 0.944957654 14.2830284 2.2990659 5.50634838 17.6575072 4.67713436 16.2212664"></polygon>
                                </g>
                                <g transform="translate(0.411543, 19.392305)" id="Fill-144">
                                    <polygon fill="#374D65" points="6.40592239 2.09752645 30.6639382 91.6200434 25.5491946 91.7461272 0.37854472 2.28915099"></polygon>
                                    <polygon fill="#5989B0" points="6.40592239 2.09752645 30.6639382 91.6200434 31.8067328 89.3877753 7.29830189 0.525092757"></polygon>
                                    <polygon fill="#EFAD76" points="6.40592239 2.09752645 0.440936321 2.29378418 1.54222145 0.695371406 7.29830189 0.525092757"></polygon>
                                </g>
                                <polygon id="Fill-144" fill="#5989B0" points="16.4059224 2.09752645 40.6639382 91.6200434 41.8067328 89.3877753 17.2983019 0.525092757"></polygon>
                                <polygon id="Fill-144" fill="#EFAD76" points="16.4059224 2.09752645 10.4409363 2.29378418 11.5422214 0.695371406 17.2983019 0.525092757"></polygon>
                            </g>
                        </g>
                        <g id="square-above-ladder" transform="translate(201.500000, 152.000000) scale(-1, 1) translate(-201.500000, -152.000000) translate(173.000000, 134.000000)">
                            <polygon id="Fill-626" fill="#EB89A3" points="3.90375 21.49 35.3235 3.34975 33.0778971 1.9638584 3.8985 19.1935"></polygon>
                            <polygon id="Fill-625" fill="#482B4D" points="31.3634904 5.63950634 53.0158721 19.1196347 53.6179558 18.1935 54.7137032 17.4963878 54.1560918 17.4963878 31.3634904 3.66932577"></polygon>
                            <polyline id="Fill-621" fill="#7EADB3" points="52.395 15.039 54.35325 16.176 56.32275 15.039 54.36525 13.90125 52.395 15.039"></polyline>
                            <polyline id="Fill-618" fill="#7EADB3" points="22.93425 32.08275 24.89175 33.21975 26.862 32.08275 24.9045 30.945 22.93425 32.08275"></polyline>
                            <polyline id="Fill-615" fill="#7EADB3" points="0.561 18.633 2.5185 19.77075 4.488 18.63375 2.5305 17.496 0.561 18.633"></polyline>
                            <path d="M0.561,18.5925 L31.98,0.45225 L56.31825,15.05325 L24.8985,33.1935 L0.561,18.5925 Z M6,18.4052686 L25.6420645,30 L51,15.5947314 L31.3573302,4 L6,18.4052686 Z" id="Combined-Shape" fill="#A66173"></path>
                            <polyline id="Fill-625" fill="#482B4D" points="0.561 18.5925 0.56625 20.889 24.90375 35.49 24.8985 33.1935 0.561 18.5925"></polyline>
                            <polygon id="Fill-626" fill="#EB89A3" points="24.90375 35.49 56.3235 17.34975 56.31825 15.05325 24.8985 33.1935"></polygon>
                        </g>
                        <g id="Container" transform="translate(62.000000, 61.000000)">
                            <polygon id="Rectangle-3" fill="#302346" points="3.25801048 50.8449369 88.4330882 2.08302385 85.7936979 0.412763328 0.028286573 48.6951559"></polygon>
                            <polygon id="Path-8" fill="url(#radialGradient-15)" points="2.29793908 50.5833362 2.29793908 152.274753 15.6238808 159.130645 21.7890781 163.480534 88.4330882 127.098695 88.4330882 2.2108823"></polygon>
                            <polygon id="Path-8-Copy-4" fill="url(#linearGradient-16)" opacity="0.900000036" points="2.29793908 134.737393 21.7890781 163.480534 51.9475803 147 51.315636 118.190496 72.5531036 85.6148837 72.5531036 135.767786 88.4330882 127.098695 88.4330882 20.7402124"></polygon>
                        </g>
                        <polygon id="Path-8-Copy" fill="url(#linearGradient-17)" transform="translate(103.867052, 183.383742) scale(-1, 1) translate(-103.867052, -183.383742) " points="146.394871 108.53592 146.394871 142.601721 136.304354 174.804548 136.304354 192.369727 117.932083 204.477208 16.3716783 279.192027 0.199639386 295.687507 152.589678 207.903518 207.534465 176.265177 207.534465 71.0799762"></polygon>
                        <polygon id="Rectangle-3-Copy" fill="url(#radialGradient-18)" transform="translate(105.497741, 183.296990) scale(-1, 1) translate(-105.497741, -183.296990) " points="3.45104004 296.647463 19.783238 280.035227 139.790514 193.625469 139.790514 175.456753 149.956623 143.406127 149.956623 109.577247 210.795843 72.0799762 206.548513 69.9465163 146.216313 107.176947 146.216313 141.741124 136.04063 174.188938 136.04063 191.842916 16.5306692 278.059403 0.199639386 294.467476"></polygon>
                        <g id="top-window-unit" transform="translate(96.000000, 151.000000)">
                            <g id="windows" transform="translate(0.000000, 4.000000)">
                                <polygon id="Rectangle-3-Copy" fill="#7F86A3" transform="translate(22.856385, 69.227481) scale(-1, 1) translate(-22.856385, -69.227481) " points="38.688228 74.4836805 37.7127692 46 7.02454115 63.3586014 7.02454115 92.4549623"></polygon>
                                <path d="M0.1185,0.127578947 L0.1185,77.7965789 L40.9175,100.558789 L40.9175,22.8897895 L0.1185,0.127578947 Z M4.315,7.15505263 L36.7155,25.2340526 L36.7155,93.5313158 L4.315,75.4523158 L4.315,7.15505263 L4.315,7.15505263 Z" id="Fill-719" fill="#65747A"></path>
                                <polyline id="Fill-720" fill="#3D4258" points="4.315 75.4523158 36.7155 93.5313158 36.7155 88.8481053 8.517 73.1133684 4.315 75.4523158"></polyline>
                                <polyline id="Fill-721" fill="#2B2A56" points="4.315 7.15505263 4.315 75.4523158 8.517 73.1133684 8.517 9.494 4.315 7.15505263"></polyline>
                                <polygon id="Fill-726" fill="#3D4258" points="8.517 24.9322105 5.987 26.3249474 36.7155 43.4683684 36.7155 40.6722632"></polygon>
                                <g id="Group-2" transform="translate(24.000000, 17.400024)">
                                    <polygon id="Rectangle-5" fill="#2B2A56" points="2 1.83252203 4 2.93632734 4 18.6612949 2 20.1675389"></polygon>
                                    <polygon id="Rectangle-5" fill="#65747A" points="0 0.612436443 2 1.62534405 2 20.1902787 0 19.1793159"></polygon>
                                </g>
                                <g id="Group-2" transform="translate(14.000000, 11.900024)">
                                    <polygon id="Rectangle-5" fill="#2B2A56" points="2 1.76443748 4 2.84371378 4 18.5232269 2 20.0183267"></polygon>
                                    <polygon id="Rectangle-5" fill="#65747A" points="0 0.575924856 2 1.58133833 2 20.0408983 0 19.0374152"></polygon>
                                </g>
                                <polyline id="Fill-727" fill="#65747A" points="36.7155 43.4683684 5.987 26.3249474 5.987 28.8180526 36.7155 45.9667895 36.7155 43.4683684"></polyline>
                                <g id="Group-3" transform="translate(5.000000, 41.799988)">
                                    <polyline id="Fill-726" fill="#3D4258" points="31.7155 16.6722632 3.517 0.932210526 0.987 2.32494737 31.7155 19.4683684 31.7155 16.6722632"></polyline>
                                    <polyline id="Fill-727" fill="#65747A" points="31.7155 19.4683684 0.987 2.32494737 0.987 4.81805263 31.7155 21.9667895 31.7155 19.4683684"></polyline>
                                </g>
                                <g id="Group-2" transform="translate(24.000000, 37.663854)">
                                    <polygon id="Rectangle-5" fill="#2B2A56" points="2 2.32241745 4 3.43629449 4 15.9079606 2 17.2374833"></polygon>
                                    <polygon id="Rectangle-5" fill="#65747A" points="0 0.540581839 2 1.43464924 2 17.1725477 0 16.0585067"></polygon>
                                </g>
                                <g id="Group-2" transform="translate(14.000000, 32.000000)">
                                    <polygon id="Rectangle-5" fill="#2B2A56" points="2 2.32241745 4 3.43629449 4 16.0098343 2 17.1864675"></polygon>
                                    <polygon id="Rectangle-5" fill="#65747A" points="0 0.540581839 2 1.43464924 2 17.1725477 0 16.0585067"></polygon>
                                </g>
                            </g>
                            <polygon id="Combined-Shape" fill="#3D4258" points="53.9933192 34.0642227 59.8895421 30.464245 6.34946667 0.730793582 0 4.18897444"></polygon>
                            <polygon id="Rectangle-3-Copy" fill="#7F86A3" transform="translate(47.305344, 68.958047) scale(-1, 1) translate(-47.305344, -68.958047) " points="53.6931807 104.245415 53.6931807 27.0034304 40.9175078 33.7448426 40.9175078 110.912664"></polygon>
                            <polygon id="Rectangle-3-Copy" fill="#2B2A56" transform="translate(56.904734, 70.860603) scale(-1, 1) translate(-56.904734, -70.860603) " points="59.8919595 111.245415 59.8919595 33.6052019 53.9175078 30.475792 53.9175078 107.643614"></polygon>
                            <path d="M40.3038017,104.242797 L53.9175,111.977865 L53.9175,33.8897895 L40.5496667,26.6337447 L40.3038017,104.242797 Z M40.5496667,31.3516968 L49.7155,36.2340526 L49.7155,104.531316 L40.5496667,99.4169163 L40.5496667,31.3516968 Z" id="Fill-719" fill="#65747A"></path>
                        </g>
                        <g id="Group-10" transform="translate(95.500000, 281.500000) scale(-1, 1) translate(-95.500000, -281.500000) translate(61.000000, 232.000000)">
                            <polyline id="Fill-127" fill="#C1F4F8" points="7.23797222 18.7646516 23.9909167 10.1101355 22.9041667 8.01005806 6.16847222 16.6824581 7.23797222 18.7646516"></polyline>
                            <polyline id="Fill-128" fill="#456E8D" points="7.2565 18.7474065 23.9909167 10.1101355 25.07575 12.192329 8.34388889 20.8289613 7.2565 18.7474065"></polyline>
                            <polyline id="Fill-129" fill="#C1F4F8" points="12.1631667 28.8856452 29.16975 20.0682581 28.0836389 17.9860645 11.0949444 26.8034516 12.1631667 28.8856452"></polyline>
                            <polyline id="Fill-130" fill="#456E8D" points="12.1631667 28.8856452 29.16975 20.0682581 30.2558611 22.1504516 13.2511944 30.9672 12.1631667 28.8856452"></polyline>
                            <polyline id="Fill-131" fill="#C1F4F8" points="17.3432778 38.8616516 34.3498611 30.0442645 33.2624722 27.962071 16.2571667 36.7794581 17.3432778 38.8616516"></polyline>
                            <polyline id="Fill-132" fill="#456E8D" points="17.3432778 38.8616516 34.3498611 30.0442645 35.4187222 32.1264581 18.4313056 40.9438452 17.3432778 38.8616516"></polyline>
                            <polyline id="Fill-133" fill="#C1F4F8" points="22.5233889 48.8376581 39.5114444 40.0209097 38.4425833 37.9387161 21.4372778 46.7369419 22.5233889 48.8376581"></polyline>
                            <polyline id="Fill-134" fill="#456E8D" points="22.5233889 48.8376581 39.5114444 40.0209097 40.5975556 42.1018258 23.6101389 50.9192129 22.5233889 48.8376581"></polyline>
                            <polyline id="Fill-135" fill="#C1F4F8" points="27.7028611 58.7951419 44.6902778 49.9969161 43.6041667 47.8955613 26.61675 56.7129484 27.7028611 58.7951419"></polyline>
                            <polyline id="Fill-136" fill="#456E8D" points="27.7028611 58.7951419 44.6902778 49.9969161 45.7770278 52.0791097 28.79025 60.8958581 27.7028611 58.7951419"></polyline>
                            <polyline id="Fill-137" fill="#C1F4F8" points="32.8638056 68.7717871 49.8703889 59.9550387 48.783 57.8728452 31.7962222 66.6902323 32.8638056 68.7717871"></polyline>
                            <polyline id="Fill-138" fill="#456E8D" points="32.8638056 68.7717871 49.8703889 59.9550387 50.9577778 62.0551161 33.9518333 70.8533419 32.8638056 68.7717871"></polyline>
                            <polyline id="Fill-139" fill="#C1F4F8" points="37.9531944 78.2412968 54.94125 69.423271 53.8545 67.3410774 36.8670833 76.1584645 37.9531944 78.2412968"></polyline>
                            <polyline id="Fill-140" fill="#456E8D" points="37.9531944 78.2412968 54.94125 69.423271 56.0273611 71.5061032 39.0220556 80.3234903 37.9531944 78.2412968"></polyline>
                            <polyline id="Fill-141" fill="#C1F4F8" points="43.2419167 88.4338258 60.2286944 79.6164387 59.1611111 77.5348839 42.1551667 86.3516323 43.2419167 88.4338258"></polyline>
                            <polyline id="Fill-142" fill="#456E8D" points="43.2419167 88.4338258 60.2286944 79.6164387 61.3167222 81.7171548 44.3286667 90.5345419 43.2419167 88.4338258"></polyline>
                            <polyline id="Fill-143" fill="#374D65" points="4.77569444 13.1159032 4.84852778 11.7580065 2.43927778 13.0066839 2.42075 13.6236774 2.69291667 14.2023484 47.081 98.5733419 48.5293611 96.2925097 4.77569444 13.1159032"></polyline>
                            <polyline id="Fill-144" fill="#5989B0" points="0.120111111 14.3294516 0.174416667 11.5044387 2.43927778 13.0066839 2.43927778 13.6594452 47.081 98.5733419 44.3829722 98.4462387 0.120111111 14.3294516"></polyline>
                            <polyline id="Fill-145" fill="#374D65" points="25.2763611 0.71343871 22.885 1.98127742 22.8498611 2.95914194 23.2121111 3.64703226 67.0750278 88.1994194 68.5419167 85.9179484 25.2035278 2.43412258 25.2763611 0.71343871"></polyline>
                            <polyline id="Fill-146" fill="#5989B0" points="20.4955556 3.48352258 20.6220556 0.496277419 22.885 1.98127742 22.8498611 2.95914194 67.0750278 88.1994194 64.3763611 88.0716774 20.4955556 3.48352258"></polyline>
                        </g>
                    </g>
                </g>
            </g>
        </g>
    </g>
</svg>