<?xml version="1.0" encoding="UTF-8"?>
<svg width="345px" height="332px" viewBox="0 0 345 332" version="1.1" xmlns="http://www.w3.org/2000/svg" xmlns:xlink="http://www.w3.org/1999/xlink">
    <!-- Generator: Sketch 47.1 (45422) - http://www.bohemiancoding.com/sketch -->
    <title>room 2</title>
    <desc>Created with Sketch.</desc>
    <defs>
        <polygon id="path-1" points="168.076201 217.829677 37.1330877 142 0.470072222 73.0138135 138.28538 0.561300772 344.00863 116.805067"></polygon>
        <radialGradient cx="52.3703039%" cy="38.513804%" fx="52.3703039%" fy="38.513804%" r="63.4015182%" gradientTransform="translate(0.523703,0.385138),scale(0.573631,1.000000),rotate(90.000000),translate(-0.523703,-0.385138)" id="radialGradient-3">
            <stop stop-color="#8EA6BA" offset="0%"></stop>
            <stop stop-color="#2D4564" offset="100%"></stop>
        </radialGradient>
        <polygon id="path-4" points="0.991080648 148.182048 258.416468 0.423845103 464.278803 115.691134 203.074728 266.179984"></polygon>
        <radialGradient cx="76.7317951%" cy="0%" fx="76.7317951%" fy="0%" r="63.4015182%" gradientTransform="translate(0.767318,0.000000),scale(0.716673,1.000000),rotate(90.000000),translate(-0.767318,-0.000000)" id="radialGradient-6">
            <stop stop-color="#0D2132" offset="0%"></stop>
            <stop stop-color="#2D4564" offset="100%"></stop>
        </radialGradient>
        <radialGradient cx="76.7317951%" cy="0%" fx="76.7317951%" fy="0%" r="63.4015182%" gradientTransform="translate(0.767318,0.000000),scale(0.449317,1.000000),rotate(90.000000),translate(-0.767318,-0.000000)" id="radialGradient-7">
            <stop stop-color="#0D2132" offset="0%"></stop>
            <stop stop-color="#2D4564" offset="100%"></stop>
        </radialGradient>
        <radialGradient cx="100%" cy="132.571945%" fx="100%" fy="132.571945%" r="99.8844069%" gradientTransform="translate(1.000000,1.325719),scale(0.583215,1.000000),rotate(90.000000),translate(-1.000000,-1.325719)" id="radialGradient-8">
            <stop stop-color="#2F1E48" offset="0%"></stop>
            <stop stop-color="#3F394C" offset="100%"></stop>
        </radialGradient>
        <radialGradient cx="42.2003805%" cy="89.6025678%" fx="42.2003805%" fy="89.6025678%" r="48.9512664%" gradientTransform="translate(0.422004,0.896026),scale(1.000000,0.890731),rotate(97.156414),translate(-0.422004,-0.896026)" id="radialGradient-9">
            <stop stop-color="#C9607D" offset="0%"></stop>
            <stop stop-color="#80647E" offset="100%"></stop>
        </radialGradient>
        <radialGradient cx="-16.9031561%" cy="98.0466635%" fx="-16.9031561%" fy="98.0466635%" r="73.9071051%" gradientTransform="translate(-0.169032,0.980467),scale(1.000000,0.707667),rotate(94.663623),scale(1.000000,0.986484),translate(0.169032,-0.980467)" id="radialGradient-10">
            <stop stop-color="#C9607D" offset="0%"></stop>
            <stop stop-color="#80647E" offset="54.9366231%"></stop>
            <stop stop-color="#473C60" offset="100%"></stop>
        </radialGradient>
        <radialGradient cx="100%" cy="132.571945%" fx="100%" fy="132.571945%" r="99.8844069%" gradientTransform="translate(1.000000,1.325719),scale(0.603481,1.000000),rotate(90.000000),translate(-1.000000,-1.325719)" id="radialGradient-11">
            <stop stop-color="#2F1E48" offset="0%"></stop>
            <stop stop-color="#3F394C" offset="100%"></stop>
        </radialGradient>
        <radialGradient cx="50%" cy="0%" fx="50%" fy="0%" r="100%" gradientTransform="translate(0.500000,0.000000),scale(0.589922,1.000000),rotate(90.000000),translate(-0.500000,-0.000000)" id="radialGradient-12">
            <stop stop-color="#98CEE0" offset="0%"></stop>
            <stop stop-color="#6D9FAF" offset="100%"></stop>
        </radialGradient>
        <radialGradient cx="50%" cy="27.2439296%" fx="50%" fy="27.2439296%" r="97.3473374%" gradientTransform="translate(0.500000,0.272439),scale(1.000000,0.865799),rotate(90.000000),translate(-0.500000,-0.272439)" id="radialGradient-13">
            <stop stop-color="#556F8D" offset="0%"></stop>
            <stop stop-color="#283543" offset="100%"></stop>
        </radialGradient>
        <radialGradient cx="100%" cy="132.571945%" fx="100%" fy="132.571945%" r="99.8844069%" gradientTransform="translate(1.000000,1.325719),scale(1.000000,0.856065),rotate(90.000000),translate(-1.000000,-1.325719)" id="radialGradient-14">
            <stop stop-color="#2F1E48" offset="0%"></stop>
            <stop stop-color="#3F394C" offset="100%"></stop>
        </radialGradient>
        <linearGradient x1="50%" y1="12.7835531%" x2="50%" y2="73.8908359%" id="linearGradient-15">
            <stop stop-color="#2C1817" offset="0%"></stop>
            <stop stop-color="#040203" offset="100%"></stop>
        </linearGradient>
    </defs>
    <g id="Page-1" stroke="none" stroke-width="1" fill="none" fill-rule="evenodd" stroke-linecap="round" stroke-linejoin="round">
        <g id="Grids" transform="translate(-2013.000000, -551.000000)">
            <g id="Group-26" transform="translate(1776.000000, 138.000000)">
                <g id="floor-2" transform="translate(108.000000, 413.000000)">
                    <g id="room-2" transform="translate(129.000000, 0.000000)">
                        <g id="floor-1" transform="translate(0.000000, 114.000000)">
                            <mask id="mask-2" fill="white">
                                <use xlink:href="#path-1"></use>
                            </mask>
                            <use id="Mask" fill="#D8D8D8" xlink:href="#path-1"></use>
                            <g mask="url(#mask-2)" id="Group-29">
                                <g transform="translate(-120.000000, -10.000000)">
                                    <g transform="translate(0.000000, 11.000000)">
                                        <mask id="mask-5" fill="white">
                                            <use xlink:href="#path-4"></use>
                                        </mask>
                                        <use id="Mask" fill="url(#radialGradient-3)" xlink:href="#path-4"></use>
                                        <polygon id="Mask-Copy" fill="url(#radialGradient-6)" mask="url(#mask-5)" points="16.306947 262.880787 177.531211 176 233.97938 200.003287 98.1130307 332"></polygon>
                                        <polygon id="Mask-Copy-2" fill="url(#radialGradient-7)" mask="url(#mask-5)" points="-5.49802276 226.214451 141.447291 155.277827 152.378692 161.74067 151.355602 163.768217 21.541893 217.539791"></polygon>
                                        <polygon id="Rectangle-6-Copy" fill="#040303" opacity="0.699999988" mask="url(#mask-5)" points="219.046 103.818213 267.360437 76 276.733802 80.999362 291.262477 74.0635728 320.145038 87.7188922 304.757445 96.10329 326.489347 107.536895 276.326781 137.264828"></polygon>
                                        <polygon id="Rectangle-6-Copy-3" fill="#040303" opacity="0.699999988" mask="url(#mask-5)" points="289.046 130.196263 313.70195 116 343.876771 132.093991 318.277679 147.264828"></polygon>
                                        <polygon id="Rectangle-6-Copy-4" fill="#040303" opacity="0.699999988" mask="url(#mask-5)" points="159.125601 61.4274652 215.70195 29 245.876771 45.093991 188.35728 78.4960296"></polygon>
                                        <polygon id="Rectangle-6-Copy-5" fill="#040303" opacity="0.699999988" mask="url(#mask-5)" points="152.136484 188.093991 189.549218 167.722224 226.700964 186.353767 260.809194 168.367663 297.876771 188.093991 223.883419 229.989185"></polygon>
                                        <g id="Group-6" mask="url(#mask-5)" fill="#0A0607">
                                            <g transform="translate(233.857441, 132.949431) scale(1, -1) translate(-233.857441, -132.949431) translate(7.357441, -5.050569)">
                                                <polygon id="Fill-21" points="277.765471 274.665562 1.20927637 113.990234 0.442929819 114.448482 276.999124 275.12333"></polygon>
                                                <polygon id="Fill-21-Copy" points="278.02724 264.668989 1.47104586 103.99366 0.704699302 104.451909 277.260894 265.126757"></polygon>
                                                <polygon id="Fill-21-Copy-3" points="298.046564 264.192871 21.4903693 103.517542 20.7240227 103.97579 297.280217 264.650639"></polygon>
                                                <polygon id="Fill-21-Copy-2" points="298.308333 254.196297 21.7521388 93.5209688 20.9857922 93.9792172 297.541987 254.654065"></polygon>
                                                <polygon id="Fill-21-Copy-7" points="328.140991 260.97955 51.5847968 100.304221 50.8184503 100.76247 327.374645 261.437318"></polygon>
                                                <polygon id="Fill-21-Copy-6" points="328.402761 250.982976 51.8465663 90.307648 51.0802198 90.7658963 327.636414 251.440744"></polygon>
                                                <polygon id="Fill-21-Copy-5" points="348.422084 250.506858 71.8658898 89.8315296 71.0995432 90.2897779 347.655738 250.964626"></polygon>
                                                <polygon id="Fill-21-Copy-4" points="348.683854 240.510285 72.1276593 79.8349564 71.3613127 80.2932047 347.917507 240.968053"></polygon>
                                                <polygon id="Fill-21-Copy-11" points="368.677 241.033824 92.1208058 80.3584953 91.3544592 80.8167437 367.910654 241.491592"></polygon>
                                                <polygon id="Fill-21-Copy-10" points="368.93877 231.037251 92.3825752 70.3619221 91.6162287 70.8201704 368.172423 231.495019"></polygon>
                                                <polygon id="Fill-21-Copy-9" points="388.958093 230.561132 112.401899 69.8858037 111.635552 70.344052 388.191747 231.0189"></polygon>
                                                <polygon id="Fill-21-Copy-8" points="389.219863 220.564559 112.663668 59.8892305 111.897322 60.3474788 388.453516 221.022327"></polygon>
                                                <polygon id="Fill-21-Copy-15" points="392.454427 211.646174 115.898233 50.9708454 115.131886 51.4290937 391.688081 212.103942"></polygon>
                                                <polygon id="Fill-21-Copy-14" points="392.716197 201.649601 116.160002 40.9742721 115.393656 41.4325205 391.94985 202.107369"></polygon>
                                                <polygon id="Fill-21-Copy-13" points="412.73552 201.173482 136.179326 40.4981538 135.412979 40.9564021 411.969174 201.63125"></polygon>
                                                <polygon id="Fill-21-Copy-12" points="412.99729 191.176909 136.441095 30.5015805 135.674749 30.9598289 412.230943 191.634677"></polygon>
                                                <polygon id="Fill-21-Copy-20" points="429.219863 190.564559 152.663668 29.8892305 151.897322 30.3474788 428.453516 191.022327"></polygon>
                                                <polygon id="Fill-21-Copy-19" points="432.454427 181.646174 155.898233 20.9708454 155.131886 21.4290937 431.688081 182.103942"></polygon>
                                                <polygon id="Fill-21-Copy-18" points="432.716197 171.649601 156.160002 10.9742721 155.393656 11.4325205 431.94985 172.107369"></polygon>
                                                <polygon id="Fill-21-Copy-17" points="452.73552 171.173482 176.179326 10.4981538 175.412979 10.9564021 451.969174 171.63125"></polygon>
                                                <polygon id="Fill-21-Copy-16" points="452.99729 161.176909 176.441095 0.501580537 175.674749 0.959828862 452.230943 161.634677"></polygon>
                                            </g>
                                        </g>
                                    </g>
                                </g>
                            </g>
                        </g>
                        <polygon id="Rectangle-3-Copy" fill="url(#radialGradient-8)" transform="translate(238.388342, 63.185992) scale(-1, 1) translate(-238.388342, -63.185992) " points="137.759977 125.170972 344.669786 4.96612716 338.249765 1.20101221 132.106898 122.098722"></polygon>
                        <path d="M339.016707,124.170972 L339.016707,232.966757 L138.542046,116.577296 L138.218991,7.53645873 L339.016707,124.170972 Z M168.223,42.2944 L168.223,110.2376 L188.9,122.2496 L188.9,54.3064 L168.223,42.2944 Z M196.223,58.2944 L196.223,126.2376 L216.9,138.2496 L216.9,70.3064 L196.223,58.2944 Z M271.223,99.2944 L271.223,167.2376 L291.9,179.2496 L291.9,111.3064 L271.223,99.2944 Z M299.223,115.2944 L299.223,183.2376 L319.9,195.2496 L319.9,127.3064 L299.223,115.2944 Z" id="Combined-Shape" fill="url(#radialGradient-9)"></path>
                        <g id="windows" transform="translate(162.000000, 35.000000)">
                            <path d="M0.0746666667,0.1444 L0.0746666667,78.81 L29.9741667,96.1832 L29.9741667,17.5228 L0.0746666667,0.1444 Z M3.14883333,5.5108 L26.9,19.3064 L26.9,90.822 L3.14883333,77.0212 L3.14883333,5.5108 L3.14883333,5.5108 Z" id="Fill-873" fill="#2B2A56"></path>
                            <polyline id="Fill-874" fill="#2C353C" points="3.14883333 77.0212 26.9 90.822 26.9 87.2496 6.223 75.2376 3.14883333 77.0212"></polyline>
                            <polyline id="Fill-875" fill="#65747A" points="3.14883333 5.5108 3.14883333 77.0212 6.223 75.2376 6.223 7.2944 3.14883333 5.5108"></polyline>
                            <polyline id="Fill-880" fill="#3D4258" points="26.9 42.54 6.223 30.528 4.37333333 31.5888 26.9 44.6772 26.9 42.54"></polyline>
                            <polyline id="Fill-881" fill="#424B54" points="26.9 44.6772 4.37333333 31.5888 4.37333333 33.4972 26.9 46.5804 26.9 44.6772"></polyline>
                        </g>
                        <g id="windows" transform="translate(190.000000, 51.299988)">
                            <path d="M0.0746666667,0.1444 L0.0746666667,78.81 L29.9741667,96.1832 L29.9741667,17.5228 L0.0746666667,0.1444 Z M3.14883333,5.5108 L26.9,19.3064 L26.9,90.822 L3.14883333,77.0212 L3.14883333,5.5108 L3.14883333,5.5108 Z" id="Fill-873" fill="#2B2A56"></path>
                            <polyline id="Fill-874" fill="#2C353C" points="3.14883333 77.0212 26.9 90.822 26.9 87.2496 6.223 75.2376 3.14883333 77.0212"></polyline>
                            <polyline id="Fill-875" fill="#65747A" points="3.14883333 5.5108 3.14883333 77.0212 6.223 75.2376 6.223 7.2944 3.14883333 5.5108"></polyline>
                            <polyline id="Fill-880" fill="#3D4258" points="26.9 42.54 6.223 30.528 4.37333333 31.5888 26.9 44.6772 26.9 42.54"></polyline>
                            <polyline id="Fill-881" fill="#424B54" points="26.9 44.6772 4.37333333 31.5888 4.37333333 33.4972 26.9 46.5804 26.9 44.6772"></polyline>
                        </g>
                        <g id="windows" transform="translate(265.000000, 92.000000)">
                            <path d="M0.0746666667,0.1444 L0.0746666667,78.81 L29.9741667,96.1832 L29.9741667,17.5228 L0.0746666667,0.1444 Z M3.14883333,5.5108 L26.9,19.3064 L26.9,90.822 L3.14883333,77.0212 L3.14883333,5.5108 L3.14883333,5.5108 Z" id="Fill-873" fill="#2B2A56"></path>
                            <polyline id="Fill-874" fill="#2C353C" points="3.14883333 77.0212 26.9 90.822 26.9 87.2496 6.223 75.2376 3.14883333 77.0212"></polyline>
                            <polyline id="Fill-875" fill="#65747A" points="3.14883333 5.5108 3.14883333 77.0212 6.223 75.2376 6.223 7.2944 3.14883333 5.5108"></polyline>
                            <polyline id="Fill-880" fill="#3D4258" points="26.9 42.54 6.223 30.528 4.37333333 31.5888 26.9 44.6772 26.9 42.54"></polyline>
                            <polyline id="Fill-881" fill="#424B54" points="26.9 44.6772 4.37333333 31.5888 4.37333333 33.4972 26.9 46.5804 26.9 44.6772"></polyline>
                        </g>
                        <g id="windows" transform="translate(293.000000, 108.299988)">
                            <path d="M0.0746666667,0.1444 L0.0746666667,78.81 L29.9741667,96.1832 L29.9741667,17.5228 L0.0746666667,0.1444 Z M3.14883333,5.5108 L26.9,19.3064 L26.9,90.822 L3.14883333,77.0212 L3.14883333,5.5108 L3.14883333,5.5108 Z" id="Fill-873" fill="#2B2A56"></path>
                            <polyline id="Fill-874" fill="#2C353C" points="3.14883333 77.0212 26.9 90.822 26.9 87.2496 6.223 75.2376 3.14883333 77.0212"></polyline>
                            <polyline id="Fill-875" fill="#65747A" points="3.14883333 5.5108 3.14883333 77.0212 6.223 75.2376 6.223 7.2944 3.14883333 5.5108"></polyline>
                            <polyline id="Fill-880" fill="#3D4258" points="26.9 42.54 6.223 30.528 4.37333333 31.5888 26.9 44.6772 26.9 42.54"></polyline>
                            <polyline id="Fill-881" fill="#424B54" points="26.9 44.6772 4.37333333 31.5888 4.37333333 33.4972 26.9 46.5804 26.9 44.6772"></polyline>
                        </g>
                        <g id="backwall-room2" transform="translate(1.000000, 0.000000)">
                            <polygon fill="url(#radialGradient-10)" points="7.0565922 189.448679 137.60903 116.475777 137.60903 4.92552563 7.02803059 80.807397"></polygon>
                            <polygon fill="url(#radialGradient-11)" points="0.752811743 83.5158889 7.04077148 87.2169128 143.881788 4.8877536 137.837207 0.841353522"></polygon>
                        </g>
                        <g id="bed" transform="translate(67.000000, 156.000000) scale(-1, 1) translate(-67.000000, -156.000000) translate(11.000000, 107.000000)">
                            <g id="Group-20">
                                <polygon id="Fill-395" fill="#7D384D" points="33.3856369 36.5861907 32.6090654 36.1390611 32.5833512 11.3330425 33.358894 11.7791537"></polygon>
                                <polygon id="Fill-396" fill="#7D384D" points="32.559694 3.13091291 33.3352369 3.57702402 33.3486083 8.07582032 3.70697143 24.5585185 2.9304 24.1124074 32.5730654 7.62970921"></polygon>
                                <polygon id="Fill-397" fill="#7D384D" points="1.7928 38.4867593 1.01622857 38.0406481 0.962742857 19.0615741 1.73828571 19.5076852"></polygon>
                                <path d="M1.89977143,18.2060185 C2.18057143,17.955463 2.4624,17.7130556 2.74525714,17.4757407 L2.83062857,17.4064815 L3.00651429,17.2649074 C3.19988571,17.1060185 3.39325714,16.9471296 3.58765714,16.7943519 C3.75942857,16.6599074 3.9312,16.5336111 4.104,16.4052778 L4.30148571,16.2555556 L4.41668571,16.1689815 C4.68617143,15.9724074 4.95668571,15.7819444 5.22822857,15.5975926 L5.4936,15.4244444 L5.71988571,15.2767593 C5.81965714,15.2125926 5.91942857,15.1433333 6.02022857,15.0812037 C6.2784,14.9172222 6.53862857,14.7593519 6.79782857,14.6086111 L18.2275797,7.74887587 C18.4240369,7.63683884 18.620494,7.52785735 18.8159226,7.42294995 C19.0689512,7.28748698 19.3219797,7.15813513 19.5739797,7.03489439 L19.7550083,6.95035735 C19.945294,6.85869069 20.1355797,6.76804254 20.3258654,6.6835055 C20.5758083,6.57248698 31.112494,1.37498698 31.3614083,1.27619069 L31.4519226,1.24257958 C31.6730654,1.1560055 31.8942083,1.07248698 32.1143226,0.995079577 C32.3467797,0.913598096 32.5792369,0.840264762 32.8096369,0.769986985 C33.1305512,0.672209207 33.3866654,0.602949947 33.6417512,0.538783281 C33.8464369,0.487857355 34.050094,0.442024022 34.251694,0.400264762 L34.5057512,0.348320318 L35.281294,0.794431429 L35.0282654,0.847394392 C34.5654083,0.943135133 34.0974083,1.06128328 33.6273512,1.20285735 C33.1346654,1.3535981 32.682094,1.51146847 32.228494,1.68869069 C31.7183226,1.88832032 20.9810654,7.18156106 20.528494,7.39748698 L20.4215226,7.44739439 C19.9494083,7.67656106 19.4762654,7.92507958 19.0041512,8.1960055 C18.5855226,8.43433884 6.91508571,15.4509259 6.49748571,15.7228704 L6.26914286,15.8715741 C5.87108571,16.1353704 5.47302857,16.4113889 5.076,16.7026852 L4.88262857,16.8493519 C4.51337143,17.1253704 4.14617143,17.4136111 3.78,17.7130556 L3.6072,17.8525926 C3.17417143,18.2121296 2.74422857,18.5849074 2.31737143,18.9760185 L1.73828571,19.5076852 L0.962742857,19.0615741 L1.54182857,18.5288889 C1.66114286,18.4209259 1.77942857,18.3119444 1.89977143,18.2060185 Z" id="Fill-398" fill="#7D384D"></path>
                                <path d="M33.3486083,8.07582032 L33.3352369,3.57702402 C32.0135226,3.95998698 30.6599226,4.54665365 29.2929512,5.32785735 C27.9218654,6.11211661 5.02148571,18.9291667 3.6936,20.0678704 L3.70697143,24.5585185 L33.3486083,8.07582032 Z M35.0282654,0.847394392 L35.281294,0.794431429 L35.3358083,35.4709129 L33.3856369,36.5861907 L33.358894,11.7791537 L3.71725714,28.2618519 L3.74297143,37.3714815 L1.7928,38.4867593 L1.73828571,19.5076852 L2.31737143,18.9760185 C3.06441394,18.2916613 5.10126453,16.479865 8.07858432,14.5648611 C12.1644385,11.936851 17.4614081,9.09114025 18.5211042,8.48545778 C19.9908499,7.64486317 27.2588023,3.83160011 31.687398,1.90864874 C33.0916134,1.29892097 34.5788305,0.939835699 35.0282654,0.847394392 Z" id="Fill-399" fill="#CC7772"></path>
                                <polygon id="Fill-400" fill="#7D384D" points="1.81234286 54.1862037 1.03577143 53.7400926 1.01314286 38.0233333 1.78765714 38.0233333"></polygon>
                                <polygon id="Fill-401" fill="#CC7772" points="3.76251429 52.9717596 1.81234286 54.1862037 1.78765714 36.5861907 3.74091429 36.5861907"></polygon>
                            </g>
                            <polygon id="Fill-763" fill="#9F312F" points="111.091626 67.3350727 77.923 86.109 77.933 81.608 111.101626 62.8340727"></polygon>
                            <polygon id="Fill-764" fill="#7D384D" points="77.923 86.109 2.94479622 43.1444177 2.95579622 38.6434177 77.933 81.608"></polygon>
                            <polygon id="Fill-768" fill="#BFBDE9" points="77.933 75.365 2.91 32.417 36.106353 13.6526338 111.128353 56.6016338"></polygon>
                            <polygon id="Fill-769" fill="#BBBBB6" points="111.122697 63.13674 77.923 81.903 77.933 75.365 111.132697 56.59874"></polygon>
                            <polygon id="Fill-770" fill="#B179AA" points="77.923 81.903 2.899 38.956 2.91 32.417 77.933 75.365"></polygon>
                            <g id="Group-20" transform="translate(76.000000, 43.000000)">
                                <polygon id="Fill-395" fill="#653625" points="33.3856369 36.5861907 32.6090654 36.1390611 32.5833512 11.3330425 33.358894 11.7791537"></polygon>
                                <polygon id="Fill-396" fill="#653625" points="32.559694 3.13091291 33.3352369 3.57702402 33.3486083 8.07582032 3.70697143 24.5585185 2.9304 24.1124074 32.5730654 7.62970921"></polygon>
                                <polygon id="Fill-397" fill="#653625" points="1.7928 38.4867593 1.01622857 38.0406481 0.962742857 19.0615741 1.73828571 19.5076852"></polygon>
                                <path d="M1.89977143,18.2060185 C2.18057143,17.955463 2.4624,17.7130556 2.74525714,17.4757407 L2.83062857,17.4064815 L3.00651429,17.2649074 C3.19988571,17.1060185 3.39325714,16.9471296 3.58765714,16.7943519 C3.75942857,16.6599074 3.9312,16.5336111 4.104,16.4052778 L4.30148571,16.2555556 L4.41668571,16.1689815 C4.68617143,15.9724074 4.95668571,15.7819444 5.22822857,15.5975926 L5.4936,15.4244444 L5.71988571,15.2767593 C5.81965714,15.2125926 5.91942857,15.1433333 6.02022857,15.0812037 C6.2784,14.9172222 6.53862857,14.7593519 6.79782857,14.6086111 L18.2275797,7.74887587 C18.4240369,7.63683884 18.620494,7.52785735 18.8159226,7.42294995 C19.0689512,7.28748698 19.3219797,7.15813513 19.5739797,7.03489439 L19.7550083,6.95035735 C19.945294,6.85869069 20.1355797,6.76804254 20.3258654,6.6835055 C20.5758083,6.57248698 31.112494,1.37498698 31.3614083,1.27619069 L31.4519226,1.24257958 C31.6730654,1.1560055 31.8942083,1.07248698 32.1143226,0.995079577 C32.3467797,0.913598096 32.5792369,0.840264762 32.8096369,0.769986985 C33.1305512,0.672209207 33.3866654,0.602949947 33.6417512,0.538783281 C33.8464369,0.487857355 34.050094,0.442024022 34.251694,0.400264762 L34.5057512,0.348320318 L35.281294,0.794431429 L35.0282654,0.847394392 C34.5654083,0.943135133 34.0974083,1.06128328 33.6273512,1.20285735 C33.1346654,1.3535981 32.682094,1.51146847 32.228494,1.68869069 C31.7183226,1.88832032 20.9810654,7.18156106 20.528494,7.39748698 L20.4215226,7.44739439 C19.9494083,7.67656106 19.4762654,7.92507958 19.0041512,8.1960055 C18.5855226,8.43433884 6.91508571,15.4509259 6.49748571,15.7228704 L6.26914286,15.8715741 C5.87108571,16.1353704 5.47302857,16.4113889 5.076,16.7026852 L4.88262857,16.8493519 C4.51337143,17.1253704 4.14617143,17.4136111 3.78,17.7130556 L3.6072,17.8525926 C3.17417143,18.2121296 2.74422857,18.5849074 2.31737143,18.9760185 L1.73828571,19.5076852 L0.962742857,19.0615741 L1.54182857,18.5288889 C1.66114286,18.4209259 1.77942857,18.3119444 1.89977143,18.2060185 Z" id="Fill-398" fill="#653625"></path>
                                <path d="M33.3486083,8.07582032 L33.3352369,3.57702402 C32.0135226,3.95998698 30.6599226,4.54665365 29.2929512,5.32785735 C27.9218654,6.11211661 5.02148571,18.9291667 3.6936,20.0678704 L3.70697143,24.5585185 L33.3486083,8.07582032 Z M35.0282654,0.847394392 L35.281294,0.794431429 L35.3358083,35.4709129 L33.3856369,36.5861907 L33.358894,11.7791537 L3.71725714,28.2618519 L3.74297143,37.3714815 L1.7928,38.4867593 L1.73828571,19.5076852 L2.31737143,18.9760185 C3.06441394,18.2916613 5.10126453,16.479865 8.07858432,14.5648611 C12.1644385,11.936851 17.4614081,9.09114025 18.5211042,8.48545778 C19.9908499,7.64486317 27.2588023,3.83160011 31.687398,1.90864874 C33.0916134,1.29892097 34.5788305,0.939835699 35.0282654,0.847394392 Z" id="Fill-399" fill="#8F5239"></path>
                                <polygon id="Fill-400" fill="#653625" points="1.81234286 54.1862037 1.03577143 53.7400926 1.01314286 38.0233333 1.78765714 38.0233333"></polygon>
                                <polygon id="Fill-401" fill="#8F5239" points="3.76251429 52.9717596 1.81234286 54.1862037 1.78765714 36.5861907 3.74091429 36.5861907"></polygon>
                            </g>
                        </g>
                        <g id="chair" transform="translate(162.000000, 143.000000)">
                            <polyline id="Fill-599" fill="#7D384D" points="3.14 34.648 3.185 53.553 5.687 52.109 5.611 33.11 3.14 34.648"></polyline>
                            <polyline id="Fill-600" fill="#CC7772" points="3.185 53.553 0.623 52.064 0.578 33.159 3.14 34.648 3.185 53.553"></polyline>
                            <polyline id="Fill-601" fill="#B0612F" points="19.287 44.1 19.332 63.005 21.833 61.561 21.797 45.532 34.492 38.202 34.528 54.231 37.03 52.787 36.985 33.882 19.287 44.1"></polyline>
                            <polyline id="Fill-602" fill="#CC7772" points="0.578 33.159 19.287 44.1 19.287 46.73 0.578 35.79 0.578 33.159"></polyline>
                            <polyline id="Fill-603" fill="#CC7772" points="34.492 38.202 31.931 36.713 31.967 52.743 34.528 54.231 34.492 38.202"></polyline>
                            <polyline id="Fill-604" fill="#7D384D" points="19.287 44.1 19.332 63.005 21.833 61.561 21.797 45.532 34.492 38.202 34.528 54.231 37.03 52.787 36.985 33.882 19.287 44.1"></polyline>
                            <polyline id="Fill-605" fill="#CC7772" points="19.287 44.1 16.726 42.611 16.771 61.517 19.332 63.005 19.287 44.1"></polyline>
                            <polyline id="Fill-606" fill="#A16074" points="36.985 33.882 18.276 22.941 0.578 33.159 19.287 44.1 36.985 33.882"></polyline>
                            <polyline id="Fill-607" fill="#CC7772" points="15.835 2.12 15.786 24.378 18.329 25.856 18.379 3.588 15.835 2.12"></polyline>
                            <polyline id="Fill-608" fill="#7D384D" points="18.329 25.856 20.807 24.407 20.856 2.148 18.379 3.588 18.329 25.856"></polyline>
                            <polyline id="Fill-609" fill="#D87D45" points="18.379 3.588 20.856 2.148 18.313 0.68 15.835 2.12 18.379 3.588"></polyline>
                            <polyline id="Fill-610" fill="#CC7772" points="32.009 11.59 31.959 33.848 34.503 35.317 34.553 13.059 32.009 11.59"></polyline>
                            <polyline id="Fill-611" fill="#7D384D" points="34.503 35.317 36.985 33.882 37.03 11.619 34.553 13.059 34.503 35.317"></polyline>
                            <polyline id="Fill-612" fill="#D87D45" points="34.553 13.059 37.03 11.619 34.486 10.15 32.009 11.59 34.553 13.059"></polyline>
                            <polyline id="Fill-613" fill="#A16074" points="36.985 11.586 18.269 0.648 15.791 2.088 34.508 13.026 36.985 11.586"></polyline>
                            <polyline id="Fill-614" fill="#CC7772" points="15.791 12.423 34.508 23.361 34.508 13.026 15.791 2.088 15.791 12.423"></polyline>
                        </g>
                        <g id="table" transform="translate(106.000000, 162.000000)">
                            <polyline id="Fill-621" fill="#7EADB3" points="89.86 32.052 92.471 33.568 95.097 32.052 92.487 30.535 89.86 32.052"></polyline>
                            <polyline id="Fill-622" fill="#3D5065" points="89.86 32.052 89.861 61.136 92.472 62.653 92.471 33.568 89.86 32.052"></polyline>
                            <polyline id="Fill-618" fill="#7EADB3" points="50.579 54.777 53.189 56.293 55.816 54.777 53.206 53.26 50.579 54.777"></polyline>
                            <polyline id="Fill-615" fill="#7EADB3" points="20.748 36.844 23.358 38.361 25.984 36.845 23.374 35.328 20.748 36.844"></polyline>
                            <polygon id="Fill-626" fill="#4F6A6C" points="92.471106 36.6496421 55.8161044 57.8124741 55.817 83.862 53.19 85.378 53.189 56.293 53.198068 56.287767 53.198 56.258 92.4710005 33.5836615 92.471 33.568 95.097 32.052 95.0970923 34.7359369 95.098 35.133 95.098 61.137 92.472 62.653"></polygon>
                            <polyline id="Fill-621" fill="#7EADB3" points="69.86 20.052 72.471 21.568 75.097 20.052 72.487 18.535 69.86 20.052"></polyline>
                            <polyline id="Fill-618" fill="#7EADB3" points="30.579 42.777 33.189 44.293 35.816 42.777 33.206 41.26 30.579 42.777"></polyline>
                            <polyline id="Fill-617" fill="#4F6A6C" points="3.358 26.361 3.358 55.446 5.985 53.929 5.984 24.845 3.358 26.361"></polyline>
                            <polyline id="Fill-615" fill="#7EADB3" points="0.748 24.844 3.358 26.361 5.984 24.845 3.374 23.328 0.748 24.844"></polyline>
                            <polygon id="Fill-624" fill="url(#radialGradient-12)" points="75.091 20.071 42.64 0.603 0.748 24.79 20.749047 36.7893955 53.198 56.258 95.091 32.071 75.0896389 20.0717858"></polygon>
                            <polygon id="Fill-625" fill="url(#radialGradient-13)" points="0.748123613 24.8440718 0.748 24.79 33.198 44.258 33.1980028 44.2592344 53.198 56.258 53.205 59.32 53.1891037 59.3104632 53.19 85.378 50.58 83.861 50.579102 57.7446231 20.755 39.852 20.7549972 39.8507656 3.358 29.4136396 3.358 55.446 0.749 53.929 0.748 24.844"></polygon>
                        </g>
                        <g id="dish" transform="translate(150.000000, 179.000000)">
                            <path d="M9.8175,11.5013333 C7.94325,11.5013333 6.069,11.08 4.63575,10.24 C1.76925,8.56 1.756125,5.832 4.60425,4.14933333 C6.029625,3.30933333 7.898625,2.89066667 9.77025,2.89066667 C11.641875,2.89066667 13.516125,3.30933333 14.949375,4.14933333 C17.815875,5.832 17.836875,8.56 14.98875,10.24 C13.563375,11.08 11.69175,11.5013333 9.8175,11.5013333" id="Fill-622" fill="#4F6A6C"></path>
                            <path d="M15.99675,1.91733333 C19.446,3.93866667 19.467,7.21866667 16.041375,9.24266667 C12.61575,11.264 7.035,11.264 3.588375,9.24266667 C0.139125,7.21866667 0.126,3.93866667 3.551625,1.91733333 C6.97725,-0.106666667 12.5475,-0.106666667 15.99675,1.91733333" id="Fill-623" fill="#FFFFFE"></path>
                            <path d="M16.398375,5.92533333 C16.28025,6.808 15.642375,7.664 14.5005,8.33866667 C11.92275,9.85866667 7.7175,9.85866667 5.121375,8.33866667 C3.96375,7.664 3.318,6.78933333 3.189375,5.89866667 C3.037125,4.80266667 3.667125,3.66133333 5.095125,2.82133333 C7.6755,1.29866667 11.87025,1.29866667 14.466375,2.82133333 C15.91275,3.66933333 16.561125,4.81066667 16.398375,5.92533333" id="Fill-624" fill="#A3C1D0"></path>
                            <path d="M16.398375,5.92533333 C16.28025,6.808 15.642375,7.664 14.5005,8.33866667 C11.92275,9.85866667 7.7175,9.85866667 5.121375,8.33866667 C3.96375,7.664 3.318,6.78933333 3.189375,5.89866667 C3.3075,5.01866667 3.948,4.152 5.095125,3.46933333 C7.6755,1.94933333 11.87025,1.94933333 14.466375,3.46933333 C15.631875,4.152 16.28025,5.02666667 16.398375,5.92533333" id="Fill-625" fill="#CFDEDD"></path>
                        </g>
                        <g id="Group-18" transform="translate(130.000000, 163.000000)">
                            <polyline id="Fill-427" fill="#684A87" points="5.53727778 12.3748182 5.56233333 25.6011364 0.617833333 22.8220909 0.592166667 9.59636364 5.53727778 12.3748182"></polyline>
                            <polyline id="Fill-428" fill="#3F1027" points="10.516 9.59577273 10.5410556 22.8215 5.56233333 25.6011364 5.53727778 12.3748182 10.516 9.59577273"></polyline>
                            <path d="M3.52061111,5.84645455 L3.50716667,2.13790909 L3.51205556,2.19640909 L3.51938889,2.25845455 L3.53283333,2.30927273 L3.54994444,2.36777273 L3.57133333,2.41681818 L3.60127778,2.47827273 L3.62877778,2.522 L3.67644444,2.59113636 L3.71005556,2.63131818 L3.79622222,2.72113636 L3.83044444,2.75304545 L3.89277778,2.80327273 L3.95022222,2.847 L4.02355556,2.89427273 L4.10177778,2.94272727 C4.19038889,2.99295455 4.28755556,3.03490909 4.38716667,3.07390909 L4.46661111,3.10286364 C4.52894444,3.12472727 4.59372222,3.14186364 4.6585,3.15959091 C4.72633333,3.17790909 4.79416667,3.19504545 4.86383333,3.20922727 C4.94572222,3.22518182 5.02883333,3.23995455 5.11316667,3.25059091 L5.17305556,3.25827273 C5.28672222,3.27009091 5.40222222,3.276 5.51772222,3.27718182 L5.57211111,3.27718182 C5.68577778,3.27659091 5.79944444,3.27009091 5.91188889,3.25886364 L5.96322222,3.25354545 C6.07444444,3.24054545 6.18444444,3.22222727 6.292,3.19859091 L6.35005556,3.185 C6.44783333,3.16195455 6.54255556,3.13359091 6.63361111,3.10168182 L6.68433333,3.08513636 C6.79433333,3.04377273 6.89883333,2.99709091 6.996,2.94272727 C7.39994444,2.71759091 7.60222222,2.42154545 7.601,2.1255 L7.61444444,5.85295455 L7.62238889,5.84940909 L10.516,9.59577273 L5.53727778,12.3748182 L0.592166667,9.59636364 L3.52061111,5.84645455" id="Fill-429" fill="#711E46"></path>
                            <path d="M4.11094444,1.32186364 C4.91333333,0.873954545 6.2095,0.873363636 7.007,1.32127273 C7.80388889,1.76918182 7.79838889,2.49481818 6.996,2.94272727 C6.19483333,3.39004545 4.89866667,3.39063636 4.10177778,2.94272727 C3.30488889,2.49481818 3.31038889,1.76918182 4.11094444,1.32186364" id="Fill-430" fill="#9F788E"></path>
                            <path d="M3.37944444,1.56059091 L3.38677778,1.62618182 L3.40083333,1.68054545 L3.41977778,1.74318182 L3.44177778,1.79459091 L3.47355556,1.85959091 L3.50288889,1.90627273 L3.55422222,1.98013636 L3.58905556,2.02209091 L3.68133333,2.11840909 L3.71738889,2.15209091 L3.784,2.20527273 L3.84511111,2.25195455 L3.92272222,2.30218182 L4.00583333,2.35418182 C4.09994444,2.40677273 4.20322222,2.45168182 4.30894444,2.49304545 L4.39388889,2.52377273 C4.45927778,2.54681818 4.52894444,2.56572727 4.59738889,2.58404545 C4.6695,2.60354545 4.741,2.62186364 4.81555556,2.63663636 C4.90294444,2.65377273 4.99094444,2.66972727 5.08077778,2.68036364 L5.14433333,2.68922727 C5.26533333,2.70163636 5.38755556,2.70813636 5.51038889,2.70872727 L5.56844444,2.70931818 C5.68944444,2.70813636 5.80983333,2.70163636 5.92961111,2.68981818 L5.984,2.68390909 C6.10255556,2.66972727 6.21927778,2.65081818 6.33294444,2.626 L6.39527778,2.61122727 C6.49855556,2.58640909 6.59938889,2.55627273 6.69655556,2.52259091 L6.75033333,2.50486364 C6.86705556,2.46113636 6.97827778,2.4115 7.08155556,2.35418182 C7.51055556,2.11427273 7.72505556,1.79931818 7.72444444,1.48554545 L7.75133333,3.44322727 C7.75194444,3.75759091 7.53744444,4.07195455 7.10844444,4.31186364 C7.01005556,4.36622727 6.90494444,4.41468182 6.79494444,4.45663636 L6.77722222,4.46254545 L6.72344444,4.48027273 C6.65988889,4.50272727 6.59694444,4.52518182 6.53094444,4.54290909 L6.42216667,4.56890909 L6.36044444,4.58368182 L6.30361111,4.59727273 C6.23272222,4.61086364 6.16061111,4.62327273 6.08788889,4.63331818 L6.01088889,4.64159091 L5.9565,4.6475 L5.87644444,4.65636364 C5.80555556,4.66168182 5.73405556,4.66522727 5.66194444,4.667 L5.59533333,4.667 L5.53727778,4.66640909 L5.4395,4.66640909 C5.35822222,4.66345455 5.27755556,4.65813636 5.19811111,4.65045455 L5.17122222,4.64690909 L5.10766667,4.63863636 C5.04472222,4.63095455 4.98177778,4.62386364 4.92066667,4.61322727 L4.84244444,4.59431818 C4.76788889,4.57954545 4.69638889,4.56122727 4.62488889,4.54231818 L4.50877778,4.51395455 L4.42077778,4.48204545 L4.33583333,4.45072727 C4.23011111,4.40995455 4.12683333,4.36445455 4.03272222,4.31186364 L4.00583333,4.2965 L3.94961111,4.26045455 L3.872,4.21022727 L3.81088889,4.16354545 L3.74427778,4.11036364 L3.73083333,4.09972727 L3.70822222,4.07609091 L3.61594444,3.98036364 L3.59577778,3.95909091 L3.58111111,3.93781818 L3.52977778,3.86454545 L3.50838889,3.83381818 L3.50044444,3.81786364 L3.46866667,3.75227273 L3.45033333,3.71386364 L3.44666667,3.70086364 L3.42772222,3.63822727 L3.4155,3.59568182 L3.41427778,3.58386364 L3.40633333,3.51827273 L3.40083333,3.47513636 L3.40083333,3.45622727 L3.37394444,1.49854545 L3.37944444,1.56059091" id="Fill-431" fill="#424B54"></path>
                            <path d="M4.01561111,0.631090909 C4.86811111,0.155409091 6.24555556,0.154227273 7.09255556,0.6305 C7.93955556,1.10618182 7.93405556,1.87790909 7.08155556,2.35418182 C6.23027778,2.82868182 4.85283333,2.82986364 4.00583333,2.35418182 C3.15883333,1.87790909 3.16433333,1.10618182 4.01561111,0.631090909" id="Fill-432" fill="#2C353C"></path>
                            <path d="M1.7435,21.5711364 C1.08716667,19.5785909 1.08594444,16.3587273 1.74227778,14.3785909 C2.39922222,12.3990455 3.46316667,12.4132273 4.12011111,14.4057727 C4.77522222,16.3947727 4.77644444,19.6152273 4.12011111,21.5947727 C3.46316667,23.5743182 2.39922222,23.5601364 1.7435,21.5711364" id="Fill-433" fill="#3F1027"></path>
                        </g>
                        <g id="chair-2" transform="translate(177.000000, 200.000000)">
                            <g id="Group-14" transform="translate(0.000000, 14.000000)">
                                <polyline id="Fill-627" fill="#CC7772" points="34.554 11.884 34.509 30.79 32.007 29.345 32.083 10.347 34.554 11.884"></polyline>
                                <polyline id="Fill-628" fill="#7D384D" points="34.509 30.79 37.07 29.301 37.115 10.396 34.554 11.884 34.509 30.79"></polyline>
                                <polyline id="Fill-629" fill="#7D384D" points="3.202 15.438 5.763 13.95 5.727 29.979 3.165 31.468 3.202 15.438"></polyline>
                                <polyline id="Fill-630" fill="#B0612F" points="18.406 21.336 18.361 40.242 15.86 38.797 15.896 22.768 3.202 15.438 3.165 31.468 0.664 30.023 0.708 11.118 18.406 21.336"></polyline>
                                <polyline id="Fill-631" fill="#7D384D" points="18.406 21.336 20.968 19.848 20.924 38.753 18.361 40.242 18.406 21.336"></polyline>
                                <polyline id="Fill-632" fill="#A16074" points="0.708 11.118 19.417 0.178 37.115 10.396 18.406 21.336 0.708 11.118"></polyline>
                                <polyline id="Fill-633" fill="#CC7772" points="18.406 21.336 18.361 40.242 15.86 38.797 15.896 22.768 3.202 15.438 3.165 31.468 0.664 30.023 0.708 11.118 18.406 21.336"></polyline>
                                <polyline id="Fill-634" fill="#7D384D" points="37.115 10.396 18.406 21.336 18.406 23.966 37.115 13.026 37.115 10.396"></polyline>
                            </g>
                            <polyline id="Fill-635" fill="#7D384D" points="37.065 2.145 37.115 24.403 34.572 25.881 34.522 3.613 37.065 2.145"></polyline>
                            <polyline id="Fill-636" fill="#CC7772" points="34.572 25.881 32.094 24.432 32.044 2.173 34.522 3.613 34.572 25.881"></polyline>
                            <polyline id="Fill-637" fill="#D87D45" points="34.522 3.613 32.044 2.173 34.588 0.705 37.065 2.145 34.522 3.613"></polyline>
                            <polyline id="Fill-638" fill="#7D384D" points="20.893 11.615 20.942 33.873 18.398 35.341 18.349 13.083 20.893 11.615"></polyline>
                            <polyline id="Fill-639" fill="#CC7772" points="18.398 35.341 15.921 33.901 15.871 11.643 18.349 13.083 18.398 35.341"></polyline>
                            <polyline id="Fill-640" fill="#D87D45" points="18.349 13.083 15.871 11.643 18.414 10.175 20.893 11.615 18.349 13.083"></polyline>
                            <polyline id="Fill-641" fill="#A16074" points="15.871 11.643 34.588 0.705 37.065 2.145 18.349 13.083 15.871 11.643"></polyline>
                            <polyline id="Fill-642" fill="#7D384D" points="37.065 12.479 18.349 23.418 18.349 13.083 37.065 2.145 37.065 12.479"></polyline>
                        </g>
                        <g id="Group-16" transform="translate(110.000000, 246.000000)">
                            <g id="Group-15">
                                <polyline id="Fill-182" fill="#C0C0BB" points="3.55063415 28.61 3.55063415 52.826 1.12658537 51.416 1.12658537 27.2435 3.55063415 28.61"></polyline>
                                <polyline id="Fill-183" fill="#C19CB2" points="3.55063415 28.61 3.55063415 52.826 5.97317073 51.416 5.97317073 27.2435 3.55063415 28.61"></polyline>
                                <polyline id="Fill-184" fill="#816895" points="58.0259512 26.1395 58.0259512 50.3555 55.6019024 48.9455 55.6019024 24.773 58.0259512 26.1395"></polyline>
                                <polyline id="Fill-185" fill="#C19CB2" points="58.0259512 26.1395 58.0259512 50.3555 60.4484878 48.9455 60.4484878 24.773 58.0259512 26.1395"></polyline>
                                <polyline id="Fill-186" fill="#816895" points="28.9358537 43.1555 28.9358537 67.3715 26.5133171 65.963 26.5133171 41.789 28.9358537 43.1555"></polyline>
                                <polyline id="Fill-187" fill="#C19CB2" points="28.9358537 43.1555 28.9358537 67.3715 31.3599024 65.963 31.3599024 41.789 28.9358537 43.1555"></polyline>
                                <polyline id="Fill-188" fill="#FABF84" points="0.771219512 18.962 28.9736585 35.1125 60.9943902 16.4915 32.8660488 0.341 0.771219512 18.962"></polyline>
                                <polyline id="Fill-189" fill="#CC7772" points="0.771219512 18.962 0.734926829 27.026 28.899561 43.1555 28.9736585 35.1125 0.771219512 18.962"></polyline>
                                <polyline id="Fill-190" fill="#772B3D" points="61.0306829 16.4915 60.9943902 24.557 28.9358537 43.1555 28.9358537 35.1125 61.0306829 16.4915"></polyline>
                            </g>
                        </g>
                        <g id="Group-17" transform="translate(227.000000, 148.000000)">
                            <path d="M52.6028182,53.2938 L52.5436753,32.5272 L3.79651948,60.7935 L3.85476623,81.5601 L52.6028182,53.2938 Z M52.6727143,77.1257 L52.6135714,56.3582 L3.86641558,84.6254 L3.92466234,105.392 L52.6727143,77.1257 Z M53.5329221,27.4583 L53.4728831,6.6584 L4.72662338,34.9247 L4.78487013,55.7246 L53.5329221,27.4583 Z M52.7040779,87.2326 L52.6843636,80.191 L3.93631169,108.4573 L3.95692208,115.4998 L0.433441558,117.5419 L0.603574001,33.0355669 L56.2293506,0.773372747 L56.2293506,85.1887 L52.7040779,87.2326 Z" id="Fill-947" fill="#5F4C3B"></path>
                            <polyline id="Fill-814" fill="#907257" points="64.6843636 88.191 53.0144026 81.3798 53.035013 88.4223 64.7040779 95.2326 64.6843636 88.191"></polyline>
                            <polyline id="Fill-815" fill="#907257" points="64.6135714 63.3582 52.9445065 56.5479 53.0027532 77.3145 64.6727143 84.1257 64.6135714 63.3582"></polyline>
                            <polyline id="Fill-816" fill="#816895" points="64.5436753 38.5272 52.8746104 31.716 52.9328571 52.4826 64.6028182 59.2938 64.5436753 38.5272"></polyline>
                            <polyline id="Fill-817" fill="#C19CB2" points="64.6727143 84.1257 53.0027532 77.3145 4.25649351 105.5817 15.9246623 112.392 64.6727143 84.1257"></polyline>
                            <polygon id="Fill-818" fill="#816895" points="64.9345512 9.35944021 53.6733342 2.48000962 53.1513113 2.70072026 52.862961 27.648 64.5329221 34.4583"></polygon>
                            <polyline id="Fill-861" fill="#C19CB2" points="64.6028182 59.2938 52.9328571 52.4826 4.1857013 80.7498 15.8547662 87.5601 64.6028182 59.2938"></polyline>
                            <polyline id="Fill-904" fill="#C19CB2" points="64.5329221 34.4583 52.862961 27.648 4.11580519 55.9143 15.7848701 62.7246 64.5329221 34.4583"></polyline>
                            <path d="M64.6028182,59.2938 L64.5436753,38.5272 L15.7965195,66.7935 L15.8547662,87.5601 L64.6028182,59.2938 Z M64.6727143,84.1257 L64.6135714,63.3582 L15.8664156,91.6254 L15.9246623,112.392 L64.6727143,84.1257 Z M64.5329221,34.4583 L64.6028182,9.54241053 L15.8565584,37.8087105 L15.7848701,62.7246 L64.5329221,34.4583 Z M64.7040779,95.2326 L64.6843636,88.191 L15.9363117,116.4573 L15.9569221,123.4998 L12.4334416,125.5419 L12.1914935,39.9024 L67.9874026,7.5492 L68.2293506,93.1887 L64.7040779,95.2326 Z" id="Fill-947" fill="#363757"></path>
                            <polyline id="Fill-948" fill="#816895" points="12.1914935 39.9024 0.522428571 33.0921 0.765272727 118.7316 12.4334416 125.5419 12.1914935 39.9024"></polyline>
                            <polygon id="Fill-949" fill="#363757" points="7.7899143 36.9398406 7.7899143 33.1598395 56.2450455 2.929441 56.2450455 7.74614563"></polygon>
                            <polygon id="Fill-949" fill="#C19CB2" points="7.86665942 33.1139508 15.8844837 37.8357642 12.2067676 39.9184362 0.5234375 33.09375 4.19948107 30.9542961 56.2390935 0.754376587 56.2774739 0.776474369 56.3228309 0.750477045 67.9874026 7.5492 64.917195 9.35875344 56.215875 4.20417693"></polygon>
                        </g>
                        <g id="brick-hole" transform="translate(178.000000, 230.000000)">
                            <polygon id="Path-8" fill="#2F1423" points="4.40748712 25.8945611 4.40748712 47.2906682 41.7489289 25.5871266 41.8437377 4.3275159"></polygon>
                            <polygon id="Rectangle-2" fill="#3C264C" points="41.779816 3.5 58.414989 14.2912637 57.7876703 44.5663942 41.7602037 38.1582187"></polygon>
                            <g id="Container" transform="translate(0.166667, 0.000000)">
                                <path d="M19.7833199,35.0405429 L0.0112580142,23.6860378 L41.9690746,0.338671717 L61.5189202,11.3104164 L19.7833199,35.0405429 Z M20.2508591,29.1666667 L51.3333333,11.3663356 L41.6920632,5.83333333 L10.5,23.44064 L20.2508591,29.1666667 Z" id="Combined-Shape" fill="#A66173"></path>
                                <polygon id="Path-8" fill="#6C3E53" points="19.7866667 35.0389585 19.7866667 56.4350656 61.4155955 32.5871266 61.5104044 11.3275159"></polygon>
                                <g id="Group-7" opacity="0.699999988" transform="translate(21.000000, 13.766652)" fill="#392A56">
                                    <polyline id="Fill-35" points="3.84411315 29.3470118 0.0627538226 31.4944397 0.0627538226 29.5374515 3.84411315 27.3900236 3.84411315 29.3470118"></polyline>
                                    <polyline id="Fill-36" points="6.17744648 23.5550165 2.39608716 25.7025603 2.39608716 23.6731726 6.17744648 21.5257447 6.17744648 23.5550165"></polyline>
                                    <polyline id="Fill-37" points="10.7813593 20.6236548 7 22.7745579 7 20.8140946 10.7813593 18.6666667 10.7813593 20.6236548"></polyline>
                                    <polyline id="Fill-38" points="3.84411315 22.2575343 0.0627538226 24.405078 0.0627538226 22.4448463 3.84411315 20.3004303 3.84411315 22.2575343"></polyline>
                                    <polyline id="Fill-43" points="8.33295413 24.4313735 4.55500917 26.5821608 4.55500917 24.6218132 8.33295413 22.4742695 8.33295413 24.4313735"></polyline>
                                    <polyline id="Fill-44" points="15.4446116 18.2904374 11.6666667 20.4378652 11.6666667 18.4775177 15.4446116 16.3333333 15.4446116 18.2904374"></polyline>
                                    <polyline id="Fill-45" points="8.33295413 19.7061749 4.55500917 21.8537187 4.55500917 19.8966147 8.33295413 17.7490709 8.33295413 19.7061749"></polyline>
                                    <polyline id="Fill-49" points="24.3915642 16.1779267 20.613737 18.3254704 20.613737 16.2961986 24.3915642 14.148539 24.3915642 16.1779267"></polyline>
                                    <polyline id="Fill-50" points="22.0582309 14.9081466 18.2804037 17.0556903 18.2804037 15.0985863 22.0582309 12.9511584 22.0582309 14.9081466"></polyline>
                                    <polyline id="Fill-51" points="12.7248976 17.2106501 8.94707034 19.358078 8.94707034 17.4010898 12.7248976 15.2535461 12.7248976 17.2106501"></polyline>
                                    <polyline id="Fill-35" points="31.8441131 14.1803452 28.0627538 16.327773 28.0627538 14.3707849 31.8441131 12.223357 31.8441131 14.1803452"></polyline>
                                    <polyline id="Fill-36" points="29.5107798 13.0550165 25.7294205 15.2025603 25.7294205 13.1731726 29.5107798 11.0257447 29.5107798 13.0550165"></polyline>
                                    <polyline id="Fill-37" points="27.1774465 11.7851206 23.3960872 13.9360236 23.3960872 11.9755603 27.1774465 9.82813239 27.1774465 11.7851206"></polyline>
                                    <polyline id="Fill-49" points="12.7248976 29.01126 8.94707034 31.1588038 8.94707034 29.1295319 12.7248976 26.9818723 12.7248976 29.01126"></polyline>
                                    <polyline id="Fill-50" points="10.3915642 27.7414799 6.613737 29.8890236 6.613737 27.9319196 10.3915642 25.7844917 10.3915642 27.7414799"></polyline>
                                    <polyline id="Fill-37" points="15.5107798 24.6184539 11.7294205 26.769357 11.7294205 24.8088936 15.5107798 22.6614657 15.5107798 24.6184539"></polyline>
                                    <polyline id="Fill-42" points="36.3329541 11.6289858 32.5550092 13.7764137 32.5550092 11.8193097 36.3329541 9.6718818 36.3329541 11.6289858"></polyline>
                                    <polyline id="Fill-43" points="33.9996208 10.4313735 30.2216758 12.5821608 30.2216758 10.6218132 33.9996208 8.4742695 33.9996208 10.4313735"></polyline>
                                    <polyline id="Fill-44" points="33.9996208 8.0704539 30.2216758 10.2178818 30.2216758 8.25753428 33.9996208 6.11334988 33.9996208 8.0704539"></polyline>
                                    <polyline id="Fill-45" points="35.1662875 4.53950827 31.3883425 6.68705201 31.3883425 4.72994799 35.1662875 2.58240426 35.1662875 4.53950827"></polyline>
                                    <polyline id="Fill-49" points="38.3915642 8.01126005 34.613737 10.1588038 34.613737 8.12953191 38.3915642 5.98187234 38.3915642 8.01126005"></polyline>
                                    <polyline id="Fill-51" points="39.5582309 2.04398345 35.7804037 4.19141135 35.7804037 2.23442317 39.5582309 0.0868794326 39.5582309 2.04398345"></polyline>
                                    <polyline id="Fill-45" points="30.4996208 17.3728416 26.7216758 19.5203853 26.7216758 17.5632813 30.4996208 15.4157376 30.4996208 17.3728416"></polyline>
                                    <polyline id="Fill-51" points="34.8915642 14.8773168 31.113737 17.0247447 31.113737 15.0677565 34.8915642 12.9202128 34.8915642 14.8773168"></polyline>
                                </g>
                                <polygon id="Rectangle-2" fill="#392A56" points="0.0196122572 23.6815638 19.7828782 35.0435328 19.7790499 69.2722518 0 58.3397825"></polygon>
                                <g id="Group-7" transform="translate(9.000000, 44.933319) scale(-1, 1) translate(-9.000000, -44.933319) translate(0.500000, 28.933319)" fill="#6B3F58">
                                    <polyline id="Fill-35" points="3.84411315 14.1803452 0.0627538226 16.327773 0.0627538226 14.3707849 3.84411315 12.223357 3.84411315 14.1803452"></polyline>
                                    <polyline id="Fill-36" points="6.17744648 8.38834988 2.39608716 10.5358936 2.39608716 8.50650591 6.17744648 6.35907801 6.17744648 8.38834988"></polyline>
                                    <polyline id="Fill-37" points="10.7813593 5.45698818 7 7.60789125 7 5.6474279 10.7813593 3.5 10.7813593 5.45698818"></polyline>
                                    <polyline id="Fill-38" points="3.84411315 7.09086761 0.0627538226 9.23841135 0.0627538226 7.27817967 3.84411315 5.13376359 3.84411315 7.09086761"></polyline>
                                    <polyline id="Fill-43" points="8.33295413 9.26470686 4.55500917 11.4154941 4.55500917 9.45514657 8.33295413 7.30760284 8.33295413 9.26470686"></polyline>
                                    <polyline id="Fill-44" points="15.4446116 3.12377069 11.6666667 5.27119858 11.6666667 3.31085106 15.4446116 1.16666667 15.4446116 3.12377069"></polyline>
                                    <polyline id="Fill-45" points="8.33295413 4.53950827 4.55500917 6.68705201 4.55500917 4.72994799 8.33295413 2.58240426 8.33295413 4.53950827"></polyline>
                                    <polyline id="Fill-49" points="9.22489755 17.3445934 5.44707034 19.4921371 5.44707034 17.4628652 9.22489755 15.3152057 9.22489755 17.3445934"></polyline>
                                    <polyline id="Fill-50" points="6.89156422 16.0748132 3.113737 18.222357 3.113737 16.265253 6.89156422 14.1178251 6.89156422 16.0748132"></polyline>
                                    <polyline id="Fill-51" points="12.7248976 2.04398345 8.94707034 4.19141135 8.94707034 2.23442317 12.7248976 0.0868794326 12.7248976 2.04398345"></polyline>
                                    <polyline id="Fill-35" points="14.3441131 16.5136785 10.5627538 18.6611064 10.5627538 16.7041182 14.3441131 14.5566903 14.3441131 16.5136785"></polyline>
                                    <polyline id="Fill-36" points="14.3441131 14.2216832 10.5627538 16.369227 10.5627538 14.3398392 14.3441131 12.1924113 14.3441131 14.2216832"></polyline>
                                    <polyline id="Fill-37" points="12.0107798 12.9517872 8.22942049 15.1026903 8.22942049 13.142227 12.0107798 10.9947991 12.0107798 12.9517872"></polyline>
                                    <polyline id="Fill-42" points="10.6662875 29.1289858 6.88834251 31.2764137 6.88834251 29.3193097 10.6662875 27.1718818 10.6662875 29.1289858"></polyline>
                                    <polyline id="Fill-44" points="10.6662875 24.4037872 6.88834251 26.5512151 6.88834251 24.5908676 10.6662875 22.4466832 10.6662875 24.4037872"></polyline>
                                    <polyline id="Fill-45" points="11.8329541 20.8728416 8.05500917 23.0203853 8.05500917 21.0632813 11.8329541 18.9157376 11.8329541 20.8728416"></polyline>
                                    <polyline id="Fill-50" points="15.0582309 21.9081466 11.2804037 24.0556903 11.2804037 22.0985863 15.0582309 19.9511584 15.0582309 21.9081466"></polyline>
                                    <polyline id="Fill-51" points="16.2248976 18.3773168 12.4470703 20.5247447 12.4470703 18.5677565 16.2248976 16.4202128 16.2248976 18.3773168"></polyline>
                                </g>
                            </g>
                        </g>
                        <polygon id="Rectangle-3-Copy" fill="url(#radialGradient-14)" transform="translate(252.928143, 224.650980) scale(-1, 1) translate(-252.928143, -224.650980) " points="167.469836 117.5 197.413564 134.825065 206.565464 193.006716 255.803852 242.271213 269.538682 255.32778 336.34761 289.240941 344.656335 307.384483 344.656335 327.73238 338.043268 331.801959 338.043268 310.945365 330.751939 292.462692 264.79084 258.040833 251.337929 244.789188 201.439481 196.081986 192.286779 138.721422 161.199951 121.183557"></polygon>
                        <polygon id="Rectangle-3-Copy" fill="url(#linearGradient-15)" transform="translate(256.163427, 226.465098) scale(-1, 1) translate(-256.163427, -226.465098) " points="168.326855 230.918048 344.563197 331.858582 344.563197 311.009476 337.236045 291.958881 271.277785 257.773709 207.918338 196.042107 198.760406 138.711276 167.763658 121.071614"></polygon>
                        <g id="ladder_which-I-made" transform="translate(53.503521, 81.955426) scale(-1, -1) rotate(-150.000000) translate(-53.503521, -81.955426) translate(32.003521, 25.455426)">
                            <g id="Group-11" transform="translate(0.588457, 0.607695)">
                                <polygon id="Fill-144" fill="#374D65" points="16.4059224 2.09752645 40.6639382 91.6200434 35.5491946 91.7461272 10.3785447 2.28915099"></polygon>
                                <g id="Group-12" transform="translate(4.267949, 12.000000)">
                                    <polygon id="Fill-133" fill="#C1F4F8" points="13.5012337 0.944957654 9.85014658 0.933900318 0.964567123 16.2511523 4.67713436 16.2212664"></polygon>
                                    <polygon id="Fill-133" fill="#456E8D" points="13.5012337 0.944957654 14.2830284 2.2990659 5.50634838 17.6575072 4.67713436 16.2212664"></polygon>
                                </g>
                                <g id="Group-12" transform="translate(7.169873, 23.026279)">
                                    <polygon id="Fill-133" fill="#C1F4F8" points="13.5012337 0.944957654 9.85014658 0.933900318 0.964567123 16.2511523 4.67713436 16.2212664"></polygon>
                                    <polygon id="Fill-133" fill="#456E8D" points="13.5012337 0.944957654 14.2830284 2.2990659 5.50634838 17.6575072 4.67713436 16.2212664"></polygon>
                                </g>
                                <g id="Group-12" transform="translate(10.071797, 34.052559)">
                                    <polygon id="Fill-133" fill="#C1F4F8" points="13.5012337 0.944957654 9.85014658 0.933900318 0.964567123 16.2511523 4.67713436 16.2212664"></polygon>
                                    <polygon id="Fill-133" fill="#456E8D" points="13.5012337 0.944957654 14.2830284 2.2990659 5.50634838 17.6575072 4.67713436 16.2212664"></polygon>
                                </g>
                                <g id="Group-12" transform="translate(13.473721, 45.944864)">
                                    <polygon id="Fill-133" fill="#C1F4F8" points="13.5012337 0.944957654 9.85014658 0.933900318 0.964567123 16.2511523 4.67713436 16.2212664"></polygon>
                                    <polygon id="Fill-133" fill="#456E8D" points="13.5012337 0.944957654 14.2830284 2.2990659 5.50634838 17.6575072 4.67713436 16.2212664"></polygon>
                                </g>
                                <g id="Group-12" transform="translate(15.875644, 56.105118)">
                                    <polygon id="Fill-133" fill="#C1F4F8" points="13.5012337 0.944957654 9.85014658 0.933900318 0.964567123 16.2511523 4.67713436 16.2212664"></polygon>
                                    <polygon id="Fill-133" fill="#456E8D" points="13.5012337 0.944957654 14.2830284 2.2990659 5.50634838 17.6575072 4.67713436 16.2212664"></polygon>
                                </g>
                                <g id="Group-12" transform="translate(18.777568, 67.131397)">
                                    <polygon id="Fill-133" fill="#C1F4F8" points="13.5012337 0.944957654 9.85014658 0.933900318 0.964567123 16.2511523 4.67713436 16.2212664"></polygon>
                                    <polygon id="Fill-133" fill="#456E8D" points="13.5012337 0.944957654 14.2830284 2.2990659 5.50634838 17.6575072 4.67713436 16.2212664"></polygon>
                                </g>
                                <g id="Group-12" transform="translate(22.179492, 79.023702)">
                                    <polygon id="Fill-133" fill="#C1F4F8" points="13.5012337 0.944957654 9.85014658 0.933900318 0.964567123 16.2511523 4.67713436 16.2212664"></polygon>
                                    <polygon id="Fill-133" fill="#456E8D" points="13.5012337 0.944957654 14.2830284 2.2990659 5.50634838 17.6575072 4.67713436 16.2212664"></polygon>
                                </g>
                                <g transform="translate(0.411543, 19.392305)" id="Fill-144">
                                    <polygon fill="#374D65" points="6.40592239 2.09752645 30.6639382 91.6200434 25.5491946 91.7461272 0.37854472 2.28915099"></polygon>
                                    <polygon fill="#5989B0" points="6.40592239 2.09752645 30.6639382 91.6200434 31.8067328 89.3877753 7.29830189 0.525092757"></polygon>
                                    <polygon fill="#C1F4F8" points="6.40592239 2.09752645 0.440936321 2.29378418 1.54222145 0.695371406 7.29830189 0.525092757"></polygon>
                                </g>
                                <polygon id="Fill-144" fill="#5989B0" points="16.4059224 2.09752645 40.6639382 91.6200434 41.8067328 89.3877753 17.2983019 0.525092757"></polygon>
                                <polygon id="Fill-144" fill="#C1F4F8" points="16.4059224 2.09752645 10.4409363 2.29378418 11.5422214 0.695371406 17.2983019 0.525092757"></polygon>
                            </g>
                        </g>
                    </g>
                </g>
            </g>
        </g>
    </g>
</svg>