<?xml version="1.0" encoding="UTF-8"?>
<svg width="219px" height="240px" viewBox="0 0 219 240" version="1.1" xmlns="http://www.w3.org/2000/svg" xmlns:xlink="http://www.w3.org/1999/xlink">
    <!-- Generator: Sketch 47.1 (45422) - http://www.bohemiancoding.com/sketch -->
    <title>secret annex entrance</title>
    <desc>Created with Sketch.</desc>
    <defs>
        <filter x="-3.3%" y="-2.2%" width="106.6%" height="106.0%" filterUnits="objectBoundingBox" id="filter-1">
            <feOffset dx="0" dy="2" in="SourceAlpha" result="shadowOffsetOuter1"></feOffset>
            <feGaussianBlur stdDeviation="2" in="shadowOffsetOuter1" result="shadowBlurOuter1"></feGaussianBlur>
            <feColorMatrix values="0 0 0 0 0   0 0 0 0 0   0 0 0 0 0  0 0 0 0.5 0" type="matrix" in="shadowBlurOuter1" result="shadowMatrixOuter1"></feColorMatrix>
            <feMerge>
                <feMergeNode in="shadowMatrixOuter1"></feMergeNode>
                <feMergeNode in="SourceGraphic"></feMergeNode>
            </feMerge>
        </filter>
        <linearGradient x1="50%" y1="12.7835531%" x2="50%" y2="73.8908359%" id="linearGradient-2">
            <stop stop-color="#2C1817" offset="0%"></stop>
            <stop stop-color="#040203" offset="100%"></stop>
        </linearGradient>
        <radialGradient cx="100%" cy="132.571945%" fx="100%" fy="132.571945%" r="99.8844069%" gradientTransform="translate(1.000000,1.325719),scale(1.000000,0.910286),rotate(90.000000),translate(-1.000000,-1.325719)" id="radialGradient-3">
            <stop stop-color="#2F1E48" offset="0%"></stop>
            <stop stop-color="#3F394C" offset="100%"></stop>
        </radialGradient>
    </defs>
    <g id="Page-1" stroke="none" stroke-width="1" fill="none" fill-rule="evenodd">
        <g id="Grids" transform="translate(-1884.000000, -1029.000000)">
            <g id="Group-26" transform="translate(1776.000000, 0.000000)">
                <g id="floor-3" transform="translate(112.000000, 883.000000)">
                    <g id="secret-annex-entrance" filter="url(#filter-1)" transform="translate(0.000000, 148.000000)">
                        <path d="M61.3392333,39.5359199 L61.3392333,78.6017209 L71.4297502,110.804548 L71.4297502,128.369727 L89.8020217,140.477208 L191.362426,215.192027 L207.534465,231.687507 L55.1444261,143.903518 L0.199639386,112.265177 L0.199639386,2.07997617 L61.3392333,39.5359199 Z M29.0633036,110.554511 L48.9247602,121.860121 L48.9509291,60.6305209 L29.089875,49.3249108 L29.0633036,110.554511 Z" id="Combined-Shape" fill="url(#linearGradient-2)"></path>
                        <polygon id="Rectangle-3-Copy" fill="url(#radialGradient-3)" transform="translate(105.451543, 115.920807) scale(-1, 1) translate(-105.451543, -115.920807) " points="3.35864318 231.647463 19.6908411 215.035227 139.698117 128.625469 139.698117 110.456753 149.864226 78.4061274 149.864226 40.5772474 210.795843 1.94651629 207.570774 0.194150772 146.123916 39.1769469 146.123916 76.7411243 135.948233 109.188938 135.948233 126.842916 16.4382724 213.059403 0.107242524 229.467476"></polygon>
                        <g transform="translate(38.500000, 87.000000) scale(-1, 1) translate(-38.500000, -87.000000) translate(23.000000, 44.000000)">
                            <polygon id="Fill-814" fill="#907257" points="23.8180649 6.1688 23.8273247 69.2988 29.0699481 72.3256 29.0610909 9.196"></polygon>
                            <polyline id="Fill-817" fill="#C1F4F8" points="29.0558571 69.3892 23.8128312 66.362 1.91233766 78.9252 7.15455844 81.952 29.0558571 69.3892"></polyline>
                            <path d="M30.6537662,71.4172 L29.0699481,72.3256 L7.16905195,84.8888 L5.58603896,85.7964 L5.47733766,17.7344 L30.5450649,3.3552 L30.6537662,41.4172 L30.6537662,71.4172 Z M27.9366964,69.5545108 L27.910125,8.3249108 L8.04907095,19.6305209 L8.07523978,80.8601209 L27.9366964,69.5545108 Z" id="Combined-Shape" fill="#1B2E43"></path>
                            <polygon id="Fill-948" fill="#5989B0" points="0.234714286 14.7076 0.343818182 82.7696 5.58603896 85.7964 5.47733766 17.7344"></polygon>
                            <polyline id="Fill-949" fill="#C1F4F8" points="30.5450649 3.3552 25.3024416 0.3276 0.234714286 14.7076 5.47733766 17.7344 30.5450649 3.3552"></polyline>
                        </g>
                        <g id="Group-28" transform="translate(9.000000, 47.000000)">
                            <polygon id="Rectangle-7" fill="#274A67" points="2.0433315 1.63587032 15.467033 0.598002316 15.467033 67.5980023 2.0433315 68.6358703"></polygon>
                            <g id="Group-27" transform="translate(1.000000, 44.000000)"></g>
                            <path d="M10.7089108,86.1256076 L1.91176819,67.7081065 L1.91176819,67.7081065 C1.84035648,67.5586005 1.90366437,67.3795114 2.05317032,67.3080997 C2.09354697,67.2888137 2.13772646,67.2788041 2.18247265,67.2788041 L14.9343321,67.2788041 L25.4334447,84.772531 L10.7089108,86.1256076 Z" id="Path" fill="#5989B0"></path>
                            <path d="M10.1987221,90.5292396 L1.5627368,71.9564518 L1.5627368,71.9564518 C1.54431296,71.9168289 1.53476725,71.8736597 1.53476725,71.8299629 L1.53476725,67.3177593 L10.0114473,84.5445177 L10.1987221,90.5292396 Z" id="Path" fill="#1B2E43"></path>
                            <g id="Group-27" transform="translate(1.000000, 47.000000)">
                                <path d="M9.70891084,19.1256076 L0.911768186,0.70810647 L0.911768186,0.70810647 C0.840356482,0.558600522 0.903664374,0.37951138 1.05317032,0.308099675 C1.09354697,0.288813719 1.13772646,0.27880414 1.18247265,0.27880414 L13.9343321,0.27880414 L24.4334447,17.772531 L9.70891084,19.1256076 Z" id="Path" fill="#5989B0"></path>
                                <path d="M9.19872205,23.5292396 L0.562736801,4.95645176 L0.562736801,4.95645176 C0.544312956,4.91682893 0.534767251,4.87365965 0.534767251,4.82996289 L0.534767251,0.317759341 L9.01144732,17.5445177 L9.19872205,23.5292396 Z" id="Path" fill="#1B2E43"></path>
                            </g>
                            <g id="Group-27" transform="translate(1.000000, 2.000000)">
                                <path d="M10.1785694,21.772531 L0.946483704,4.72164349 L0.946483704,4.72164349 C0.867595712,4.57594399 0.921757141,4.39387985 1.06745664,4.31499186 C1.11132086,4.29124188 1.16041482,4.27880414 1.21029599,4.27880414 L13.9343321,4.27880414 L24.4334447,21.772531 L10.1785694,21.772531 Z" id="Path" stroke="#FF7070" fill="#D8D8D8"></path>
                                <path d="M9.19872205,26.3059833 L0.563097532,7.87124612 L0.563097532,7.87124612 C0.544439048,7.83141527 0.534767251,7.78796882 0.534767251,7.74398433 L0.534767251,0.635720107 L0.534767251,0.635720107 C0.534767251,0.525263157 0.624310301,0.435720107 0.734767251,0.435720107 C0.791995845,0.435720107 0.846482875,0.46023583 0.884441471,0.503064055 L1.24008881,0.904336654 L9.19872205,17.3867048 L9.19872205,26.3059833 Z" id="Path" fill="#1B2E43"></path>
                                <g transform="translate(0.000000, 25.000000)" id="Path">
                                    <path d="M9.9976745,19.692363 L1.47088529,2.30478888 L1.47088529,2.30478888 C1.39793373,2.15602823 1.45938913,1.97629498 1.60814978,1.90334342 C1.64926407,1.88318115 1.69444832,1.87269839 1.74024026,1.87269839 L13.9343321,1.87269839 L24.4334447,17.772531 L9.9976745,19.692363 Z" fill="#5989B0"></path>
                                    <path d="M9.19872205,23.5292396 L0.562736801,4.95645176 L0.562736801,4.95645176 C0.544312956,4.91682893 0.534767251,4.87365965 0.534767251,4.82996289 L0.534767251,0.317759341 L9.01144732,17.9126513 L9.19872205,23.5292396 Z" fill="#1B2E43"></path>
                                </g>
                            </g>
                            <path d="M9.96026998,20 L25.9712733,19.135554 L25.9712733,91.5796869 L11.0475008,92.8864817 L11.0475008,92.8864817 C10.4973213,92.9346579 10.0122581,92.5277039 9.96408185,91.9775244 C9.96154181,91.9485168 9.96026998,91.9194121 9.96026998,91.8902935 L9.96026998,20 Z" id="Rectangle-7" fill="#5989B0"></path>
                            <polygon id="Path" fill="#C1F4F8" points="17.4536557 19.975089 25.9817668 2.09712616 12.3630449 1.23432995 1.79743932 19.1815498"></polygon>
                            <path d="M8.73667979,17.3791335 L9.06271832,89.1255924 L9.06271832,89.1255924 C9.06286732,89.1583825 9.06839109,89.1909264 9.07906985,89.2219292 L10.0226858,91.9614595 L10.3283059,20.8276568 L8.73667979,17.3791335 Z" id="Path" fill="#1B2E43"></path>
                            <path d="M0.911417932,3.37854164 L1.01041641,71.8863075 L1.01041641,71.8863075 C1.01046425,71.9194099 1.01599036,71.9522762 1.02677073,71.9835741 L1.97023115,74.7226527 L2.50304406,6.82706491 L0.911417932,3.37854164 Z" id="Path" fill="#1B2E43"></path>
                        </g>
                    </g>
                </g>
            </g>
        </g>
    </g>
</svg>