<?xml version="1.0" encoding="UTF-8"?>
<svg width="298px" height="325px" viewBox="0 0 298 325" version="1.1" xmlns="http://www.w3.org/2000/svg" xmlns:xlink="http://www.w3.org/1999/xlink">
    <!-- Generator: Sketch 47.1 (45422) - http://www.bohemiancoding.com/sketch -->
    <title>room 1</title>
    <desc>Created with Sketch.</desc>
    <defs>
        <polygon id="path-1" points="230.871972 80.2174355 107.719523 0.26853803 0.22736954 45.7258843 146.042887 129.340343"></polygon>
    </defs>
    <g id="Page-1" stroke="none" stroke-width="1" fill="none" fill-rule="evenodd" stroke-linecap="round" stroke-linejoin="round">
        <g id="Grids" transform="translate(-1261.000000, -514.000000)">
            <g id="floor-2" transform="translate(563.000000, -204.000000)">
                <g id="room-1" transform="translate(287.000000, 528.000000)">
                    <g id="floor_room1" transform="translate(478.000000, 353.000000)">
                        <mask id="mask-2" fill="white">
                            <use xlink:href="#path-1"></use>
                        </mask>
                        <use id="Mask" fill="#D8D8D8" xlink:href="#path-1"></use>
                        <g id="floor-1" mask="url(#mask-2)">
                            <g transform="translate(-57.000000, -148.000000)">
                                <polygon id="Rectangle-6" fill="#FFE1C6" points="0.991080648 159.182048 277.442669 2 486.046419 113.260542 203.074728 277.179984"></polygon>
                                <g id="Group" stroke-width="1" fill="none" transform="translate(259.534829, 136.009031) rotate(1.000000) translate(-259.534829, -136.009031) translate(37.034829, 4.009031)">
                                    <g id="Group-6" transform="translate(175.017472, 161.504287) scale(1, -1) translate(-175.017472, -161.504287) translate(0.017472, 60.004287)" fill="#BF9168">
                                        <polygon id="Fill-4" points="292.914723 141.387806 106.043705 33.4026605 103.967456 34.6103095 290.837995 142.595455"></polygon>
                                        <polygon id="Fill-5" points="302.335594 135.907751 115.465055 27.9230855 113.388326 29.1307344 300.259345 137.11588"></polygon>
                                        <polygon id="Fill-6" points="311.758864 130.426734 124.888325 22.4420693 122.811596 23.6497182 309.682615 131.634864"></polygon>
                                        <polygon id="Fill-7" points="283.491453 146.868822 96.6204345 38.8836767 94.5441858 40.0913256 281.414725 148.076471"></polygon>
                                        <polygon id="Fill-8" points="330.603484 119.466143 143.732465 11.4809977 141.656217 12.689127 328.526755 120.673792"></polygon>
                                        <polygon id="Fill-9" points="321.180214 124.947159 134.309195 16.9620139 132.232947 18.1701432 319.103965 126.154808"></polygon>
                                        <polygon id="Fill-11" points="340.024834 113.986568 153.153816 6.00142263 151.077087 7.20907159 337.948106 115.194217"></polygon>
                                        <polygon id="Fill-12" points="274.070103 152.348397 87.1995642 44.3637321 85.1228356 45.5713811 271.993854 153.556527"></polygon>
                                        <polygon id="Fill-13" points="349.447624 108.505552 162.577086 0.520406467 160.500357 1.72805543 347.371376 109.713201"></polygon>
                                        <polygon id="Fill-14" points="208.113932 190.712148 21.243393 82.7270023 19.1666644 83.9346513 206.037683 191.919797"></polygon>
                                        <polygon id="Fill-14" points="226.113932 179.712148 39.243393 71.7270023 37.1666644 72.9346513 224.037683 180.919797"></polygon>
                                        <polygon id="Fill-15" points="198.693061 196.191723 11.8220428 88.2065774 9.74339439 89.4156674 196.614413 197.400813"></polygon>
                                        <polygon id="Fill-16" points="189.269791 201.672739 2.39877273 93.6875935 0.322524064 94.8957229 187.193063 202.880388"></polygon>
                                        <polygon id="Fill-17" points="217.537202 185.231132 30.6661832 77.2459861 28.5880147 78.4550762 215.458553 186.439741"></polygon>
                                        <polygon id="Fill-18" points="264.647313 157.829413 77.7762941 49.8447483 75.6995655 51.0523972 262.570584 159.037543"></polygon>
                                        <polygon id="Fill-19" points="255.225963 163.309469 68.3549439 55.3243233 66.2786952 56.5319723 253.149234 164.517118"></polygon>
                                        <polygon id="Fill-20" points="245.802693 168.790485 58.9316738 60.8053395 56.8554251 62.0129885 243.725964 169.998134"></polygon>
                                        <polygon id="Fill-21" points="235.381822 174.27006 48.5108035 66.2849145 46.4340749 67.4930439 233.305094 175.477709"></polygon>
                                    </g>
                                    <g id="Group-6" transform="translate(251.517472, 104.004287) scale(1, -1) translate(-251.517472, -104.004287) translate(59.017472, 0.004287)" fill="#BF9168">
                                        <polygon id="Fill-4" points="318.914723 146.387806 132.043705 38.4026605 129.967456 39.6103095 316.837995 147.595455"></polygon>
                                        <polygon id="Fill-5" points="328.335594 140.907751 141.465055 32.9230855 139.388326 34.1307344 326.259345 142.11588"></polygon>
                                        <polygon id="Fill-6" points="337.758864 135.426734 150.888325 27.4420693 148.811596 28.6497182 335.682615 136.634864"></polygon>
                                        <polygon id="Fill-7" points="309.491453 151.868822 122.620434 43.8836767 120.544186 45.0913256 307.414725 153.076471"></polygon>
                                        <polygon id="Fill-8" points="356.603484 124.466143 169.732465 16.4809977 167.656217 17.689127 354.526755 125.673792"></polygon>
                                        <polygon id="Fill-9" points="347.180214 129.947159 160.309195 21.9620139 158.232947 23.1701432 345.103965 131.154808"></polygon>
                                        <polygon id="Fill-11" points="366.024834 118.986568 179.153816 11.0014226 177.077087 12.2090716 363.948106 120.194217"></polygon>
                                        <polygon id="Fill-12" points="300.070103 157.348397 113.199564 49.3637321 111.122836 50.5713811 297.993854 158.556527"></polygon>
                                        <polygon id="Fill-13" points="375.447624 113.505552 188.577086 5.52040647 186.500357 6.72805543 373.371376 114.713201"></polygon>
                                        <polygon id="Fill-14" points="234.113932 195.712148 47.243393 87.7270023 45.1666644 88.9346513 232.037683 196.919797"></polygon>
                                        <polygon id="Fill-14" points="252.113932 184.712148 65.243393 76.7270023 63.1666644 77.9346513 250.037683 185.919797"></polygon>
                                        <polygon id="Fill-15" points="224.693061 201.191723 37.8220428 93.2065774 35.7433944 94.4156674 222.614413 202.400813"></polygon>
                                        <polygon id="Fill-16" points="215.269791 206.672739 28.3987727 98.6875935 26.3225241 99.8957229 213.193063 207.880388"></polygon>
                                        <polygon id="Fill-16" points="189.357232 202.993166 2.48621312 95.0080209 0.40996446 96.2161502 187.280503 204.200815"></polygon>
                                        <polygon id="Fill-17" points="243.537202 190.231132 56.6661832 82.2459861 54.5880147 83.4550762 241.458553 191.439741"></polygon>
                                        <polygon id="Fill-18" points="290.647313 162.829413 103.776294 54.8447483 101.699566 56.0523972 288.570584 164.037543"></polygon>
                                        <polygon id="Fill-19" points="281.225963 168.309469 94.3549439 60.3243233 92.2786952 61.5319723 279.149234 169.517118"></polygon>
                                        <polygon id="Fill-20" points="270.802693 173.790485 83.9316738 65.8053395 81.8554251 67.0129885 268.725964 174.998134"></polygon>
                                        <polygon id="Fill-21" points="261.381822 179.27006 74.5108035 71.2849145 72.4340749 72.4930439 259.305094 180.477709"></polygon>
                                    </g>
                                </g>
                            </g>
                        </g>
                    </g>
                    <g id="Group-29" transform="translate(559.000000, 261.000000)">
                        <g id="wall-separator">
                            <polygon id="Rectangle-3-Copy" stroke="#8AB5FB" stroke-width="0.7" fill="#3479EB" stroke-linecap="round" stroke-linejoin="round" transform="translate(32.091241, 18.891440) scale(-1, 1) translate(-32.091241, -18.891440) " points="3.60390759 37.1414025 64.039961 2.29702719 60.9732599 0.641477287 0.142521147 35.2717106"></polygon>
                            <path d="M39.3021379,130.947606 L60.5785745,143.107376 L93.2328992,161.713805 L93.7390187,108.864596 L64.8403853,64.5094242 L60.5785745,37.1414025 L0.142521147,2.28803066 L0.142521147,49.7540122 L0.142521147,99.3690103 L0.142521147,108.567358 L14.201931,116.6025 L14.201931,52.7528533 L39.3021379,67.2552533 L39.3021379,130.947606 Z" id="Combined-Shape" stroke="#8AB5FB" stroke-width="0.7" fill="#3479EB" stroke-linecap="round" stroke-linejoin="round"></path>
                            <g id="Group-13" transform="translate(10.000000, 47.000000)">
                                <polyline id="Fill-137" fill="#F7ECDE" points="28.5893103 86.4183467 30.9353103 87.7735467 30.9353103 19.9067733 0.915655172 2.07914667 0.915655172 70.42816 3.48910345 71.9159467 3.48910345 6.14592 28.5893103 20.64832 28.5893103 86.4183467"></polyline>
                                <polyline id="Fill-138" fill="#A49C8B" points="3.48910345 71.9159467 4.20193103 71.5217067 4.20193103 6.55776 3.48910345 6.14592 3.48910345 71.9159467"></polyline>
                                <polyline id="Fill-139" fill="#FFFEF7" points="30.9353103 87.7735467 33.1945517 86.4922667 33.1945517 18.7170133 3.0517931 0.885866667 0.915655172 2.07914667 30.9353103 19.9067733 30.9353103 87.7735467"></polyline>
                                <polyline id="Fill-140" fill="#BDB5A4" points="30.9353103 19.9067733 33.1945517 18.7170133 33.1945517 86.4922667 30.9353103 87.7735467 30.9353103 19.9067733"></polyline>
                            </g>
                            <g id="Group-26" transform="translate(60.000000, 35.000000)" stroke="#8AB5FB" stroke-width="0.7" fill="#3479EB" stroke-linecap="round" stroke-linejoin="round">
                                <polygon id="Rectangle-3-Copy" transform="translate(4.398171, 14.950827) scale(-1, 1) translate(-4.398171, -14.950827) " points="8.21776777 2.14140246 3.98725896 29.6476709 0.578574529 27.7039988 4.75531091 0.253983007"></polygon>
                                <polygon id="Rectangle-3-Copy" transform="translate(20.771252, 50.784317) scale(-1, 1) translate(-20.771252, -50.784317) " points="7.85794727 73.8432033 36.73342 29.6476709 33.323375 27.7254298 4.80908334 71.7518352"></polygon>
                                <polygon id="Rectangle-3-Copy" transform="translate(34.918271, 99.193106) scale(-1, 1) translate(-34.918271, -99.193106) " points="36.1519856 73.8432033 36.6297048 126.639078 33.9995847 125.281488 33.2068369 71.7471341"></polygon>
                            </g>
                        </g>
                        <g id="bed" transform="translate(15.000000, 96.000000)">
                            <g id="Group-20">
                                <polygon id="Fill-395" fill="#653625" points="30.1066904 32.8529059 29.4063894 32.4514018 29.3832006 10.1766096 30.0825741 10.5771992"></polygon>
                                <polygon id="Fill-396" fill="#653625" points="29.3618669 2.811432 30.0612404 3.21202157 30.0732986 7.25175702 3.34289388 22.0525472 2.64259286 21.6519577 29.3739251 6.85116745"></polygon>
                                <polygon id="Fill-397" fill="#653625" points="1.61672143 34.5595389 0.916420408 34.1589494 0.868187755 17.1165155 1.56756122 17.5171051"></polygon>
                                <path d="M1.71318673,16.3482615 C1.96640816,16.1232729 2.22055714,15.9056009 2.47563367,15.6925019 L2.55262041,15.6303099 L2.71123163,15.5031822 C2.88561122,15.3605064 3.05999082,15.2178307 3.23529796,15.0806425 C3.39019898,14.9599169 3.5451,14.8465079 3.70092857,14.7312698 L3.87901837,14.5968254 L3.98290408,14.5190854 C4.22592245,14.3425699 4.46986837,14.171542 4.71474184,14.0060015 L4.95405,13.8505215 L5.15811122,13.7179063 C5.24808367,13.6602872 5.33805612,13.5980952 5.42895612,13.5423054 C5.66177143,13.3950567 5.89644184,13.2532955 6.13018469,13.1179365 L16.437371,6.95817425 C16.6145333,6.85756957 16.7916955,6.75970865 16.9679302,6.66550608 C17.1961077,6.54386586 17.4242853,6.42771318 17.6515353,6.31704803 L17.8147843,6.24113722 C17.9863812,6.15882429 18.1579782,6.07742595 18.3295751,6.00151515 C18.55497,5.90182505 28.0568026,1.23468219 28.28127,1.14596715 L28.3628945,1.11578574 C28.5623179,1.03804576 28.7617414,0.963049537 28.9602373,0.893540845 C29.1698639,0.8203738 29.3794904,0.75452346 29.5872618,0.691416884 C29.8766577,0.603616431 30.1076179,0.541424443 30.3376506,0.483805395 C30.5222333,0.438075992 30.7058884,0.39691953 30.8876884,0.359421419 L31.1167935,0.312777428 L31.8161669,0.713366997 L31.5879894,0.760925576 C31.1705914,0.846896854 30.7485557,0.952989068 30.3246649,1.08011681 C29.8803679,1.21547584 29.4722455,1.35723699 29.0631955,1.51637531 C28.6031302,1.69563457 18.9204251,6.44874871 18.5123026,6.64264137 L18.4158373,6.68745619 C17.9900914,6.8932385 17.5634179,7.11639799 17.137672,7.35967841 C16.7601588,7.57369202 6.23592551,13.8743008 5.8593398,14.1184958 L5.65342347,14.2520257 C5.29446122,14.488904 4.93549898,14.7367574 4.57746429,14.9983296 L4.40308469,15.1300302 C4.07009388,15.3778836 3.73895816,15.636712 3.40875,15.9056009 L3.25292143,16.0308995 C2.86242245,16.3537491 2.47470612,16.6884883 2.08977245,17.0396901 L1.56756122,17.5171051 L0.868187755,17.1165155 L1.39039898,16.6381859 C1.4979949,16.5412396 1.60466327,16.4433787 1.71318673,16.3482615 Z" id="Fill-398" fill="#653625"></path>
                                <path d="M30.0732986,7.25175702 L30.0612404,3.21202157 C28.8693373,3.55590668 27.6486802,4.0827094 26.4159649,4.78419844 C25.1795394,5.48843125 4.52830408,16.997619 3.33083571,18.0201285 L3.34289388,22.0525472 L30.0732986,7.25175702 Z M31.5879894,0.760925576 L31.8161669,0.713366997 L31.8653271,31.851432 L30.1066904,32.8529059 L30.0825741,10.5771992 L3.35216939,25.3779894 L3.37535816,33.558065 L1.61672143,34.5595389 L1.56756122,17.5171051 L2.08977245,17.0396901 C2.76344472,16.4251653 4.60024748,14.7982461 7.28515194,13.0786508 C10.9697168,10.718805 15.7464483,8.16347288 16.7020671,7.61959475 C18.0274628,6.86477509 24.5815985,3.4406205 28.5752429,1.71388866 C29.8415442,1.16637801 31.1826953,0.843934097 31.5879894,0.760925576 Z" id="Fill-399" fill="#8F5239"></path>
                                <polygon id="Fill-400" fill="#653625" points="1.6343449 48.6569992 0.934043878 48.2564097 0.913637755 34.1434014 1.61208367 34.1434014"></polygon>
                                <polygon id="Fill-401" fill="#8F5239" points="3.39298163 47.566478 1.6343449 48.6569992 1.61208367 32.8529059 3.37350306 32.8529059"></polygon>
                            </g>
                            <polygon id="Fill-763" fill="#9F312F" points="100.180841 60.4641469 70.2698482 77.3223673 70.2788661 73.2806531 100.189859 56.4224326"></polygon>
                            <polygon id="Fill-764" fill="#642322" points="70.2698482 77.3223673 2.65557516 38.7419261 2.66549481 34.7002118 70.2788661 73.2806531"></polygon>
                            <polygon id="Fill-768" fill="#E4E4DF" points="70.2788661 67.6746939 2.62419643 29.1091429 32.5601934 12.2595079 100.213961 50.8259569"></polygon>
                            <polygon id="Fill-769" fill="#BBBBB6" points="100.20886 56.6942155 70.2698482 73.545551 70.2788661 67.6746939 100.217878 50.8233583"></polygon>
                            <polygon id="Fill-770" fill="#A8A9A5" points="70.2698482 73.545551 2.61427679 34.980898 2.62419643 29.1091429 70.2788661 67.6746939"></polygon>
                            <g id="Group-20" transform="translate(68.535714, 38.612245)">
                                <polygon id="Fill-395" fill="#653625" points="30.1066904 32.8529059 29.4063894 32.4514018 29.3832006 10.1766096 30.0825741 10.5771992"></polygon>
                                <polygon id="Fill-396" fill="#653625" points="29.3618669 2.811432 30.0612404 3.21202157 30.0732986 7.25175702 3.34289388 22.0525472 2.64259286 21.6519577 29.3739251 6.85116745"></polygon>
                                <polygon id="Fill-397" fill="#653625" points="1.61672143 34.5595389 0.916420408 34.1589494 0.868187755 17.1165155 1.56756122 17.5171051"></polygon>
                                <path d="M1.71318673,16.3482615 C1.96640816,16.1232729 2.22055714,15.9056009 2.47563367,15.6925019 L2.55262041,15.6303099 L2.71123163,15.5031822 C2.88561122,15.3605064 3.05999082,15.2178307 3.23529796,15.0806425 C3.39019898,14.9599169 3.5451,14.8465079 3.70092857,14.7312698 L3.87901837,14.5968254 L3.98290408,14.5190854 C4.22592245,14.3425699 4.46986837,14.171542 4.71474184,14.0060015 L4.95405,13.8505215 L5.15811122,13.7179063 C5.24808367,13.6602872 5.33805612,13.5980952 5.42895612,13.5423054 C5.66177143,13.3950567 5.89644184,13.2532955 6.13018469,13.1179365 L16.437371,6.95817425 C16.6145333,6.85756957 16.7916955,6.75970865 16.9679302,6.66550608 C17.1961077,6.54386586 17.4242853,6.42771318 17.6515353,6.31704803 L17.8147843,6.24113722 C17.9863812,6.15882429 18.1579782,6.07742595 18.3295751,6.00151515 C18.55497,5.90182505 28.0568026,1.23468219 28.28127,1.14596715 L28.3628945,1.11578574 C28.5623179,1.03804576 28.7617414,0.963049537 28.9602373,0.893540845 C29.1698639,0.8203738 29.3794904,0.75452346 29.5872618,0.691416884 C29.8766577,0.603616431 30.1076179,0.541424443 30.3376506,0.483805395 C30.5222333,0.438075992 30.7058884,0.39691953 30.8876884,0.359421419 L31.1167935,0.312777428 L31.8161669,0.713366997 L31.5879894,0.760925576 C31.1705914,0.846896854 30.7485557,0.952989068 30.3246649,1.08011681 C29.8803679,1.21547584 29.4722455,1.35723699 29.0631955,1.51637531 C28.6031302,1.69563457 18.9204251,6.44874871 18.5123026,6.64264137 L18.4158373,6.68745619 C17.9900914,6.8932385 17.5634179,7.11639799 17.137672,7.35967841 C16.7601588,7.57369202 6.23592551,13.8743008 5.8593398,14.1184958 L5.65342347,14.2520257 C5.29446122,14.488904 4.93549898,14.7367574 4.57746429,14.9983296 L4.40308469,15.1300302 C4.07009388,15.3778836 3.73895816,15.636712 3.40875,15.9056009 L3.25292143,16.0308995 C2.86242245,16.3537491 2.47470612,16.6884883 2.08977245,17.0396901 L1.56756122,17.5171051 L0.868187755,17.1165155 L1.39039898,16.6381859 C1.4979949,16.5412396 1.60466327,16.4433787 1.71318673,16.3482615 Z" id="Fill-398" fill="#653625"></path>
                                <path d="M30.0732986,7.25175702 L30.0612404,3.21202157 C28.8693373,3.55590668 27.6486802,4.0827094 26.4159649,4.78419844 C25.1795394,5.48843125 4.52830408,16.997619 3.33083571,18.0201285 L3.34289388,22.0525472 L30.0732986,7.25175702 Z M31.5879894,0.760925576 L31.8161669,0.713366997 L31.8653271,31.851432 L30.1066904,32.8529059 L30.0825741,10.5771992 L3.35216939,25.3779894 L3.37535816,33.558065 L1.61672143,34.5595389 L1.56756122,17.5171051 L2.08977245,17.0396901 C2.76344472,16.4251653 4.60024748,14.7982461 7.28515194,13.0786508 C10.9697168,10.718805 15.7464483,8.16347288 16.7020671,7.61959475 C18.0274628,6.86477509 24.5815985,3.4406205 28.5752429,1.71388866 C29.8415442,1.16637801 31.1826953,0.843934097 31.5879894,0.760925576 Z" id="Fill-399" fill="#8F5239"></path>
                                <polygon id="Fill-400" fill="#653625" points="1.6343449 48.6569992 0.934043878 48.2564097 0.913637755 34.1434014 1.61208367 34.1434014"></polygon>
                                <polygon id="Fill-401" fill="#8F5239" points="3.39298163 47.566478 1.6343449 48.6569992 1.61208367 32.8529059 3.37350306 32.8529059"></polygon>
                            </g>
                        </g>
                        <g id="ladder_which-I-made" transform="translate(55.503521, 127.955426) scale(-1, -1) rotate(-150.000000) translate(-55.503521, -127.955426) translate(34.003521, 71.455426)">
                            <g id="Group-11" transform="translate(0.588457, 0.607695)">
                                <polygon id="Fill-144" fill="#955C2E" points="16.4059224 2.09752645 40.6639382 91.6200434 35.5491946 91.7461272 10.3785447 2.28915099"></polygon>
                                <g id="Group-12" transform="translate(4.267949, 12.000000)">
                                    <polygon id="Fill-133" fill="#EFAD76" points="13.5012337 0.944957654 9.85014658 0.933900318 0.964567123 16.2511523 4.67713436 16.2212664"></polygon>
                                    <polygon id="Fill-133" fill="#955C2E" points="13.5012337 0.944957654 14.2830284 2.2990659 5.50634838 17.6575072 4.67713436 16.2212664"></polygon>
                                </g>
                                <g id="Group-12" transform="translate(7.169873, 23.026279)">
                                    <polygon id="Fill-133" fill="#EFAD76" points="13.5012337 0.944957654 9.85014658 0.933900318 0.964567123 16.2511523 4.67713436 16.2212664"></polygon>
                                    <polygon id="Fill-133" fill="#955C2E" points="13.5012337 0.944957654 14.2830284 2.2990659 5.50634838 17.6575072 4.67713436 16.2212664"></polygon>
                                </g>
                                <g id="Group-12" transform="translate(10.071797, 34.052559)">
                                    <polygon id="Fill-133" fill="#EFAD76" points="13.5012337 0.944957654 9.85014658 0.933900318 0.964567123 16.2511523 4.67713436 16.2212664"></polygon>
                                    <polygon id="Fill-133" fill="#955C2E" points="13.5012337 0.944957654 14.2830284 2.2990659 5.50634838 17.6575072 4.67713436 16.2212664"></polygon>
                                </g>
                                <g id="Group-12" transform="translate(13.473721, 45.944864)">
                                    <polygon id="Fill-133" fill="#EFAD76" points="13.5012337 0.944957654 9.85014658 0.933900318 0.964567123 16.2511523 4.67713436 16.2212664"></polygon>
                                    <polygon id="Fill-133" fill="#955C2E" points="13.5012337 0.944957654 14.2830284 2.2990659 5.50634838 17.6575072 4.67713436 16.2212664"></polygon>
                                </g>
                                <g id="Group-12" transform="translate(15.875644, 56.105118)">
                                    <polygon id="Fill-133" fill="#EFAD76" points="13.5012337 0.944957654 9.85014658 0.933900318 0.964567123 16.2511523 4.67713436 16.2212664"></polygon>
                                    <polygon id="Fill-133" fill="#955C2E" points="13.5012337 0.944957654 14.2830284 2.2990659 5.50634838 17.6575072 4.67713436 16.2212664"></polygon>
                                </g>
                                <g id="Group-12" transform="translate(18.777568, 67.131397)">
                                    <polygon id="Fill-133" fill="#EFAD76" points="13.5012337 0.944957654 9.85014658 0.933900318 0.964567123 16.2511523 4.67713436 16.2212664"></polygon>
                                    <polygon id="Fill-133" fill="#955C2E" points="13.5012337 0.944957654 14.2830284 2.2990659 5.50634838 17.6575072 4.67713436 16.2212664"></polygon>
                                </g>
                                <g id="Group-12" transform="translate(22.179492, 79.023702)">
                                    <polygon id="Fill-133" fill="#EFAD76" points="13.5012337 0.944957654 9.85014658 0.933900318 0.964567123 16.2511523 4.67713436 16.2212664"></polygon>
                                    <polygon id="Fill-133" fill="#955C2E" points="13.5012337 0.944957654 14.2830284 2.2990659 5.50634838 17.6575072 4.67713436 16.2212664"></polygon>
                                </g>
                                <g transform="translate(0.411543, 19.392305)" id="Fill-144">
                                    <polygon fill="#955C2E" points="6.40592239 2.09752645 30.6639382 91.6200434 25.5491946 91.7461272 0.37854472 2.28915099"></polygon>
                                    <polygon fill="#EFAD76" points="6.40592239 2.09752645 30.6639382 91.6200434 31.8067328 89.3877753 7.29830189 0.525092757"></polygon>
                                    <polygon fill="#EFAD76" points="6.40592239 2.09752645 0.440936321 2.29378418 1.54222145 0.695371406 7.29830189 0.525092757"></polygon>
                                </g>
                                <polygon id="Fill-144" fill="#EFAD76" points="16.4059224 2.09752645 40.6639382 91.6200434 41.8067328 89.3877753 17.2983019 0.525092757"></polygon>
                                <polygon id="Fill-144" fill="#EFAD76" points="16.4059224 2.09752645 10.4409363 2.29378418 11.5422214 0.695371406 17.2983019 0.525092757"></polygon>
                            </g>
                        </g>
                        <g id="Group-5" transform="translate(54.500000, 75.000000) scale(-1, 1) translate(-54.500000, -75.000000) translate(26.000000, 57.000000)">
                            <polygon id="Fill-626" fill="#4F6A6C" points="3.90375 21.49 35.3235 3.34975 33.0778971 1.9638584 3.8985 19.1935"></polygon>
                            <polygon id="Fill-625" fill="#719A9F" points="31.3634904 5.63950634 53.0158721 19.1196347 53.6179558 18.1935 54.7137032 17.4963878 54.1560918 17.4963878 31.3634904 3.66932577"></polygon>
                            <polyline id="Fill-621" fill="#7EADB3" points="52.395 15.039 54.35325 16.176 56.32275 15.039 54.36525 13.90125 52.395 15.039"></polyline>
                            <polyline id="Fill-618" fill="#7EADB3" points="22.93425 32.08275 24.89175 33.21975 26.862 32.08275 24.9045 30.945 22.93425 32.08275"></polyline>
                            <polyline id="Fill-615" fill="#7EADB3" points="0.561 18.633 2.5185 19.77075 4.488 18.63375 2.5305 17.496 0.561 18.633"></polyline>
                            <path d="M0.561,18.5925 L31.98,0.45225 L56.31825,15.05325 L24.8985,33.1935 L0.561,18.5925 Z M6,18.4052686 L25.6420645,30 L51,15.5947314 L31.3573302,4 L6,18.4052686 Z" id="Combined-Shape" fill="#94CDD1"></path>
                            <polyline id="Fill-625" fill="#719A9F" points="0.561 18.5925 0.56625 20.889 24.90375 35.49 24.8985 33.1935 0.561 18.5925"></polyline>
                            <polygon id="Fill-626" fill="#4F6A6C" points="24.90375 35.49 56.3235 17.34975 56.31825 15.05325 24.8985 33.1935"></polygon>
                        </g>
                    </g>
                    <polygon id="Rectangle-3-Copy" stroke="#8AB5FB" stroke-width="0.7" fill="#FFFFFF" stroke-linecap="round" stroke-linejoin="round" transform="translate(472.970103, 279.278649) scale(-1, 1) translate(-472.970103, -279.278649) " points="525.627217 363.674143 528.832578 361.43039 528.832578 259.499916 417.107628 194.883155 417.107628 303.077002"></polygon>
                    <g id="Container" transform="translate(474.000000, 245.000000)" stroke="#FFEAB5" stroke-width="0.7" stroke-linecap="round" stroke-linejoin="round">
                        <polygon id="Rectangle-3" fill="#FBD26E" points="3.25801048 50.8449369 88.4330882 2.08302385 85.7936979 0.412763328 0.028286573 48.6951559"></polygon>
                        <polygon id="Path-8" fill="#D9AE41" points="2.29793908 50.5833362 2.29793908 152.274753 15.6238808 159.130645 21.7890781 163.480534 88.4330882 127.098695 88.4330882 2.2108823"></polygon>
                    </g>
                    <polygon id="Path-8-Copy" stroke="#8AB5FB" stroke-width="0.7" fill="#295BAD" stroke-linecap="round" stroke-linejoin="round" transform="translate(515.867052, 367.383742) scale(-1, 1) translate(-515.867052, -367.383742) " points="558.394871 292.53592 558.394871 326.601721 548.304354 358.804548 548.304354 376.369727 529.932083 388.477208 428.371678 463.192027 412.199639 479.687507 564.589678 391.903518 619.534465 360.265177 619.534465 255.079976"></polygon>
                    <polygon id="Rectangle-3-Copy" stroke="#8AB5FB" stroke-width="0.7" fill="#3479EB" stroke-linecap="round" stroke-linejoin="round" transform="translate(517.497741, 366.296990) scale(-1, 1) translate(-517.497741, -366.296990) " points="415.45104 479.647463 431.783238 463.035227 551.790514 376.625469 551.790514 358.456753 561.956623 326.406127 561.956623 292.577247 622.795843 255.079976 618.548513 252.946516 558.216313 290.176947 558.216313 324.741124 548.04063 357.188938 548.04063 374.842916 428.530669 461.059403 412.199639 477.467476"></polygon>
                    <polygon id="Rectangle-3-Copy" stroke="#8AB5FB" stroke-width="0.7" fill="#3479EB" stroke-linecap="round" stroke-linejoin="round" transform="translate(470.555686, 224.843378) scale(-1, 1) translate(-470.555686, -224.843378) " points="418.435618 190.833998 528.911733 255.079976 522.43988 258.852757 412.199639 194.558263"></polygon>
                    <g id="top-window-unit" transform="translate(508.000000, 335.000000)">
                        <g id="windows" transform="translate(0.000000, 4.000000)">
                            <polygon id="Rectangle-3-Copy" stroke="#8AB5FB" stroke-width="0.7" fill="#587A80" stroke-linecap="round" stroke-linejoin="round" transform="translate(22.856385, 69.227481) scale(-1, 1) translate(-22.856385, -69.227481) " points="38.688228 74.4836805 37.7127692 46 7.02454115 63.3586014 7.02454115 92.4549623"></polygon>
                            <path d="M0.1185,0.127578947 L0.1185,77.7965789 L40.9175,100.558789 L40.9175,22.8897895 L0.1185,0.127578947 Z M4.315,7.15505263 L36.7155,25.2340526 L36.7155,93.5313158 L4.315,75.4523158 L4.315,7.15505263 L4.315,7.15505263 Z" id="Fill-719" fill="#F3F6F6"></path>
                            <polyline id="Fill-720" fill="#BCD3D3" points="4.315 75.4523158 36.7155 93.5313158 36.7155 88.8481053 8.517 73.1133684 4.315 75.4523158"></polyline>
                            <polyline id="Fill-721" fill="#7CA3AA" points="4.315 7.15505263 4.315 75.4523158 8.517 73.1133684 8.517 9.494 4.315 7.15505263"></polyline>
                            <polygon id="Fill-726" fill="#BCD3D3" points="8.517 24.9322105 5.987 26.3249474 36.7155 43.4683684 36.7155 40.6722632"></polygon>
                            <g id="Group-2" transform="translate(24.000000, 17.400024)">
                                <polygon id="Rectangle-5" fill="#7CA3AA" points="2 1.83252203 4 2.93632734 4 18.6612949 2 20.1675389"></polygon>
                                <polygon id="Rectangle-5" fill="#F3F6F6" points="0 0.612436443 2 1.62534405 2 20.1902787 0 19.1793159"></polygon>
                            </g>
                            <g id="Group-2" transform="translate(14.000000, 11.900024)">
                                <polygon id="Rectangle-5" fill="#7CA3AA" points="2 1.76443748 4 2.84371378 4 18.5232269 2 20.0183267"></polygon>
                                <polygon id="Rectangle-5" fill="#F3F6F6" points="0 0.575924856 2 1.58133833 2 20.0408983 0 19.0374152"></polygon>
                            </g>
                            <polyline id="Fill-727" fill="#F3F6F6" points="36.7155 43.4683684 5.987 26.3249474 5.987 28.8180526 36.7155 45.9667895 36.7155 43.4683684"></polyline>
                            <g id="Group-3" transform="translate(5.000000, 41.799988)">
                                <polyline id="Fill-726" fill="#BCD3D3" points="31.7155 16.6722632 3.517 0.932210526 0.987 2.32494737 31.7155 19.4683684 31.7155 16.6722632"></polyline>
                                <polyline id="Fill-727" fill="#F3F6F6" points="31.7155 19.4683684 0.987 2.32494737 0.987 4.81805263 31.7155 21.9667895 31.7155 19.4683684"></polyline>
                            </g>
                            <g id="Group-2" transform="translate(24.000000, 37.663854)">
                                <polygon id="Rectangle-5" fill="#7CA3AA" points="2 2.32241745 4 3.43629449 4 15.9079606 2 17.2374833"></polygon>
                                <polygon id="Rectangle-5" fill="#F3F6F6" points="0 0.540581839 2 1.43464924 2 17.1725477 0 16.0585067"></polygon>
                            </g>
                            <g id="Group-2" transform="translate(14.000000, 32.000000)">
                                <polygon id="Rectangle-5" fill="#7CA3AA" points="2 2.32241745 4 3.43629449 4 16.0098343 2 17.1864675"></polygon>
                                <polygon id="Rectangle-5" fill="#F3F6F6" points="0 0.540581839 2 1.43464924 2 17.1725477 0 16.0585067"></polygon>
                            </g>
                        </g>
                        <path d="M16.4760689,13.2595388 L45.0155728,28.9713818 L45.0498874,28.8705397 L53.9933192,33.7566882 L59.8895421,30.464245 L27.4669623,12.5727439 L6.34946667,0.730793582 L1.4281909e-12,4.18897444 L12.9261227,11.3051882 L12.9121146,11.3124105 L16.4760689,13.2595388 Z" id="Combined-Shape" stroke="#8AB5FB" stroke-width="0.7" fill="#295BAD" stroke-linecap="round" stroke-linejoin="round"></path>
                        <polygon id="Rectangle-3-Copy" stroke="#8AB5FB" stroke-width="0.7" fill="#587A80" stroke-linecap="round" stroke-linejoin="round" transform="translate(47.305344, 68.758933) scale(-1, 1) translate(-47.305344, -68.758933) " points="53.6931807 104.245415 53.6931807 26.6052019 40.9175078 33.7448426 40.9175078 110.912664"></polygon>
                        <polygon id="Rectangle-3-Copy" stroke="#8AB5FB" stroke-width="0.7" fill="#3479EB" stroke-linecap="round" stroke-linejoin="round" transform="translate(56.904734, 70.860603) scale(-1, 1) translate(-56.904734, -70.860603) " points="59.8919595 111.245415 59.8919595 33.6052019 53.9175078 30.475792 53.9175078 107.643614"></polygon>
                        <path d="M40.3038017,104.242797 L53.9175,111.977865 L53.9175,33.8897895 L40.5496667,26.9008133 L40.3038017,104.242797 Z M40.5496667,31.3516968 L49.7155,36.2340526 L49.7155,104.531316 L40.5496667,99.4169163 L40.5496667,31.3516968 Z" id="Fill-719" fill="#F3F6F6"></path>
                    </g>
                    <g id="Group-10" transform="translate(507.500000, 465.500000) scale(-1, 1) translate(-507.500000, -465.500000) translate(473.000000, 416.000000)">
                        <polyline id="Fill-127" fill="#EFAD76" points="7.23797222 18.7646516 23.9909167 10.1101355 22.9041667 8.01005806 6.16847222 16.6824581 7.23797222 18.7646516"></polyline>
                        <polyline id="Fill-128" fill="#955C2E" points="7.2565 18.7474065 23.9909167 10.1101355 25.07575 12.192329 8.34388889 20.8289613 7.2565 18.7474065"></polyline>
                        <polyline id="Fill-129" fill="#EFAD76" points="12.1631667 28.8856452 29.16975 20.0682581 28.0836389 17.9860645 11.0949444 26.8034516 12.1631667 28.8856452"></polyline>
                        <polyline id="Fill-130" fill="#955C2E" points="12.1631667 28.8856452 29.16975 20.0682581 30.2558611 22.1504516 13.2511944 30.9672 12.1631667 28.8856452"></polyline>
                        <polyline id="Fill-131" fill="#EFAD76" points="17.3432778 38.8616516 34.3498611 30.0442645 33.2624722 27.962071 16.2571667 36.7794581 17.3432778 38.8616516"></polyline>
                        <polyline id="Fill-132" fill="#955C2E" points="17.3432778 38.8616516 34.3498611 30.0442645 35.4187222 32.1264581 18.4313056 40.9438452 17.3432778 38.8616516"></polyline>
                        <polyline id="Fill-133" fill="#EFAD76" points="22.5233889 48.8376581 39.5114444 40.0209097 38.4425833 37.9387161 21.4372778 46.7369419 22.5233889 48.8376581"></polyline>
                        <polyline id="Fill-134" fill="#955C2E" points="22.5233889 48.8376581 39.5114444 40.0209097 40.5975556 42.1018258 23.6101389 50.9192129 22.5233889 48.8376581"></polyline>
                        <polyline id="Fill-135" fill="#EFAD76" points="27.7028611 58.7951419 44.6902778 49.9969161 43.6041667 47.8955613 26.61675 56.7129484 27.7028611 58.7951419"></polyline>
                        <polyline id="Fill-136" fill="#955C2E" points="27.7028611 58.7951419 44.6902778 49.9969161 45.7770278 52.0791097 28.79025 60.8958581 27.7028611 58.7951419"></polyline>
                        <polyline id="Fill-137" fill="#EFAD76" points="32.8638056 68.7717871 49.8703889 59.9550387 48.783 57.8728452 31.7962222 66.6902323 32.8638056 68.7717871"></polyline>
                        <polyline id="Fill-138" fill="#955C2E" points="32.8638056 68.7717871 49.8703889 59.9550387 50.9577778 62.0551161 33.9518333 70.8533419 32.8638056 68.7717871"></polyline>
                        <polyline id="Fill-139" fill="#EFAD76" points="37.9531944 78.2412968 54.94125 69.423271 53.8545 67.3410774 36.8670833 76.1584645 37.9531944 78.2412968"></polyline>
                        <polyline id="Fill-140" fill="#955C2E" points="37.9531944 78.2412968 54.94125 69.423271 56.0273611 71.5061032 39.0220556 80.3234903 37.9531944 78.2412968"></polyline>
                        <polyline id="Fill-141" fill="#EFAD76" points="43.2419167 88.4338258 60.2286944 79.6164387 59.1611111 77.5348839 42.1551667 86.3516323 43.2419167 88.4338258"></polyline>
                        <polyline id="Fill-142" fill="#955C2E" points="43.2419167 88.4338258 60.2286944 79.6164387 61.3167222 81.7171548 44.3286667 90.5345419 43.2419167 88.4338258"></polyline>
                        <polyline id="Fill-143" fill="#EFAD76" points="4.77569444 13.1159032 4.84852778 11.7580065 2.43927778 13.0066839 2.42075 13.6236774 2.69291667 14.2023484 47.081 98.5733419 48.5293611 96.2925097 4.77569444 13.1159032"></polyline>
                        <polyline id="Fill-144" fill="#955C2E" points="0.120111111 14.3294516 0.174416667 11.5044387 2.43927778 13.0066839 2.43927778 13.6594452 47.081 98.5733419 44.3829722 98.4462387 0.120111111 14.3294516"></polyline>
                        <polyline id="Fill-145" fill="#EFAD76" points="25.2763611 0.71343871 22.885 1.98127742 22.8498611 2.95914194 23.2121111 3.64703226 67.0750278 88.1994194 68.5419167 85.9179484 25.2035278 2.43412258 25.2763611 0.71343871"></polyline>
                        <polyline id="Fill-146" fill="#955C2E" points="20.4955556 3.48352258 20.6220556 0.496277419 22.885 1.98127742 22.8498611 2.95914194 67.0750278 88.1994194 64.3763611 88.0716774 20.4955556 3.48352258"></polyline>
                    </g>
                </g>
            </g>
        </g>
    </g>
</svg>