<?xml version="1.0" encoding="UTF-8"?>
<svg width="507px" height="406px" viewBox="0 0 507 406" version="1.1" xmlns="http://www.w3.org/2000/svg" xmlns:xlink="http://www.w3.org/1999/xlink">
    <!-- Generator: Sketch 47.1 (45422) - http://www.bohemiancoding.com/sketch -->
    <title>top floor copy</title>
    <desc>Created with Sketch.</desc>
    <defs>
        <radialGradient cx="64.1706639%" cy="67.7082709%" fx="64.1706639%" fy="67.7082709%" r="48.9512664%" gradientTransform="translate(0.641707,0.677083),scale(0.952857,1.000000),rotate(98.414915),translate(-0.641707,-0.677083)" id="radialGradient-1">
            <stop stop-color="#D6E0E1" offset="0%"></stop>
            <stop stop-color="#696480" offset="100%"></stop>
        </radialGradient>
        <radialGradient cx="52.3703039%" cy="38.513804%" fx="52.3703039%" fy="38.513804%" r="63.4015182%" gradientTransform="translate(0.523703,0.385138),scale(0.567028,1.000000),rotate(90.000000),translate(-0.523703,-0.385138)" id="radialGradient-2">
            <stop stop-color="#8EA6BA" offset="0%"></stop>
            <stop stop-color="#2D4564" offset="100%"></stop>
        </radialGradient>
        <radialGradient cx="0%" cy="73.0146707%" fx="0%" fy="73.0146707%" r="71.3543465%" gradientTransform="translate(0.000000,0.730147),scale(0.833289,1.000000),rotate(94.390090),translate(-0.000000,-0.730147)" id="radialGradient-3">
            <stop stop-color="#0D2132" offset="0%"></stop>
            <stop stop-color="#567491" offset="100%"></stop>
        </radialGradient>
        <radialGradient cx="76.7317951%" cy="0%" fx="76.7317951%" fy="0%" r="63.4015182%" gradientTransform="translate(0.767318,0.000000),scale(0.483907,1.000000),rotate(90.000000),translate(-0.767318,-0.000000)" id="radialGradient-4">
            <stop stop-color="#0D2132" offset="0%"></stop>
            <stop stop-color="#2D4564" offset="100%"></stop>
        </radialGradient>
        <linearGradient x1="107.422473%" y1="2.36062504%" x2="15.040613%" y2="99.3325433%" id="linearGradient-5">
            <stop stop-color="#77465C" offset="0%"></stop>
            <stop stop-color="#2D1D48" offset="100%"></stop>
        </linearGradient>
        <linearGradient x1="74.6708726%" y1="20.6485151%" x2="21.9852629%" y2="77.0254311%" id="linearGradient-6">
            <stop stop-color="#341D1D" offset="0%"></stop>
            <stop stop-color="#120A0A" offset="100%"></stop>
        </linearGradient>
        <linearGradient x1="50%" y1="1.48078763%" x2="62.3280374%" y2="65.2238451%" id="linearGradient-7">
            <stop stop-color="#361E1E" offset="0%"></stop>
            <stop stop-color="#040203" offset="100%"></stop>
        </linearGradient>
        <linearGradient x1="50%" y1="0%" x2="50%" y2="99.5495855%" id="linearGradient-8">
            <stop stop-color="#74445A" offset="0%"></stop>
            <stop stop-color="#2A1B47" offset="100%"></stop>
        </linearGradient>
        <linearGradient x1="78.3764182%" y1="8.34701129%" x2="19.0250858%" y2="89.5475103%" id="linearGradient-9">
            <stop stop-color="#371F1F" offset="0%"></stop>
            <stop stop-color="#0A0506" offset="100%"></stop>
        </linearGradient>
        <linearGradient x1="50%" y1="2.67259247%" x2="50%" y2="47.1990587%" id="linearGradient-10">
            <stop stop-color="#2D1918" offset="0%"></stop>
            <stop stop-color="#040404" offset="100%"></stop>
        </linearGradient>
        <linearGradient x1="50%" y1="1.16191008%" x2="50%" y2="100%" id="linearGradient-11">
            <stop stop-color="#98CEE0" offset="0%"></stop>
            <stop stop-color="#2D3C4C" offset="100%"></stop>
        </linearGradient>
        <radialGradient cx="50%" cy="27.2439296%" fx="50%" fy="27.2439296%" r="97.3473374%" gradientTransform="translate(0.500000,0.272439),scale(0.695091,1.000000),rotate(90.000000),translate(-0.500000,-0.272439)" id="radialGradient-12">
            <stop stop-color="#556F8D" offset="0%"></stop>
            <stop stop-color="#283543" offset="100%"></stop>
        </radialGradient>
        <linearGradient x1="48.5432111%" y1="-16.2257748%" x2="66.4296708%" y2="63.9861126%" id="linearGradient-13">
            <stop stop-color="#2C1817" offset="0%"></stop>
            <stop stop-color="#040203" offset="100%"></stop>
        </linearGradient>
        <path d="M15.2336377,7.14857143 L15.2371427,20.0524338 L0.544152871,28.541561 L0.537142857,15.6376986 C2.43849329,8.09218579 4.97134516,3.42848036 8.13569846,1.64658237 C11.3000518,-0.135315617 13.6660315,1.69868073 15.2336377,7.14857143 Z" id="path-14"></path>
        <linearGradient x1="50%" y1="0%" x2="50%" y2="100%" id="linearGradient-16">
            <stop stop-color="#6C3E53" offset="0%"></stop>
            <stop stop-color="#321F49" offset="100%"></stop>
        </linearGradient>
    </defs>
    <g id="Page-1" stroke="none" stroke-width="1" fill="none" fill-rule="evenodd">
        <g id="Grids" transform="translate(-1858.000000, -230.000000)">
            <g id="Group-26" transform="translate(1776.000000, 138.000000)">
                <g id="top-floor-copy" transform="translate(72.000000, 92.000000)">
                    <polygon id="back-face" fill="url(#radialGradient-1)" points="56.2913043 211.10014 152.890594 34.6352961 180.25523 19.3591671 275.713583 89.0123092 305.395772 71.9058882 305.395772 129.734242 33.0127668 287.488971 24 287.488971 24 228.974812"></polygon>
                    <g id="floor-1" transform="translate(24.000000, 118.000000)">
                        <polygon id="Rectangle-6" fill="url(#radialGradient-2)" points="0.693837412 169.693817 276.442669 13 485.046419 124.260542 202.58285 287.641499"></polygon>
                        <polygon id="Mask-Copy" fill="url(#radialGradient-3)" points="132 86.8807869 293.224264 0 359.673553 43.7973476 102.068925 214.658993"></polygon>
                        <polygon id="Mask-Copy-7" fill="url(#radialGradient-4)" opacity="0.300000012" points="132 246.880787 293.224264 160 359.673553 203.797348 198.025837 270.172739"></polygon>
                        <g id="Group" transform="translate(232.344282, 129.049207) rotate(1.500000) translate(-232.344282, -129.049207) translate(25.344282, 5.549207)">
                            <g id="Group-6" transform="translate(206.669177, 123.772368) scale(1, -1) translate(-206.669177, -123.772368) translate(0.169177, 0.772368)" fill="#0A0607">
                                <polygon id="Fill-21" points="277.765471 244.665562 1.20927637 83.9902337 0.442929819 84.448482 276.999124 245.12333"></polygon>
                                <polygon id="Fill-21-Copy" points="278.02724 234.668989 1.47104586 73.9936604 0.704699302 74.4519088 277.260894 235.126757"></polygon>
                                <polygon id="Fill-21-Copy-3" points="298.046564 234.192871 21.4903693 73.5175421 20.7240227 73.9757904 297.280217 234.650639"></polygon>
                                <polygon id="Fill-21-Copy-2" points="298.308333 224.196297 21.7521388 63.5209688 20.9857922 63.9792172 297.541987 224.654065"></polygon>
                                <polygon id="Fill-21-Copy-7" points="328.140991 230.97955 51.5847968 70.3042212 50.8184503 70.7624696 327.374645 231.437318"></polygon>
                                <polygon id="Fill-21-Copy-6" points="328.402761 220.982976 51.8465663 60.307648 51.0802198 60.7658963 327.636414 221.440744"></polygon>
                                <polygon id="Fill-21-Copy-5" points="348.422084 220.506858 71.8658898 59.8315296 71.0995432 60.2897779 347.655738 220.964626"></polygon>
                                <polygon id="Fill-21-Copy-4" points="348.683854 210.510285 72.1276593 49.8349564 71.3613127 50.2932047 347.917507 210.968053"></polygon>
                                <polygon id="Fill-21-Copy-11" points="368.677 211.033824 92.1208058 50.3584953 91.3544592 50.8167437 367.910654 211.491592"></polygon>
                                <polygon id="Fill-21-Copy-10" points="368.93877 201.037251 92.3825752 40.3619221 91.6162287 40.8201704 368.172423 201.495019"></polygon>
                                <polygon id="Fill-21-Copy-9" points="388.958093 200.561132 112.401899 39.8858037 111.635552 40.344052 388.191747 201.0189"></polygon>
                                <polygon id="Fill-21-Copy-8" points="389.219863 190.564559 112.663668 29.8892305 111.897322 30.3474788 388.453516 191.022327"></polygon>
                                <polygon id="Fill-21-Copy-15" points="392.454427 181.646174 115.898233 20.9708454 115.131886 21.4290937 391.688081 182.103942"></polygon>
                                <polygon id="Fill-21-Copy-14" points="392.716197 171.649601 116.160002 10.9742721 115.393656 11.4325205 391.94985 172.107369"></polygon>
                                <polygon id="Fill-21-Copy-13" points="412.73552 171.173482 136.179326 10.4981538 135.412979 10.9564021 411.969174 171.63125"></polygon>
                                <polygon id="Fill-21-Copy-12" points="412.99729 161.176909 136.441095 0.501580537 135.674749 0.959828862 412.230943 161.634677"></polygon>
                            </g>
                            <polygon id="Rectangle-6-Copy" fill="#040303" opacity="0.699999988" points="159.9586 164.010425 209.774915 135.686369 247.365113 155.735413 196.373882 185.273541"></polygon>
                            <polygon id="Rectangle-6-Copy-2" fill="#040303" opacity="0.699999988" points="216.05563 136.613253 235.883416 124.820519 252.153984 132.748485 231.524341 144.698795"></polygon>
                        </g>
                    </g>
                    <g id="table-and-chair" transform="translate(225.000000, 216.000000)">
                        <g id="chair" transform="translate(40.685393, 0.000000)">
                            <polyline id="Fill-599" fill="#B0612F" points="2.50494382 27.6517692 2.5408427 42.7394135 4.53682022 41.5869904 4.47619101 26.4243269 2.50494382 27.6517692"></polyline>
                            <polyline id="Fill-600" fill="#D8743E" points="2.5408427 42.7394135 0.497 41.5510769 0.461101124 26.4634327 2.50494382 27.6517692 2.5408427 42.7394135"></polyline>
                            <polyline id="Fill-601" fill="#B0612F" points="15.3862584 35.1951923 15.4221573 50.2828365 17.4173371 49.1304135 17.388618 36.3380385 27.5160899 30.4881346 27.544809 43.2805096 29.5407865 42.1280865 29.5048876 27.0404423 15.3862584 35.1951923"></polyline>
                            <polyline id="Fill-602" fill="#D8743E" points="0.461101124 26.4634327 15.3862584 35.1951923 15.3862584 37.2941346 0.461101124 28.5631731 0.461101124 26.4634327"></polyline>
                            <polyline id="Fill-603" fill="#CC7772" points="27.5160899 30.4881346 25.4730449 29.2997981 25.501764 42.0929712 27.544809 43.2805096 27.5160899 30.4881346"></polyline>
                            <polyline id="Fill-604" fill="#7D384D" points="15.3862584 35.1951923 15.4221573 50.2828365 17.4173371 49.1304135 17.388618 36.3380385 27.5160899 30.4881346 27.544809 43.2805096 29.5407865 42.1280865 29.5048876 27.0404423 15.3862584 35.1951923"></polyline>
                            <polyline id="Fill-605" fill="#CC7772" points="15.3862584 35.1951923 13.3432135 34.0068558 13.3791124 49.0952981 15.4221573 50.2828365 15.3862584 35.1951923"></polyline>
                            <polyline id="Fill-606" fill="#A16074" points="29.5048876 27.0404423 14.5797303 18.3086827 0.461101124 26.4634327 15.3862584 35.1951923 29.5048876 27.0404423"></polyline>
                            <polyline id="Fill-607" fill="#CC7772" points="12.6324157 1.69192308 12.5933258 19.4555192 14.6220112 20.6350769 14.6618989 2.8635 12.6324157 1.69192308"></polyline>
                            <polyline id="Fill-608" fill="#7D384D" points="14.6220112 20.6350769 16.5988427 19.4786635 16.6379326 1.71426923 14.6618989 2.8635 14.6220112 20.6350769"></polyline>
                            <polyline id="Fill-609" fill="#D87D45" points="14.6618989 2.8635 16.6379326 1.71426923 14.6092472 0.542692308 12.6324157 1.69192308 14.6618989 2.8635"></polyline>
                            <polyline id="Fill-610" fill="#CC7772" points="25.5352697 9.24971154 25.495382 27.0133077 27.5248652 28.1856827 27.5647528 10.4220865 25.5352697 9.24971154"></polyline>
                            <polyline id="Fill-611" fill="#7D384D" points="27.5248652 28.1856827 29.5048876 27.0404423 29.5407865 9.27285577 27.5647528 10.4220865 27.5248652 28.1856827"></polyline>
                            <polyline id="Fill-612" fill="#D87D45" points="27.5647528 10.4220865 29.5407865 9.27285577 27.5113034 8.10048077 25.5352697 9.24971154 27.5647528 10.4220865"></polyline>
                            <polyline id="Fill-613" fill="#A16074" points="29.5048876 9.24651923 14.5741461 0.517153846 12.5973146 1.66638462 27.5288539 10.39575 29.5048876 9.24651923"></polyline>
                            <polyline id="Fill-614" fill="#CC7772" points="12.5973146 9.91450962 27.5288539 18.643875 27.5288539 10.39575 12.5973146 1.66638462 12.5973146 9.91450962"></polyline>
                        </g>
                        <g id="table" transform="translate(0.000000, 17.557692)">
                            <polyline id="Fill-619" fill="#CC7772" points="26.9623235 37.7329509 26.9632052 63.3875116 29.2645121 64.7256346 29.2636304 39.0701918 26.9623235 37.7329509"></polyline>
                            <polyline id="Fill-620" fill="#772B3D" points="29.2636304 39.0701918 29.2645121 64.7256346 31.5808084 63.3883937 31.5799267 37.7329509 29.2636304 39.0701918"></polyline>
                            <polyline id="Fill-621" fill="#7EADB3" points="61.5974335 17.6875688 63.8996221 19.0248097 66.2150367 17.6875688 63.9137297 16.3494459 61.5974335 17.6875688"></polyline>
                            <polyline id="Fill-622" fill="#CC7772" points="61.5974335 17.6875688 61.5983152 43.3421296 63.9005038 44.6802525 63.8996221 19.0248097 61.5974335 17.6875688"></polyline>
                            <polyline id="Fill-623" fill="#772B3D" points="63.8996221 19.0248097 63.9005038 44.6802525 66.2159184 43.3430116 66.2150367 17.6875688 63.8996221 19.0248097"></polyline>
                            <polyline id="Fill-618" fill="#7EADB3" points="26.9623235 37.7329509 29.2636304 39.0701918 31.5799267 37.7329509 29.2786198 36.3948279 26.9623235 37.7329509"></polyline>
                            <polyline id="Fill-616" fill="#CC7772" points="0.659531638 21.9145202 0.660413365 47.5699631 2.96083856 48.908086 2.96083856 23.2526432 0.659531638 21.9145202"></polyline>
                            <polyline id="Fill-617" fill="#772B3D" points="2.96083856 23.2526432 2.96083856 48.908086 5.27713483 47.5699631 5.2762531 21.9154023 2.96083856 23.2526432"></polyline>
                            <polyline id="Fill-615" fill="#7EADB3" points="0.659531638 21.9145202 2.96083856 23.2526432 5.2762531 21.9154023 2.97494619 20.5772794 0.659531638 21.9145202"></polyline>
                            <polyline id="Fill-624" fill="#FABF84" points="0.659531638 21.8668877 29.2715659 39.0393188 66.2097463 17.7043284 37.5968303 0.531897267 0.659531638 21.8668877"></polyline>
                            <polyline id="Fill-625" fill="#CC7772" points="0.659531638 21.8668877 0.665703726 24.567832 29.277738 41.7402632 29.2715659 39.0393188 0.659531638 21.8668877"></polyline>
                            <polyline id="Fill-626" fill="#772B3D" points="29.2715659 39.0393188 29.277738 41.7402632 66.2159184 20.4052728 66.2097463 17.7043284 29.2715659 39.0393188"></polyline>
                        </g>
                    </g>
                    <g id="Container" transform="translate(204.000000, 126.000000)">
                        <polygon id="Rectangle-3" fill="url(#linearGradient-5)" points="4.25801048 86.8449369 155.665915 2.71664308 151.624803 0.586035748 0.410658102 84.6572358"></polygon>
                        <polygon id="Path-8" fill="url(#linearGradient-6)" points="3.29793908 86.5833362 3.41447298 93.6600812 158.049749 9.12547676 158.049749 1.9666129"></polygon>
                    </g>
                    <g id="Container" transform="translate(215.000000, 155.000000)">
                        <polygon id="Rectangle-3" fill="url(#linearGradient-5)" points="4.25801048 86.8449369 155.665915 2.71664308 151.624803 0.586035748 0.410658102 84.6572358"></polygon>
                        <polygon id="Path-8" fill="url(#linearGradient-6)" points="3.29793908 86.5833362 3.41447298 93.6600812 158.049749 9.12547676 158.049749 1.9666129"></polygon>
                    </g>
                    <g id="Container" transform="translate(188.000000, 100.000000)">
                        <polygon id="Rectangle-3" fill="url(#linearGradient-5)" points="4.25801048 87.8449369 157.954667 3.04024789 153.913555 0.909640565 0.410658102 85.6572358"></polygon>
                        <polygon id="Path-8" fill="url(#linearGradient-6)" points="3.29793908 87.5833362 3.41447298 94.6600812 158.049749 10.1254768 158.049749 2.9666129"></polygon>
                    </g>
                    <g id="roof-slant" transform="translate(117.000000, 295.000000)">
                        <polygon id="Path-8-Copy" fill="url(#linearGradient-7)" transform="translate(54.011853, 52.044121) scale(-1, 1) translate(-54.011853, -52.044121) " points="0.942824255 72.7598084 0.942824255 91.884385 107.080881 30.0119797 107.080881 12.2038562"></polygon>
                        <polygon id="Rectangle-3-Copy" fill="#A66173" transform="translate(63.935293, 35.204576) scale(-1, 1) translate(-63.935293, -35.204576) " points="26.3275226 70.0268815 119.746093 16.3096351 112.271962 0.38226983 8.12449253 60.2726984"></polygon>
                        <polygon id="Rectangle-3-Copy-2" fill="#3D1E2E" transform="translate(49.124291, 26.905056) scale(-1, 1) translate(-49.124291, -26.905056) " points="25.5007567 53.4042659 90.1240897 16.3574413 82.6499593 0.405845108 8.12449253 43.5329107"></polygon>
                    </g>
                    <g id="back" transform="translate(10.000000, 0.000000)">
                        <g id="slant-right" transform="translate(170.000000, 19.000000)">
                            <polygon id="Rectangle-3" fill="#77465C" points="95.3914249 67.7625085 127.591454 49.6457168 115.303714 42.2937249 83.3845208 60.0009682"></polygon>
                            <polygon id="Path-8" fill="#472E41" points="95.1003796 67.9319825 95.1003796 71.8880151 127.42722 53.6606104 127.557217 49.6396566"></polygon>
                            <polygon id="Path-8" fill="#472E41" points="3.84221984 0.892726883 0.384684443 3.04083446 95.1027813 71.8866265 95.1027813 68.1343195"></polygon>
                            <polygon id="Path-8" fill="#2A101D" points="3.96903569 0.265004818 3.34994743 0.525796689 95.1027813 68.1394101 95.3808287 67.8328234"></polygon>
                        </g>
                        <g id="chimney" transform="translate(125.000000, 0.000000)">
                            <g id="Container" transform="translate(3.000000, 5.000000)">
                                <polygon id="Rectangle-3" stroke="#FFEAB5" stroke-width="0.7" fill="#FBD26E" stroke-linecap="round" stroke-linejoin="round" points="10.8436247 27.4012904 46.0643781 7.00395805 35.0337297 0.710831711 0.145103552 21.0887628"></polygon>
                                <polygon id="Path-8" fill="#6C3E53" points="10 27.3507843 10 41.0012563 46.0643781 20.2679748 46.0643781 7.00395805"></polygon>
                                <polygon id="Path-8-Copy-3" fill="#3D1E2E" points="10 27.3507843 10 34.0012563 46.0643781 13.2679748 46.0643781 7.00395805"></polygon>
                            </g>
                            <g id="Container" transform="translate(4.000000, 13.000000)">
                                <polygon id="Path-8" stroke="#FFEAB5" stroke-width="0.7" fill="#D9AE41" stroke-linecap="round" stroke-linejoin="round" points="10 18.7086027 10 34 11 31.6530059 11 18"></polygon>
                                <polygon id="Rectangle-2" fill="#392A56" points="0.498064822 13 11.3789569 18.5394605 11.3789569 30 0.378956905 23.87106"></polygon>
                                <polygon id="Rectangle-2-Copy-5" fill="#2A1B47" points="0.498064822 13 11.3789569 18.5394605 11.3789569 25 0.378956905 18.87106"></polygon>
                            </g>
                            <g id="Container">
                                <polygon id="Rectangle-3" fill="#A66173" points="11.8162089 29.9965875 51.5914544 7.67890429 39.3037141 0.293724924 0.164030103 23.1417623"></polygon>
                                <polygon id="Path-8" fill="#6C3E53" points="11.414473 29.7040486 11.414473 33.6600812 51.4272199 11.6606104 51.5572168 7.63965663"></polygon>
                                <polygon id="Rectangle-2" fill="#392A56" points="0.127041746 23.1097234 11.3652714 29.7490785 11.3652714 33.7096083 0.127041746 27.0268161"></polygon>
                            </g>
                        </g>
                        <g id="slant-left" transform="translate(0.000000, 35.000000)">
                            <g id="Container" transform="translate(0.000000, 176.000000)">
                                <polygon id="Path-8" fill="#472E41" points="14 28.0826889 14 77.0357918 16.0579575 75.9854526 16.0579575 27"></polygon>
                                <polygon id="Rectangle-2" fill="#583858" points="6.11238308 23.6268421 14.053894 28.5872234 14.053894 77.0003653 6.11238308 72.2702685"></polygon>
                                <polygon id="Rectangle-2-Copy-4" fill="#2A1B47" points="6.11238308 23.6268421 14.053894 28.5872234 14.053894 39.0003653 6.11238308 34.2702685"></polygon>
                            </g>
                            <g id="Container" transform="translate(0.000000, 176.000000)">
                                <polygon id="Rectangle-3" fill="#77465C" points="10.824648 27.7914611 46.2341764 7.25811333 35.0337297 0.710831711 0.126126886 21.4789335"></polygon>
                                <polygon id="Path-8" fill="#472E41" points="10 27.3507843 10 30.8503516 46.2235585 10.2992703 46.2235585 7.23801684"></polygon>
                                <polygon id="Rectangle-2" fill="#392A56" points="0.112383083 21.4432168 10.053894 27.3164925 10.053894 30.8200381 0.112383083 24.9083374"></polygon>
                            </g>
                            <g id="Container" transform="translate(34.000000, 0.000000)">
                                <polygon id="Rectangle-3" fill="url(#linearGradient-8)" points="12.2417457 183.293273 106.280977 6.6199342 95.7297236 0.50113459 1.04177856 176.713058"></polygon>
                                <polygon id="Path-8" fill="#472E41" points="12.217677 183.310257 12.217677 186.321532 106.373305 10.1523709 106.373305 6.42117545"></polygon>
                            </g>
                        </g>
                    </g>
                    <g id="Container" transform="translate(40.000000, 57.000000)">
                        <polygon id="Rectangle-3" fill="#77465C" points="80.7514582 270.16073 200.876683 46.2185963 121.814009 0.196668242 0.26306145 225.338556"></polygon>
                        <polygon id="Rectangle-3" fill="url(#linearGradient-9)" points="77.2480456 269.737552 198.135868 44.17909 121.814009 0.196668242 0.26306145 225.338556"></polygon>
                    </g>
                    <g id="window-support" transform="translate(194.000000, 99.000000)">
                        <polygon id="Rectangle-3" fill="url(#linearGradient-6)" points="3.25365119 232.938993 112.306375 4.01006593 107.576099 0.856548394 0.217027272 232.938993"></polygon>
                        <polygon id="Rectangle-3" fill="url(#linearGradient-5)" points="10.6429521 211.706473 106.491784 3.89899483 102.581029 0.856548394 6.0300293 210.938337"></polygon>
                    </g>
                    <g id="window-support" transform="translate(153.000000, 99.000000)">
                        <polygon id="Rectangle-3" fill="url(#linearGradient-6)" points="8.0617231 210.938337 106.306375 4.01006593 101.576099 0.856548394 5.02509918 210.938337"></polygon>
                        <polygon id="Rectangle-3" fill="url(#linearGradient-5)" points="3.98397039 211.706473 100.491784 3.89899483 96.5810291 0.856548394 0.0300292969 210.938337"></polygon>
                    </g>
                    <g id="Group-22" transform="translate(318.000000, 79.000000)">
                        <g id="Group-21">
                            <polygon id="Fill-190" fill="url(#linearGradient-10)" points="126.825865 102.912616 63.7988181 139.577233 63.7988181 78.2466744 126.825865 42.6787358"></polygon>
                            <polygon id="Fill-188" fill="url(#linearGradient-11)" points="64.8843439 79.2466744 137.324688 36.8081163 73.6900792 0 1.08210476 42.4385581"></polygon>
                            <polyline id="Fill-189" fill="#B15D2E" points="0.0821047581 41.4385581 0 59.8169767 63.7167133 96.5772326 63.8843439 78.2466744 0.0821047581 41.4385581"></polyline>
                            <polygon id="Fill-190" fill="#354658" points="136.825865 46.9126155 63.7988181 89.5772326 63.7988181 78.2466744 136.825865 36.6787358"></polygon>
                        </g>
                    </g>
                    <g id="roof-slant" transform="translate(161.000000, 27.000000)">
                        <polygon id="Path-8-Copy" fill="url(#radialGradient-12)" transform="translate(95.281755, 73.836279) scale(-1, 1) translate(-95.281755, -73.836279) " points="0.407101152 117.200032 0.407101152 139.782775 190.156409 30.7789482 190.156409 7.88978161"></polygon>
                        <polygon id="Rectangle-3-Copy" fill="#98CEE0" transform="translate(102.509683, 59.573607) scale(-1, 1) translate(-102.509683, -59.573607) " points="12.2820313 118.575963 204.521735 7.807105 192.675743 0.57125013 0.497631123 110.701711"></polygon>
                    </g>
                    <g id="roof-slant" transform="translate(24.000000, 274.000000)">
                        <polygon id="Path-8-Copy" fill="#583858" transform="translate(101.140260, 67.906130) scale(-1, 1) translate(-101.140260, -67.906130) " points="0.199639386 120.759808 0.199639386 131.732284 202.080881 14.1320908 202.080881 4.07997617"></polygon>
                        <polygon id="Rectangle-3-Copy" fill="#2A1B47" transform="translate(101.860687, 59.442703) scale(-1, 1) translate(-101.860687, -59.442703) " points="7.17831132 118.026881 203.521735 4.07997617 197.760269 0.858525493 0.199639386 113.701711"></polygon>
                    </g>
                    <g id="Container" transform="translate(212.000000, 329.000000)">
                        <polygon id="Path-8" fill="#472E41" points="14.0557686 28.0456776 14.0557686 76.9987805 16.2157846 75.8789932 16.2157846 26.8935405"></polygon>
                        <polygon id="Rectangle-2" fill="#583858" points="6.11238308 23.6268421 14.053894 28.5872234 14.053894 77.0003653 6.11238308 72.2702685"></polygon>
                        <polygon id="Rectangle-2-Copy-2" fill="#2A1B47" points="6.11238308 23.6268421 14.053894 28.5872234 14.053894 37.0003653 6.11238308 32.2702685"></polygon>
                    </g>
                    <g id="front" transform="translate(215.000000, 103.000000)">
                        <g id="slant-right" transform="translate(174.000000, 38.000000)">
                            <polygon id="Rectangle-3" fill="#77465C" points="95.7251359 67.9052109 127.925165 49.6568437 115.637425 42.5780367 83.7182318 60.2852801"></polygon>
                            <polygon id="Path-8" fill="#472E41" points="95.2646225 68.1444118 95.2646225 72.1004445 127.591463 53.8730397 127.72146 49.852086"></polygon>
                            <polygon id="Path-8" fill="#472E41" points="3.9081532 0.47613733 0.450617796 2.62424491 96.0839425 71.7493104 96.0839425 67.9970035"></polygon>
                            <polygon id="Path-8" fill="#2A101D" points="5.0603755 0.502887516 4.44128724 0.763679387 95.1027813 67.8906527 95.3808287 67.5840659"></polygon>
                        </g>
                        <g id="slant-left" transform="translate(0.000000, 28.000000)">
                            <g id="Container" transform="translate(0.000000, 196.404348)">
                                <polygon id="Rectangle-3" fill="#77465C" points="10.8436247 27.0438822 46.0643781 6.91260208 35.0337297 0.701559993 0.145103552 20.813692"></polygon>
                                <polygon id="Path-8" fill="#472E41" points="10 26.9940349 10 30.4479557 46.0643781 10.1925906 46.0643781 6.91260208"></polygon>
                                <polygon id="Rectangle-2" fill="#583858" points="0.112383083 21.1635227 10.053894 26.9601905 10.053894 30.4180376 0.112383083 24.583446"></polygon>
                            </g>
                            <g id="Container" transform="translate(34.000000, 0.000000)">
                                <polygon id="Rectangle-3" fill="url(#linearGradient-5)" points="12.2990117 203.378075 105.365263 30.9070052 94.8140092 24.868016 1.08463231 196.927945"></polygon>
                                <g transform="translate(94.000000, 0.000000)">
                                    <polygon id="Path-8" stroke="#FFEAB5" stroke-width="0.7" fill="#D9AE41" stroke-linecap="round" stroke-linejoin="round" points="11.4329849 19.0779429 11.4329849 34.5278951 12.6847024 32.1565652 12.6847024 18.3619928"></polygon>
                                    <polygon id="Rectangle-2" fill="#392A56" points="1 13.868613 11.6197905 19.456868 11.6197905 31.0183579 0.886062482 24.835431"></polygon>
                                    <polygon id="Rectangle-2-Copy-3" fill="#2A1B47" points="1 13.868613 11.6197905 19.456868 11.6197905 24.8664399 0.886062482 18.683513"></polygon>
                                </g>
                                <polygon id="Path-8" fill="#472E41" points="12.0913588 203.619955 12.0913588 206.575408 106.444186 33.3619657 106.13579 29.3417882"></polygon>
                            </g>
                        </g>
                        <g id="chimney" transform="translate(127.000000, 0.000000)">
                            <g id="Container" transform="translate(3.000000, 20.000000)">
                                <polygon id="Rectangle-3" stroke="#FFEAB5" stroke-width="0.7" fill="#FBD26E" stroke-linecap="round" stroke-linejoin="round" points="10.8436247 27.4012904 46.0643781 7.00395805 35.0337297 0.710831711 0.145103552 21.0887628"></polygon>
                                <polygon id="Path-8" fill="#6C3E53" points="9.59437023 27.7244106 9.59437023 43.8646238 48.7560336 18.6387379 48.7560336 4.84767962"></polygon>
                                <polygon id="Path-8-Copy-2" fill="#3D1E2E" points="9.59437023 27.7244106 9.59437023 32.9190249 48.7560336 11.0683952 48.7560336 4.84767962"></polygon>
                            </g>
                            <g id="Container">
                                <polygon id="Rectangle-3" fill="#A66173" points="12.2580105 30.8449369 53.1668719 7.625969 40.8791316 0.547162087 0.164030103 23.7090362"></polygon>
                                <polygon id="Path-8" fill="#6C3E53" points="11.2979391 30.5833362 11.414473 48.6600812 53.2280204 25.8380681 53.2280204 7.67920426"></polygon>
                                <polygon id="Rectangle-2" fill="#392A56" points="0.127041746 23.7679747 11.3652714 30.4073298 11.3652714 48.7096083 0.127041746 42.0268161"></polygon>
                            </g>
                            <g id="Group-19" transform="translate(11.000000, 10.000000)">
                                <path d="M0.0138210206,3.18870728 L0.0322490481,3.35364042 L0.067569434,3.49034175 L0.115175172,3.64784547 L0.170459254,3.77711738 L0.25031404,3.94056464 L0.32402615,4.05794948 L0.453022342,4.24368499 L0.540555472,4.34918276 L0.772441485,4.59138187 L0.863045953,4.67607727 L1.03043387,4.80980684 L1.18400076,4.92719168 L1.37903072,5.05349183 L1.5878817,5.18424963 C1.82437472,5.31649331 2.08390277,5.42942051 2.3495735,5.53343239 L2.56303149,5.61069837 C2.72734806,5.66864785 2.90241433,5.71619614 3.07440925,5.76225854 C3.25561819,5.81129272 3.43529145,5.85735513 3.62264307,5.89450223 C3.84224373,5.93759287 4.06338006,5.97771174 4.28912339,6.00445765 L4.44883296,6.02674591 C4.75289542,6.05794948 5.06002921,6.07429421 5.36869867,6.07578009 L5.51458722,6.07726597 C5.81864967,6.07429421 6.12117646,6.05794948 6.42216757,6.0282318 L6.55884211,6.01337296 C6.85676189,5.97771174 7.15007466,5.93016345 7.43570908,5.86775632 L7.59234732,5.83060921 C7.85187537,5.76820208 8.10526075,5.69242199 8.34943211,5.6077266 L8.48457098,5.56315007 C8.77788375,5.45319465 9.0573755,5.32838039 9.31690355,5.18424963 C10.3949432,4.58098068 10.933963,3.78900446 10.9324273,3 L10.9999967,7.92273403 C11.0015324,8.71322437 10.4625126,9.50371471 9.38447299,10.1069837 C9.13723028,10.243685 8.87309522,10.3655275 8.59667481,10.4710253 L8.55214041,10.4858841 L8.41700154,10.5304606 C8.25729197,10.5869242 8.09911807,10.6433878 7.93326582,10.6879643 L7.65991675,10.7533432 L7.50481419,10.7904903 L7.36199697,10.8246657 C7.18385937,10.858841 7.00265044,10.8900446 6.81990583,10.9153046 L6.62641154,10.936107 L6.48973701,10.9509658 L6.28856437,10.9732541 C6.11042677,10.986627 5.93075351,10.9955423 5.74954457,11 L5.58215665,11 L5.4362681,10.9985141 L5.19056107,10.9985141 C4.9863171,10.9910847 4.7836088,10.9777117 4.58397183,10.9583952 L4.5164024,10.9494799 L4.35669283,10.9286776 C4.19851892,10.9093611 4.04034502,10.8915305 3.88677813,10.8647845 L3.6902125,10.8172363 C3.50286089,10.7800892 3.32318762,10.7340267 3.14351435,10.6864785 L2.85173725,10.615156 L2.63060092,10.5349183 L2.41714294,10.4561664 C2.15147221,10.3536404 1.89194415,10.2392273 1.65545113,10.1069837 L1.5878817,10.0683507 L1.44660016,9.97771174 L1.2515702,9.85141159 L1.0980033,9.73402675 L0.930615387,9.60029718 L0.89683067,9.57355126 L0.840010919,9.5141159 L0.608124906,9.27340267 L0.557447831,9.21991085 L0.520591776,9.16641902 L0.391595584,8.98216939 L0.33784717,8.90490342 L0.317883474,8.86478455 L0.238028688,8.69985141 L0.191958619,8.60326895 L0.182744606,8.57057949 L0.135138868,8.41307578 L0.104425489,8.30609212 L0.101354151,8.27637444 L0.0813904546,8.11144131 L0.067569434,8.00297177 L0.067569434,7.95542348 L0,3.03268945 L0.0138210206,3.18870728" id="Fill-431" fill="#5A3E70"></path>
                                <path d="M9.40246911,0.939534786 C11.5440483,2.1108341 11.5301419,4.01110353 9.3746564,5.18385787 C7.22226116,6.35224712 3.73949097,6.35515718 1.59791178,5.18385787 C-0.543667404,4.01110353 -0.529761046,2.1108341 1.6226342,0.940989816 C3.77811974,-0.230309493 7.26088993,-0.233219553 9.40246911,0.939534786 Z" id="Fill-432" fill="#0E050A"></path>
                            </g>
                            <g id="Group-19" transform="translate(26.000000, 2.000000)">
                                <path d="M0.0322490481,3.35364042 L0.067569434,3.49034175 L0.115175172,3.64784547 L0.170459254,3.77711738 L0.25031404,3.94056464 L0.32402615,4.05794948 L0.453022342,4.24368499 L0.540555472,4.34918276 L0.772441485,4.59138187 L0.863045953,4.67607727 L1.03043387,4.80980684 L1.18400076,4.92719168 L1.37903072,5.05349183 L1.5878817,5.18424963 C1.82437472,5.31649331 2.08390277,5.42942051 2.3495735,5.53343239 L2.56303149,5.61069837 C2.72734806,5.66864785 2.90241433,5.71619614 3.07440925,5.76225854 C3.25561819,5.81129272 3.43529145,5.85735513 3.62264307,5.89450223 C3.84224373,5.93759287 4.06338006,5.97771174 4.28912339,6.00445765 L4.44883296,6.02674591 C4.75289542,6.05794948 5.06002921,6.07429421 5.36869867,6.07578009 L5.51458722,6.07726597 C5.81864967,6.07429421 6.12117646,6.05794948 6.42216757,6.0282318 L6.55884211,6.01337296 C6.85676189,5.97771174 7.15007466,5.93016345 7.43570908,5.86775632 L7.59234732,5.83060921 C7.85187537,5.76820208 8.10526075,5.69242199 8.34943211,5.6077266 L8.48457098,5.56315007 C8.77788375,5.45319465 9.0573755,5.32838039 9.31690355,5.18424963 C10.3949432,4.58098068 10.933963,3.78900446 10.9324273,3 L10.9999967,7.92273403 C11.0015324,8.71322437 10.4625126,9.50371471 9.38447299,10.1069837 C9.13723028,10.243685 8.87309522,10.3655275 8.59667481,10.4710253 L8.55214041,10.4858841 L8.41700154,10.5304606 C8.25729197,10.5869242 8.09911807,10.6433878 7.93326582,10.6879643 L7.65991675,10.7533432 L7.50481419,10.7904903 L7.36199697,10.8246657 C7.18385937,10.858841 7.00265044,10.8900446 6.81990583,10.9153046 L6.62641154,10.936107 L6.48973701,10.9509658 L6.28856437,10.9732541 C6.11042677,10.986627 5.93075351,10.9955423 5.74954457,11 L5.58215665,11 L5.4362681,10.9985141 L5.19056107,10.9985141 C4.9863171,10.9910847 4.7836088,10.9777117 4.58397183,10.9583952 L4.5164024,10.9494799 L4.35669283,10.9286776 C4.19851892,10.9093611 4.04034502,10.8915305 3.88677813,10.8647845 L3.6902125,10.8172363 C3.50286089,10.7800892 3.32318762,10.7340267 3.14351435,10.6864785 L2.85173725,10.615156 L2.63060092,10.5349183 L2.41714294,10.4561664 C2.15147221,10.3536404 1.89194415,10.2392273 1.65545113,10.1069837 L1.5878817,10.0683507 L1.44660016,9.97771174 L1.2515702,9.85141159 L1.0980033,9.73402675 L0.930615387,9.60029718 L0.89683067,9.57355126 L0.840010919,9.5141159 L0.608124906,9.27340267 L0.557447831,9.21991085 L0.520591776,9.16641902 L0.391595584,8.98216939 L0.33784717,8.90490342 L0.317883474,8.86478455 L0.238028688,8.69985141 L0.191958619,8.60326895 L0.182744606,8.57057949 L0.135138868,8.41307578 L0.104425489,8.30609212 L0.101354151,8.27637444 L0.0813904546,8.11144131 L0.067569434,8.00297177 L0.067569434,7.95542348 L0,3.03268945 L0.0138210206,3.18870728 L0.0322490481,3.35364042 Z" id="Fill-431" fill="#5A3E70"></path>
                                <path d="M9.40246911,0.976948068 C11.5440483,2.14824738 11.5301419,4.04851682 9.3746564,5.22127115 C7.22226116,6.3896604 3.73949097,6.39257046 1.59791178,5.22127115 C-0.543667404,4.04851682 -0.529761046,2.14824738 1.6226342,0.978403098 C3.77811974,-0.192896211 7.26088993,-0.195806271 9.40246911,0.976948068 Z" id="Fill-432" fill="#0E050A"></path>
                            </g>
                        </g>
                    </g>
                    <polygon id="front-face" fill="url(#linearGradient-13)" points="260.291304 338.10014 356.890594 161.635296 389.59744 143 485.055794 212.653142 509.395772 198.905888 509.395772 242.559223 228 405.37641 228 355.974812"></polygon>
                    <g id="Group-4" transform="translate(369.000000, 188.000000)">
                        <mask id="mask-15" fill="white">
                            <use xlink:href="#path-14"></use>
                        </mask>
                        <use id="Mask" fill="#2A1B47" xlink:href="#path-14"></use>
                        <g mask="url(#mask-15)">
                            <g transform="translate(0.000000, -3.000000)">
                                <polyline id="Fill-1372" fill="#77465C" points="15.2657143 20.4714286 0.542857143 29.0171429 0.542857143 26.1085714 12.52 19.1885714 15.2657143 20.4714286"></polyline>
                                <polyline id="Fill-1373" fill="#190D0D" points="15.26 0.522857143 15.2657143 20.4714286 12.52 19.1885714 12.5171429 2.14857143 15.26 0.522857143"></polyline>
                                <polyline id="Fill-1374" fill="#6AABAF" points="12.5171429 2.14857143 12.52 19.1885714 0.542857143 26.1085714 0.537142857 9.06857143 12.5171429 2.14857143"></polyline>
                                <polyline id="Fill-1375" fill="#DBE0B6" points="9.39142857 17.3314286 9.38857143 3.95714286 0.537142857 9.06857143 9.39142857 17.3314286"></polyline>
                                <polyline id="Fill-1376" fill="#DBE0B6" points="0.537142857 11.0514286 8.08 18.0914286 6.76571429 18.8485714 0.54 13.1114286 0.537142857 11.0514286"></polyline>
                                <polyline id="Fill-1377" fill="#518588" points="10.7371429 18.16 10.7342857 3.18 12.5171429 2.14857143 12.52 19.1885714 0.542857143 26.1085714 0.542857143 24.0485714 10.7371429 18.16"></polyline>
                            </g>
                        </g>
                    </g>
                    <g id="small-window" transform="translate(320.000000, 267.000000)">
                        <polyline id="Fill-1372" fill="#190D0D" points="23.8677 29.3735 3.771 41.0384 3.771 37.0682 20.1198 27.6224 23.8677 29.3735"></polyline>
                        <polygon id="Fill-1372" fill="#7AC4B0" points="3.75820312 13.8125 0.051171875 12.4007813 20.5142381 0.553216078 23.8724543 2.13545955"></polygon>
                        <polygon id="Fill-1373" fill="#190D0D" points="23.8677 29.3735 20.1198 27.6224 20.1159 4.3628 23.8599 2.1437"></polygon>
                        <polygon id="Fill-1374" fill="#6AABAF" points="20.1198 27.6224 3.771 37.0682 3.7632 13.8086 20.1159 4.3628"></polygon>
                        <polygon id="Fill-1375" fill="#DBE0B6" points="15.8454 6.8315 3.7632 13.8086 15.8493 25.0874"></polygon>
                        <polygon id="Fill-1376" fill="#DBE0B6" points="14.0592 26.1248 12.2652 27.1583 3.7671 19.3271 3.7632 16.5152"></polygon>
                        <polyline id="Fill-1377" fill="#518588" points="17.6862 26.2184 17.6823 5.7707 20.1159 4.3628 20.1198 27.6224 3.771 37.0682 3.771 34.2563 17.6862 26.2184"></polyline>
                        <polygon id="Fill-1373" fill="#2A1B47" points="3.79186348 41.0097683 0.0439634766 39.2586683 0.0439634766 12.4000515 3.76328125 13.8074219"></polygon>
                        <polygon id="Fill-1372" fill="#A66173" points="3.75820312 13.8125 3.75820312 16.179151 23.8724543 4.3651232 23.8724543 2.13545955"></polygon>
                        <polygon id="Fill-1372" fill="#A66173" points="3.82406576 38.6249725 3.82406576 40.9916236 23.8729683 29.3538655 23.8729683 27.1242018"></polygon>
                        <polygon id="Fill-1372" fill="#A66173" points="23.8729683 4.25357388 22.1534912 5.29499052 22.1534912 28.2839634 23.8729683 27.1242018"></polygon>
                        <polygon id="Fill-1372" fill="#A66173" points="3.76328125 41.0318087 5.51409601 40.0303256 5.51409601 12.7829632 3.76328125 13.7972656"></polygon>
                        <polygon id="Fill-1372" fill="#77465C" points="3.75820312 13.8125 0.051171875 12.4007813 20.5142381 0.553216078 23.8724543 2.13545955"></polygon>
                    </g>
                    <g id="top-window-unit" transform="translate(143.000000, 202.000000)">
                        <g id="windows" transform="translate(0.000000, 35.000000)">
                            <path d="M0.1185,0.954232098 L0.1185,78.7965789 L40.9175,101.558789 L40.9175,23.7164426 L0.1185,0.954232098 Z M36.7155,26.2340526 L36.7155,94.5313158 L4.315,76.4523158 L4.315,8.15505263 L36.7155,26.2340526 Z" id="Fill-719" fill="#A66173"></path>
                            <polyline id="Fill-720" fill="#190D0D" points="4.315 76.4523158 36.7155 94.5313158 36.7155 89.8481053 8.517 74.1133684 4.315 76.4523158"></polyline>
                            <polyline id="Fill-722" fill="#6AABAF" points="8.517 10.494 8.517 74.1133684 36.7155 89.8481053 36.7155 26.2340526 8.517 10.494"></polyline>
                            <polyline id="Fill-723" fill="#DBE0B6" points="15.876 45.0413158 15.876 14.6031053 36.7155 26.2340526 15.876 45.0413158"></polyline>
                            <polygon id="Fill-725" fill="#518588" points="12.7135 12.8382632 8.517 10.494 8.517 74.1133684 36.7155 89.8481053 36.7155 85.1648947 12.7135 71.7691053"></polygon>
                            <polyline id="Fill-727-Copy" fill="#518588" points="36.7155 48.4683684 5.987 31.3249474 5.987 33.8180526 36.7155 50.9667895 36.7155 48.4683684"></polyline>
                            <polyline id="Fill-727-Copy-3" fill="#518588" points="36.7285 26.1434211 6 9 6 11.4931053 36.7285 28.6418421 36.7285 26.1434211"></polyline>
                            <polyline id="Fill-727-Copy-2" fill="#518588" points="36.7155 71.2683562 5.987 54.1249352 5.987 56.6180404 36.7155 73.7667773 36.7155 71.2683562"></polyline>
                            <polyline id="Fill-724" fill="#DBE0B6" points="36.7155 30.7471579 18.967 46.7689474 22.058 48.4912632 36.7155 35.4356842 36.7155 30.7471579"></polyline>
                            <polygon id="Fill-726" fill="#3D4258" points="8.517 27.9322105 5.987 29.3249474 36.7155 46.4683684 36.7155 43.6722632"></polygon>
                            <polyline id="Fill-721" fill="#190D0D" points="4.315 8.15505263 4.315 76.4523158 8.517 74.1133684 8.517 10.494 4.315 8.15505263"></polyline>
                            <g id="Group-2" transform="translate(24.000000, 18.400024)">
                                <polygon id="Rectangle-5" fill="#2B2A56" points="2 1.78515625 4 2.89453125 4 20.4385611 2 22.0882568"></polygon>
                                <polygon id="Rectangle-5" fill="#65747A" points="0 0.670763723 2 1.78013872 2 22.1131624 0 21.0059174"></polygon>
                            </g>
                            <g id="Group-2" transform="translate(14.000000, 12.900024)">
                                <polygon id="Rectangle-5" fill="#2B2A56" points="2 1.75699033 4 2.86636533 4 20.4385611 2 22.0882568"></polygon>
                                <polygon id="Rectangle-5" fill="#65747A" points="0 0.635476498 2 1.7448515 2 22.1131624 0 21.0059174"></polygon>
                            </g>
                            <polyline id="Fill-727" fill="#65747A" points="36.7155 46.4683684 5.987 29.3249474 5.987 31.8180526 36.7155 48.9667895 36.7155 46.4683684"></polyline>
                            <g id="Group-3" transform="translate(5.000000, 49.799988)">
                                <polyline id="Fill-726" fill="#3D4258" points="31.7155 16.6722632 3.517 0.932210526 0.987 2.32494737 31.7155 19.4683684 31.7155 16.6722632"></polyline>
                                <polyline id="Fill-727" fill="#65747A" points="31.7155 19.4683684 0.987 2.32494737 0.987 4.81805263 31.7155 21.9667895 31.7155 19.4683684"></polyline>
                            </g>
                            <g id="Group-2" transform="translate(24.000000, 41.200012)">
                                <polygon id="Rectangle-5" fill="#2B2A56" points="2 1.78515625 4 2.89453125 4 20.4385611 2 22.0882568"></polygon>
                                <polygon id="Rectangle-5" fill="#65747A" points="0 0.670763723 2 1.78013872 2 22.1131624 0 21.0059174"></polygon>
                            </g>
                            <g id="Group-2" transform="translate(14.000000, 35.599976)">
                                <polygon id="Rectangle-5" fill="#2B2A56" points="2 1.75699033 4 2.86636533 4 20.4385611 2 22.0882568"></polygon>
                                <polygon id="Rectangle-5" fill="#65747A" points="0 0.635476498 2 1.7448515 2 22.1131624 0 21.0059174"></polygon>
                            </g>
                            <g id="Group-2" transform="translate(24.000000, 64.000000)">
                                <polygon id="Rectangle-5" fill="#2B2A56" points="2 1.78515625 4 2.89453125 4 21.4385611 2 23.0882568"></polygon>
                                <polygon id="Rectangle-5" fill="#65747A" points="0 0.670763723 2 1.78013872 2 23.1131624 0 22.0059174"></polygon>
                            </g>
                            <g id="Group-2" transform="translate(14.000000, 58.400024)">
                                <polygon id="Rectangle-5" fill="#2B2A56" points="2 1.75699033 4 2.86636533 4 21.4385611 2 23.0882568"></polygon>
                                <polygon id="Rectangle-5" fill="#65747A" points="0 0.635476498 2 1.7448515 2 23.1131624 0 22.0059174"></polygon>
                            </g>
                        </g>
                        <polygon id="Rectangle-3-Copy" fill="#77465C" transform="translate(50.513832, 29.352605) scale(-1, 1) translate(-50.513832, -29.352605) " points="60.1038271 58.6331254 100.933852 35.9433454 41.433806 0.0720840243 0.0938110973 24.0207707"></polygon>
                        <polygon id="Rectangle-3-Copy" fill="url(#linearGradient-16)" transform="translate(70.919586, 80.133766) scale(-1, 1) translate(-70.919586, -80.133766) " points="100.921664 136.245415 100.921664 58.6052019 40.9175078 24.022117 89.84761 128.91343"></polygon>
                    </g>
                </g>
            </g>
        </g>
    </g>
</svg>