<?xml version="1.0" encoding="UTF-8"?>
<svg width="508px" height="408px" viewBox="0 0 508 408" version="1.1" xmlns="http://www.w3.org/2000/svg" xmlns:xlink="http://www.w3.org/1999/xlink">
    <!-- Generator: Sketch 47.1 (45422) - http://www.bohemiancoding.com/sketch -->
    <title>top floor</title>
    <desc>Created with Sketch.</desc>
    <defs>
        <polygon id="path-1" points="56.2913043 212.10014 152.890594 35.6352961 180.25523 20.3591671 275.713583 90.0123092 305.395772 72.9058882 305.395772 130.734242 33.0127668 288.488971 24 288.488971 24 229.974812"></polygon>
        <path d="M15.2336377,7.14857143 L15.2371427,20.0524338 L0.544152871,28.541561 L0.537142857,15.6376986 C2.43849329,8.09218579 4.97134516,3.42848036 8.13569846,1.64658237 C11.3000518,-0.135315617 13.6660315,1.69868073 15.2336377,7.14857143 Z" id="path-2"></path>
    </defs>
    <g id="Page-1" stroke="none" stroke-width="1" fill="none" fill-rule="evenodd">
        <g id="Grids" transform="translate(-1240.000000, -59.000000)">
            <g id="top-floor" transform="translate(1231.000000, 59.000000)">
                <g id="back-face">
                    <use fill="#FFFFFF" fill-rule="evenodd" xlink:href="#path-1"></use>
                    <path stroke="#979797" stroke-width="0.7" d="M24.35,230.181116 L24.35,288.138971 L32.9187295,288.138971 L305.045772,130.532486 L305.045772,73.5115649 L275.691146,90.4292053 L180.230054,20.7740649 L153.149206,35.8917713 L56.5983145,212.268202 L56.4608085,212.406357 L24.35,230.181116 Z"></path>
                </g>
                <g id="floor-1" transform="translate(23.000000, 128.000000)">
                    <polygon id="Rectangle-6" fill="#FFE1C6" points="0.991080648 161.182048 277.442669 4 486.046419 115.260542 203.074728 279.179984"></polygon>
                    <g id="Group" transform="translate(259.534829, 138.009031) rotate(1.500000) translate(-259.534829, -138.009031) translate(37.034829, 6.009031)" fill="#BF9168">
                        <g id="Group-6" transform="translate(175.017472, 161.504287) scale(1, -1) translate(-175.017472, -161.504287) translate(0.017472, 60.004287)">
                            <polygon id="Fill-4" points="292.914723 141.387806 106.043705 33.4026605 103.967456 34.6103095 290.837995 142.595455"></polygon>
                            <polygon id="Fill-5" points="302.335594 135.907751 115.465055 27.9230855 113.388326 29.1307344 300.259345 137.11588"></polygon>
                            <polygon id="Fill-6" points="311.758864 130.426734 124.888325 22.4420693 122.811596 23.6497182 309.682615 131.634864"></polygon>
                            <polygon id="Fill-7" points="283.491453 146.868822 96.6204345 38.8836767 94.5441858 40.0913256 281.414725 148.076471"></polygon>
                            <polygon id="Fill-8" points="330.603484 119.466143 143.732465 11.4809977 141.656217 12.689127 328.526755 120.673792"></polygon>
                            <polygon id="Fill-9" points="321.180214 124.947159 134.309195 16.9620139 132.232947 18.1701432 319.103965 126.154808"></polygon>
                            <polygon id="Fill-11" points="340.024834 113.986568 153.153816 6.00142263 151.077087 7.20907159 337.948106 115.194217"></polygon>
                            <polygon id="Fill-12" points="274.070103 152.348397 87.1995642 44.3637321 85.1228356 45.5713811 271.993854 153.556527"></polygon>
                            <polygon id="Fill-13" points="349.447624 108.505552 162.577086 0.520406467 160.500357 1.72805543 347.371376 109.713201"></polygon>
                            <polygon id="Fill-14" points="208.113932 190.712148 21.243393 82.7270023 19.1666644 83.9346513 206.037683 191.919797"></polygon>
                            <polygon id="Fill-14" points="226.113932 179.712148 39.243393 71.7270023 37.1666644 72.9346513 224.037683 180.919797"></polygon>
                            <polygon id="Fill-15" points="198.693061 196.191723 11.8220428 88.2065774 9.74339439 89.4156674 196.614413 197.400813"></polygon>
                            <polygon id="Fill-16" points="189.269791 201.672739 2.39877273 93.6875935 0.322524064 94.8957229 187.193063 202.880388"></polygon>
                            <polygon id="Fill-17" points="217.537202 185.231132 30.6661832 77.2459861 28.5880147 78.4550762 215.458553 186.439741"></polygon>
                            <polygon id="Fill-18" points="264.647313 157.829413 77.7762941 49.8447483 75.6995655 51.0523972 262.570584 159.037543"></polygon>
                            <polygon id="Fill-19" points="255.225963 163.309469 68.3549439 55.3243233 66.2786952 56.5319723 253.149234 164.517118"></polygon>
                            <polygon id="Fill-20" points="245.802693 168.790485 58.9316738 60.8053395 56.8554251 62.0129885 243.725964 169.998134"></polygon>
                            <polygon id="Fill-21" points="235.381822 174.27006 48.5108035 66.2849145 46.4340749 67.4930439 233.305094 175.477709"></polygon>
                        </g>
                        <g id="Group-6" transform="translate(244.017472, 104.004287) scale(1, -1) translate(-244.017472, -104.004287) translate(44.017472, 0.004287)">
                            <polygon id="Fill-4" points="333.914723 146.387806 147.043705 38.4026605 144.967456 39.6103095 331.837995 147.595455"></polygon>
                            <polygon id="Fill-5" points="343.335594 140.907751 156.465055 32.9230855 154.388326 34.1307344 341.259345 142.11588"></polygon>
                            <polygon id="Fill-6" points="352.758864 135.426734 165.888325 27.4420693 163.811596 28.6497182 350.682615 136.634864"></polygon>
                            <polygon id="Fill-7" points="324.491453 151.868822 137.620434 43.8836767 135.544186 45.0913256 322.414725 153.076471"></polygon>
                            <polygon id="Fill-8" points="371.603484 124.466143 184.732465 16.4809977 182.656217 17.689127 369.526755 125.673792"></polygon>
                            <polygon id="Fill-9" points="362.180214 129.947159 175.309195 21.9620139 173.232947 23.1701432 360.103965 131.154808"></polygon>
                            <polygon id="Fill-10" points="397.792246 109.233145 399.868975 108.025497 212.997956 0.0403510393 210.921707 1.24848037"></polygon>
                            <polygon id="Fill-11" points="381.024834 118.986568 194.153816 11.0014226 192.077087 12.2090716 378.948106 120.194217"></polygon>
                            <polygon id="Fill-12" points="315.070103 157.348397 128.199564 49.3637321 126.122836 50.5713811 312.993854 158.556527"></polygon>
                            <polygon id="Fill-13" points="390.447624 113.505552 203.577086 5.52040647 201.500357 6.72805543 388.371376 114.713201"></polygon>
                            <polygon id="Fill-14" points="249.113932 195.712148 62.243393 87.7270023 60.1666644 88.9346513 247.037683 196.919797"></polygon>
                            <polygon id="Fill-14" points="267.113932 184.712148 80.243393 76.7270023 78.1666644 77.9346513 265.037683 185.919797"></polygon>
                            <polygon id="Fill-15" points="239.693061 201.191723 52.8220428 93.2065774 50.7433944 94.4156674 237.614413 202.400813"></polygon>
                            <polygon id="Fill-16" points="230.269791 206.672739 43.3987727 98.6875935 41.3225241 99.8957229 228.193063 207.880388"></polygon>
                            <polygon id="Fill-17" points="258.537202 190.231132 71.6661832 82.2459861 69.5880147 83.4550762 256.458553 191.439741"></polygon>
                            <polygon id="Fill-18" points="305.647313 162.829413 118.776294 54.8447483 116.699566 56.0523972 303.570584 164.037543"></polygon>
                            <polygon id="Fill-19" points="296.225963 168.309469 109.354944 60.3243233 107.278695 61.5319723 294.149234 169.517118"></polygon>
                            <polygon id="Fill-20" points="285.802693 173.790485 98.9316738 65.8053395 96.8554251 67.0129885 283.725964 174.998134"></polygon>
                            <polygon id="Fill-21" points="276.381822 179.27006 89.5108035 71.2849145 87.4340749 72.4930439 274.305094 180.477709"></polygon>
                            <polygon id="Fill-20" points="198.802693 199.27006 11.9316738 91.2849145 9.85542513 92.4925635 196.725964 200.477709"></polygon>
                            <polygon id="Fill-21" points="189.381822 193.790485 2.51080348 85.8053395 0.434074866 87.0134688 187.305094 194.998134"></polygon>
                        </g>
                    </g>
                </g>
                <g id="table-and-chair" transform="translate(225.000000, 217.000000)">
                    <g id="chair" transform="translate(40.685393, 0.000000)">
                        <polyline id="Fill-599" fill="#B0612F" points="2.50494382 27.6517692 2.5408427 42.7394135 4.53682022 41.5869904 4.47619101 26.4243269 2.50494382 27.6517692"></polyline>
                        <polyline id="Fill-600" fill="#D8743E" points="2.5408427 42.7394135 0.497 41.5510769 0.461101124 26.4634327 2.50494382 27.6517692 2.5408427 42.7394135"></polyline>
                        <polyline id="Fill-601" fill="#B0612F" points="15.3862584 35.1951923 15.4221573 50.2828365 17.4173371 49.1304135 17.388618 36.3380385 27.5160899 30.4881346 27.544809 43.2805096 29.5407865 42.1280865 29.5048876 27.0404423 15.3862584 35.1951923"></polyline>
                        <polyline id="Fill-602" fill="#D8743E" points="0.461101124 26.4634327 15.3862584 35.1951923 15.3862584 37.2941346 0.461101124 28.5631731 0.461101124 26.4634327"></polyline>
                        <polyline id="Fill-603" fill="#D8743E" points="27.5160899 30.4881346 25.4730449 29.2997981 25.501764 42.0929712 27.544809 43.2805096 27.5160899 30.4881346"></polyline>
                        <polyline id="Fill-604" fill="#B0612F" points="15.3862584 35.1951923 15.4221573 50.2828365 17.4173371 49.1304135 17.388618 36.3380385 27.5160899 30.4881346 27.544809 43.2805096 29.5407865 42.1280865 29.5048876 27.0404423 15.3862584 35.1951923"></polyline>
                        <polyline id="Fill-605" fill="#D8743E" points="15.3862584 35.1951923 13.3432135 34.0068558 13.3791124 49.0952981 15.4221573 50.2828365 15.3862584 35.1951923"></polyline>
                        <polyline id="Fill-606" fill="#D87D45" points="29.5048876 27.0404423 14.5797303 18.3086827 0.461101124 26.4634327 15.3862584 35.1951923 29.5048876 27.0404423"></polyline>
                        <polyline id="Fill-607" fill="#D8743E" points="12.6324157 1.69192308 12.5933258 19.4555192 14.6220112 20.6350769 14.6618989 2.8635 12.6324157 1.69192308"></polyline>
                        <polyline id="Fill-608" fill="#B0612F" points="14.6220112 20.6350769 16.5988427 19.4786635 16.6379326 1.71426923 14.6618989 2.8635 14.6220112 20.6350769"></polyline>
                        <polyline id="Fill-609" fill="#D87D45" points="14.6618989 2.8635 16.6379326 1.71426923 14.6092472 0.542692308 12.6324157 1.69192308 14.6618989 2.8635"></polyline>
                        <polyline id="Fill-610" fill="#D8743E" points="25.5352697 9.24971154 25.495382 27.0133077 27.5248652 28.1856827 27.5647528 10.4220865 25.5352697 9.24971154"></polyline>
                        <polyline id="Fill-611" fill="#B0612F" points="27.5248652 28.1856827 29.5048876 27.0404423 29.5407865 9.27285577 27.5647528 10.4220865 27.5248652 28.1856827"></polyline>
                        <polyline id="Fill-612" fill="#D87D45" points="27.5647528 10.4220865 29.5407865 9.27285577 27.5113034 8.10048077 25.5352697 9.24971154 27.5647528 10.4220865"></polyline>
                        <polyline id="Fill-613" fill="#DA8A51" points="29.5048876 9.24651923 14.5741461 0.517153846 12.5973146 1.66638462 27.5288539 10.39575 29.5048876 9.24651923"></polyline>
                        <polyline id="Fill-614" fill="#D8743E" points="12.5973146 9.91450962 27.5288539 18.643875 27.5288539 10.39575 12.5973146 1.66638462 12.5973146 9.91450962"></polyline>
                    </g>
                    <g id="table" transform="translate(0.000000, 17.557692)">
                        <polyline id="Fill-619" fill="#719A9F" points="26.9623235 37.7329509 26.9632052 63.3875116 29.2645121 64.7256346 29.2636304 39.0701918 26.9623235 37.7329509"></polyline>
                        <polyline id="Fill-620" fill="#4F6A6C" points="29.2636304 39.0701918 29.2645121 64.7256346 31.5808084 63.3883937 31.5799267 37.7329509 29.2636304 39.0701918"></polyline>
                        <polyline id="Fill-621" fill="#7EADB3" points="61.5974335 17.6875688 63.8996221 19.0248097 66.2150367 17.6875688 63.9137297 16.3494459 61.5974335 17.6875688"></polyline>
                        <polyline id="Fill-622" fill="#719A9F" points="61.5974335 17.6875688 61.5983152 43.3421296 63.9005038 44.6802525 63.8996221 19.0248097 61.5974335 17.6875688"></polyline>
                        <polyline id="Fill-623" fill="#4F6A6C" points="63.8996221 19.0248097 63.9005038 44.6802525 66.2159184 43.3430116 66.2150367 17.6875688 63.8996221 19.0248097"></polyline>
                        <polyline id="Fill-618" fill="#7EADB3" points="26.9623235 37.7329509 29.2636304 39.0701918 31.5799267 37.7329509 29.2786198 36.3948279 26.9623235 37.7329509"></polyline>
                        <polyline id="Fill-616" fill="#719A9F" points="0.659531638 21.9145202 0.660413365 47.5699631 2.96083856 48.908086 2.96083856 23.2526432 0.659531638 21.9145202"></polyline>
                        <polyline id="Fill-617" fill="#4F6A6C" points="2.96083856 23.2526432 2.96083856 48.908086 5.27713483 47.5699631 5.2762531 21.9154023 2.96083856 23.2526432"></polyline>
                        <polyline id="Fill-615" fill="#7EADB3" points="0.659531638 21.9145202 2.96083856 23.2526432 5.2762531 21.9154023 2.97494619 20.5772794 0.659531638 21.9145202"></polyline>
                        <polyline id="Fill-624" fill="#94CDD1" points="0.659531638 21.8668877 29.2715659 39.0393188 66.2097463 17.7043284 37.5968303 0.531897267 0.659531638 21.8668877"></polyline>
                        <polyline id="Fill-625" fill="#719A9F" points="0.659531638 21.8668877 0.665703726 24.567832 29.277738 41.7402632 29.2715659 39.0393188 0.659531638 21.8668877"></polyline>
                        <polyline id="Fill-626" fill="#4F6A6C" points="29.2715659 39.0393188 29.277738 41.7402632 66.2159184 20.4052728 66.2097463 17.7043284 29.2715659 39.0393188"></polyline>
                    </g>
                </g>
                <g id="Container" transform="translate(204.000000, 127.000000)" stroke="#FFEAB5" stroke-width="0.7" stroke-linecap="round" stroke-linejoin="round">
                    <polygon id="Rectangle-3" fill="#FBD26E" points="4.25801048 86.8449369 155.665915 2.71664308 151.624803 0.586035748 0.410658102 84.6572358"></polygon>
                    <polygon id="Path-8" fill="#D9AE41" points="3.29793908 86.5833362 3.41447298 93.6600812 158.049749 9.12547676 158.049749 1.9666129"></polygon>
                </g>
                <g id="Container" transform="translate(215.000000, 156.000000)" stroke="#FFEAB5" stroke-width="0.7" stroke-linecap="round" stroke-linejoin="round">
                    <polygon id="Rectangle-3" fill="#FBD26E" points="4.25801048 86.8449369 155.665915 2.71664308 151.624803 0.586035748 0.410658102 84.6572358"></polygon>
                    <polygon id="Path-8" fill="#D9AE41" points="3.29793908 86.5833362 3.41447298 93.6600812 158.049749 9.12547676 158.049749 1.9666129"></polygon>
                </g>
                <g id="Container" transform="translate(188.000000, 102.000000)" stroke="#FFEAB5" stroke-width="0.7" stroke-linecap="round" stroke-linejoin="round">
                    <polygon id="Rectangle-3" fill="#FBD26E" points="4.25801048 86.8449369 155.665915 2.71664308 151.624803 0.586035748 0.410658102 84.6572358"></polygon>
                    <polygon id="Path-8" fill="#D9AE41" points="3.29793908 86.5833362 3.41447298 93.6600812 158.049749 9.12547676 158.049749 1.9666129"></polygon>
                </g>
                <g id="roof-slant" transform="translate(117.000000, 295.000000)" stroke="#8AB5FB" stroke-width="0.7" stroke-linecap="round" stroke-linejoin="round">
                    <polygon id="Path-8-Copy" fill="#295BAD" transform="translate(54.011853, 53.044121) scale(-1, 1) translate(-54.011853, -53.044121) " points="0.942824255 73.7598084 0.942824255 92.884385 107.080881 30.4138481 107.080881 13.2038562"></polygon>
                    <polygon id="Rectangle-3-Copy" fill="#3479EB" transform="translate(63.935293, 35.894979) scale(-1, 1) translate(-63.935293, -35.894979) " points="26.3275226 71.0268815 119.746093 16.6904426 112.271962 0.763077367 8.12449253 61.2726984"></polygon>
                </g>
                <g id="back" transform="translate(10.000000, 0.000000)">
                    <g id="slant-right" transform="translate(170.000000, 20.000000)" stroke="#FFEAB5" stroke-width="0.7" stroke-linecap="round" stroke-linejoin="round">
                        <polygon id="Rectangle-3" fill="#FBD26E" points="95.3914249 67.6208991 127.591454 49.3725318 115.303714 42.2937249 83.3845208 60.0009682"></polygon>
                        <polygon id="Path-8" fill="#D9AE41" points="95.1003796 67.9319825 95.1003796 71.8880151 127.42722 53.6606104 127.557217 49.6396566"></polygon>
                        <polygon id="Path-8" fill="#D9AE41" points="3.84221984 0.892726883 0.384684443 3.04083446 95.1027813 71.8866265 95.1027813 68.1343195"></polygon>
                        <polygon id="Path-8" fill="#D9AE41" points="5.0603755 0.502887516 4.44128724 0.763679387 95.1027813 67.8906527 95.3808287 67.5840659"></polygon>
                    </g>
                    <g id="chimney" transform="translate(125.000000, 0.000000)">
                        <g id="Container" transform="translate(3.000000, 6.000000)" stroke="#FFEAB5" stroke-width="0.7" stroke-linecap="round" stroke-linejoin="round">
                            <polygon id="Rectangle-3" fill="#FBD26E" points="10.8436247 27.4012904 46.0643781 7.00395805 35.0337297 0.710831711 0.145103552 21.0887628"></polygon>
                            <polygon id="Path-8" fill="#D9AE41" points="10 27.3507843 10 41.0012563 46.0643781 20.2679748 46.0643781 7.00395805"></polygon>
                        </g>
                        <g id="Container" transform="translate(0.000000, 1.000000)" stroke="#FFEAB5" stroke-width="0.7" stroke-linecap="round" stroke-linejoin="round">
                            <polygon id="Rectangle-3" fill="#FBD26E" points="12.2580105 29.8449369 51.5914544 7.37253184 39.3037141 0.293724924 0.164030103 22.7090362"></polygon>
                            <polygon id="Path-8" fill="#D9AE41" points="11.414473 29.7040486 11.414473 33.6600812 51.4272199 11.6606104 51.5572168 7.63965663"></polygon>
                            <polygon id="Rectangle-2" fill="#FFD262" points="0.127041746 23.1097234 11.3652714 29.7490785 11.3652714 33.7096083 0.127041746 27.0268161"></polygon>
                        </g>
                        <g id="BigYellow" opacity="0.644870924" transform="translate(1.000000, 0.000000)"></g>
                        <g id="Container" transform="translate(3.000000, 13.000000)" stroke="#FFEAB5" stroke-width="0.7" stroke-linecap="round" stroke-linejoin="round">
                            <polygon id="Path-8" fill="#D9AE41" points="11.4329849 19.3300743 11.4329849 34.9842109 12.6847024 32.5815418 12.6847024 18.6046623"></polygon>
                            <polygon id="Rectangle-2" fill="#FFD262" points="1 14.0518987 11.4085594 19.7140072 11.4085594 31.4282921 0.886062482 25.1636525"></polygon>
                        </g>
                    </g>
                    <g id="slant-left" transform="translate(0.000000, 38.000000)" stroke-linecap="round" stroke="#FFEAB5" stroke-width="0.7" stroke-linejoin="round">
                        <g id="Container" transform="translate(0.000000, 174.000000)">
                            <polygon id="Path-8" fill="#D9AE41" points="14.1578271 27.9762294 14.1578271 76.9293323 16.2157846 75.8789932 16.2157846 26.8935405"></polygon>
                            <polygon id="Rectangle-2" fill="#FFD262" points="6.11238308 23.6268421 14.053894 28.5872234 14.053894 77.0003653 6.11238308 72.2702685"></polygon>
                        </g>
                        <g id="Container" transform="translate(0.000000, 174.000000)">
                            <polygon id="Rectangle-3" fill="#FBD26E" points="10.8436247 27.4012904 46.0643781 7.00395805 35.0337297 0.710831711 0.145103552 21.0887628"></polygon>
                            <polygon id="Path-8" fill="#D9AE41" points="10 27.3507843 10 30.8503516 46.0643781 10.3272944 46.0643781 7.00395805"></polygon>
                            <polygon id="Rectangle-2" fill="#FFD262" points="0.112383083 21.4432168 10.053894 27.3164925 10.053894 30.8200381 0.112383083 24.9083374"></polygon>
                        </g>
                        <g id="Container" transform="translate(34.000000, 0.000000)">
                            <polygon id="Rectangle-3" fill="#FBD26E" points="12.2990117 181.06589 105.365263 6.31546785 94.8140092 0.196668242 1.08463231 174.530517"></polygon>
                            <polygon id="Path-8" fill="#D9AE41" points="12.217677 181.310257 12.217677 184.321532 105.404897 10.0505073 105.404897 6.31931181"></polygon>
                        </g>
                    </g>
                </g>
                <g id="Container" transform="translate(40.000000, 58.000000)" stroke="#FFEAB5" stroke-width="0.7" stroke-linecap="round" stroke-linejoin="round">
                    <polygon id="Rectangle-3" fill="#D9AE41" points="80.7514582 270.16073 200.876683 46.2185963 121.814009 0.196668242 0.26306145 225.338556"></polygon>
                    <polygon id="Rectangle-3" fill="#FBD26E" points="77.2480456 269.737552 198.135868 44.17909 121.814009 0.196668242 0.26306145 225.338556"></polygon>
                </g>
                <g id="window-support" transform="translate(196.000000, 100.000000)" stroke-width="0.7" stroke-linecap="round" stroke-linejoin="round">
                    <polygon id="Rectangle-3" stroke="#FFEAB5" fill="#D9AE41" points="8.0617231 210.938337 106.306375 4.01006593 101.576099 0.856548394 5.02509918 210.938337"></polygon>
                    <polygon id="Rectangle-3" stroke="#FAE3A8" fill="#FBD26E" points="3.98397039 211.706473 100.491784 3.89899483 96.5810291 0.856548394 0.0300292969 210.938337"></polygon>
                </g>
                <g id="window-support" transform="translate(153.000000, 100.000000)" stroke-width="0.7" stroke-linecap="round" stroke-linejoin="round">
                    <polygon id="Rectangle-3" stroke="#FFEAB5" fill="#D9AE41" points="8.0617231 210.938337 106.306375 4.01006593 101.576099 0.856548394 5.02509918 210.938337"></polygon>
                    <polygon id="Rectangle-3" stroke="#FAE3A8" fill="#FBD26E" points="3.98397039 211.706473 100.491784 3.89899483 96.5810291 0.856548394 0.0300292969 210.938337"></polygon>
                </g>
                <g id="Group-22" transform="translate(318.000000, 79.000000)">
                    <g id="Group-21">
                        <polygon id="Fill-190" stroke="#FFEAB5" fill="#F0F0F0" points="126.825865 103.912616 63.7988181 140.577233 63.7988181 79.2466744 126.825865 43.6787358"></polygon>
                        <polyline id="Fill-188" stroke="#FFEAB5" fill="#D9AE41" points="0.0821047581 42.4385581 63.8843439 79.2466744 136.324688 36.8081163 72.6900792 0 0.0821047581 42.4385581"></polyline>
                        <polyline id="Fill-189" fill="#B15D2E" points="0.0821047581 42.4385581 0 60.8169767 63.7167133 97.5772326 63.8843439 79.2466744 0.0821047581 42.4385581"></polyline>
                        <polygon id="Fill-190" stroke="#FFEAB5" fill="#FBD26E" points="136.825865 47.9126155 63.7988181 90.5772326 63.7988181 79.2466744 136.825865 37.6787358"></polygon>
                    </g>
                </g>
                <g id="roof-slant" transform="translate(161.000000, 28.000000)" stroke="#8AB5FB" stroke-width="0.7" stroke-linecap="round" stroke-linejoin="round">
                    <polygon id="Path-8-Copy" fill="#3479EB" transform="translate(95.281755, 73.836279) scale(-1, 1) translate(-95.281755, -73.836279) " points="0.407101152 117.200032 0.407101152 139.782775 190.156409 30.7789482 190.156409 7.88978161"></polygon>
                    <polygon id="Rectangle-3-Copy" fill="#295BAD" transform="translate(102.509683, 59.573607) scale(-1, 1) translate(-102.509683, -59.573607) " points="12.2820313 118.575963 204.521735 7.807105 192.675743 0.57125013 0.497631123 110.701711"></polygon>
                </g>
                <g id="roof-slant" transform="translate(24.000000, 275.000000)" stroke="#8AB5FB" stroke-width="0.7" stroke-linecap="round" stroke-linejoin="round">
                    <polygon id="Path-8-Copy" fill="#295BAD" transform="translate(101.140260, 67.906130) scale(-1, 1) translate(-101.140260, -67.906130) " points="0.199639386 120.759808 0.199639386 131.732284 202.080881 14.1320908 202.080881 4.07997617"></polygon>
                    <polygon id="Rectangle-3-Copy" fill="#3479EB" transform="translate(101.860687, 59.442703) scale(-1, 1) translate(-101.860687, -59.442703) " points="7.17831132 118.026881 203.521735 4.07997617 197.760269 0.858525493 0.199639386 113.701711"></polygon>
                </g>
                <g id="Container" transform="translate(212.000000, 330.000000)" stroke="#FFEAB5" stroke-width="0.7" stroke-linecap="round" stroke-linejoin="round">
                    <polygon id="Path-8" fill="#D9AE41" points="14.1578271 27.9762294 14.1578271 76.9293323 16.2157846 75.8789932 16.2157846 26.8935405"></polygon>
                    <polygon id="Rectangle-2" fill="#FFD262" points="6.11238308 23.6268421 14.053894 28.5872234 14.053894 77.0003653 6.11238308 72.2702685"></polygon>
                </g>
                <g id="front" transform="translate(215.000000, 104.000000)" stroke="#FFEAB5">
                    <g id="slant-right" transform="translate(174.000000, 38.000000)" stroke-width="0.7" stroke-linecap="round" stroke-linejoin="round">
                        <polygon id="Rectangle-3" fill="#FBD26E" points="95.3914249 67.6208991 127.591454 49.3725318 115.303714 42.2937249 83.3845208 60.0009682"></polygon>
                        <polygon id="Path-8" fill="#D9AE41" points="95.1003796 67.9319825 95.1003796 71.8880151 127.42722 53.6606104 127.557217 49.6396566"></polygon>
                        <polygon id="Path-8" fill="#D9AE41" points="3.84221984 0.892726883 0.384684443 3.04083446 95.1027813 71.8866265 95.1027813 68.1343195"></polygon>
                        <polygon id="Path-8" fill="#D9AE41" points="5.0603755 0.502887516 4.44128724 0.763679387 95.1027813 67.8906527 95.3808287 67.5840659"></polygon>
                    </g>
                    <g id="slant-left" transform="translate(0.000000, 28.000000)" stroke-linecap="round" stroke-width="0.7" stroke-linejoin="round">
                        <g id="Container" transform="translate(0.000000, 196.404348)">
                            <polygon id="Rectangle-3" fill="#FBD26E" points="10.8436247 27.0438822 46.0643781 6.91260208 35.0337297 0.701559993 0.145103552 20.813692"></polygon>
                            <polygon id="Path-8" fill="#D9AE41" points="10 26.9940349 10 30.4479557 46.0643781 10.1925906 46.0643781 6.91260208"></polygon>
                            <polygon id="Rectangle-2" fill="#FFD262" points="0.112383083 21.1635227 10.053894 26.9601905 10.053894 30.4180376 0.112383083 24.583446"></polygon>
                        </g>
                        <g id="Container" transform="translate(34.000000, 0.000000)">
                            <polygon id="Rectangle-3" fill="#FBD26E" points="12.2990117 203.378075 105.365263 30.9070052 94.8140092 24.868016 1.08463231 196.927945"></polygon>
                            <g transform="translate(94.000000, 0.000000)">
                                <polygon id="Path-8" fill="#D9AE41" points="11.4329849 19.0779429 11.4329849 34.5278951 12.6847024 32.1565652 12.6847024 18.3619928"></polygon>
                                <polygon id="Rectangle-2" fill="#FFD262" points="1 13.868613 11.4085594 19.456868 11.4085594 31.0183579 0.886062482 24.835431"></polygon>
                            </g>
                            <polygon id="Path-8" fill="#D9AE41" points="12.0913588 203.619955 12.0913588 206.575408 105.404897 34.5933268 105.404897 30.910799"></polygon>
                        </g>
                    </g>
                    <g id="chimney" transform="translate(127.000000, 0.000000)">
                        <g id="Container" transform="translate(3.000000, 20.000000)" stroke-width="0.7" stroke-linecap="round" stroke-linejoin="round">
                            <polygon id="Rectangle-3" fill="#FBD26E" points="10.8436247 27.4012904 46.0643781 7.00395805 35.0337297 0.710831711 0.145103552 21.0887628"></polygon>
                            <polygon id="Path-8" fill="#D9AE41" points="9.59437023 27.7244106 9.59437023 41.3748826 48.7560336 18.1116964 48.7560336 4.84767962"></polygon>
                        </g>
                        <g id="Container" stroke-width="0.7" stroke-linecap="round" stroke-linejoin="round">
                            <polygon id="Rectangle-3" fill="#FBD26E" points="12.2580105 30.8449369 53.1668719 7.625969 40.8791316 0.547162087 0.164030103 23.7090362"></polygon>
                            <polygon id="Path-8" fill="#D9AE41" points="11.2979391 30.5833362 11.414473 48.6600812 53.2280204 25.8380681 53.2280204 7.67920426"></polygon>
                            <polygon id="Rectangle-2" fill="#FFD262" points="0.127041746 23.7679747 11.3652714 30.4073298 11.3652714 48.7096083 0.127041746 42.0268161"></polygon>
                        </g>
                        <g id="Group-19" transform="translate(11.000000, 10.000000)">
                            <path d="M0.0138210206,3.18870728 L0.0322490481,3.35364042 L0.067569434,3.49034175 L0.115175172,3.64784547 L0.170459254,3.77711738 L0.25031404,3.94056464 L0.32402615,4.05794948 L0.453022342,4.24368499 L0.540555472,4.34918276 L0.772441485,4.59138187 L0.863045953,4.67607727 L1.03043387,4.80980684 L1.18400076,4.92719168 L1.37903072,5.05349183 L1.5878817,5.18424963 C1.82437472,5.31649331 2.08390277,5.42942051 2.3495735,5.53343239 L2.56303149,5.61069837 C2.72734806,5.66864785 2.90241433,5.71619614 3.07440925,5.76225854 C3.25561819,5.81129272 3.43529145,5.85735513 3.62264307,5.89450223 C3.84224373,5.93759287 4.06338006,5.97771174 4.28912339,6.00445765 L4.44883296,6.02674591 C4.75289542,6.05794948 5.06002921,6.07429421 5.36869867,6.07578009 L5.51458722,6.07726597 C5.81864967,6.07429421 6.12117646,6.05794948 6.42216757,6.0282318 L6.55884211,6.01337296 C6.85676189,5.97771174 7.15007466,5.93016345 7.43570908,5.86775632 L7.59234732,5.83060921 C7.85187537,5.76820208 8.10526075,5.69242199 8.34943211,5.6077266 L8.48457098,5.56315007 C8.77788375,5.45319465 9.0573755,5.32838039 9.31690355,5.18424963 C10.3949432,4.58098068 10.933963,3.78900446 10.9324273,3 L10.9999967,7.92273403 C11.0015324,8.71322437 10.4625126,9.50371471 9.38447299,10.1069837 C9.13723028,10.243685 8.87309522,10.3655275 8.59667481,10.4710253 L8.55214041,10.4858841 L8.41700154,10.5304606 C8.25729197,10.5869242 8.09911807,10.6433878 7.93326582,10.6879643 L7.65991675,10.7533432 L7.50481419,10.7904903 L7.36199697,10.8246657 C7.18385937,10.858841 7.00265044,10.8900446 6.81990583,10.9153046 L6.62641154,10.936107 L6.48973701,10.9509658 L6.28856437,10.9732541 C6.11042677,10.986627 5.93075351,10.9955423 5.74954457,11 L5.58215665,11 L5.4362681,10.9985141 L5.19056107,10.9985141 C4.9863171,10.9910847 4.7836088,10.9777117 4.58397183,10.9583952 L4.5164024,10.9494799 L4.35669283,10.9286776 C4.19851892,10.9093611 4.04034502,10.8915305 3.88677813,10.8647845 L3.6902125,10.8172363 C3.50286089,10.7800892 3.32318762,10.7340267 3.14351435,10.6864785 L2.85173725,10.615156 L2.63060092,10.5349183 L2.41714294,10.4561664 C2.15147221,10.3536404 1.89194415,10.2392273 1.65545113,10.1069837 L1.5878817,10.0683507 L1.44660016,9.97771174 L1.2515702,9.85141159 L1.0980033,9.73402675 L0.930615387,9.60029718 L0.89683067,9.57355126 L0.840010919,9.5141159 L0.608124906,9.27340267 L0.557447831,9.21991085 L0.520591776,9.16641902 L0.391595584,8.98216939 L0.33784717,8.90490342 L0.317883474,8.86478455 L0.238028688,8.69985141 L0.191958619,8.60326895 L0.182744606,8.57057949 L0.135138868,8.41307578 L0.104425489,8.30609212 L0.101354151,8.27637444 L0.0813904546,8.11144131 L0.067569434,8.00297177 L0.067569434,7.95542348 L0,3.03268945 L0.0138210206,3.18870728" id="Fill-431" fill="#FFD262"></path>
                            <path d="M1.6226342,0.879748395 C3.77811974,-0.291550914 7.26088993,-0.294460974 9.40246911,0.878293365 C11.5440483,2.04959267 11.5301419,3.94986211 9.3746564,5.12261645 C7.22226116,6.2910057 3.73949097,6.29391576 1.59791178,5.12261645 C-0.543667404,3.94986211 -0.529761046,2.04959267 1.6226342,0.879748395" id="Fill-432" fill="#D9AE41"></path>
                        </g>
                        <g id="Group-19" transform="translate(26.000000, 2.000000)">
                            <path d="M0.0138210206,3.18870728 L0.0322490481,3.35364042 L0.067569434,3.49034175 L0.115175172,3.64784547 L0.170459254,3.77711738 L0.25031404,3.94056464 L0.32402615,4.05794948 L0.453022342,4.24368499 L0.540555472,4.34918276 L0.772441485,4.59138187 L0.863045953,4.67607727 L1.03043387,4.80980684 L1.18400076,4.92719168 L1.37903072,5.05349183 L1.5878817,5.18424963 C1.82437472,5.31649331 2.08390277,5.42942051 2.3495735,5.53343239 L2.56303149,5.61069837 C2.72734806,5.66864785 2.90241433,5.71619614 3.07440925,5.76225854 C3.25561819,5.81129272 3.43529145,5.85735513 3.62264307,5.89450223 C3.84224373,5.93759287 4.06338006,5.97771174 4.28912339,6.00445765 L4.44883296,6.02674591 C4.75289542,6.05794948 5.06002921,6.07429421 5.36869867,6.07578009 L5.51458722,6.07726597 C5.81864967,6.07429421 6.12117646,6.05794948 6.42216757,6.0282318 L6.55884211,6.01337296 C6.85676189,5.97771174 7.15007466,5.93016345 7.43570908,5.86775632 L7.59234732,5.83060921 C7.85187537,5.76820208 8.10526075,5.69242199 8.34943211,5.6077266 L8.48457098,5.56315007 C8.77788375,5.45319465 9.0573755,5.32838039 9.31690355,5.18424963 C10.3949432,4.58098068 10.933963,3.78900446 10.9324273,3 L10.9999967,7.92273403 C11.0015324,8.71322437 10.4625126,9.50371471 9.38447299,10.1069837 C9.13723028,10.243685 8.87309522,10.3655275 8.59667481,10.4710253 L8.55214041,10.4858841 L8.41700154,10.5304606 C8.25729197,10.5869242 8.09911807,10.6433878 7.93326582,10.6879643 L7.65991675,10.7533432 L7.50481419,10.7904903 L7.36199697,10.8246657 C7.18385937,10.858841 7.00265044,10.8900446 6.81990583,10.9153046 L6.62641154,10.936107 L6.48973701,10.9509658 L6.28856437,10.9732541 C6.11042677,10.986627 5.93075351,10.9955423 5.74954457,11 L5.58215665,11 L5.4362681,10.9985141 L5.19056107,10.9985141 C4.9863171,10.9910847 4.7836088,10.9777117 4.58397183,10.9583952 L4.5164024,10.9494799 L4.35669283,10.9286776 C4.19851892,10.9093611 4.04034502,10.8915305 3.88677813,10.8647845 L3.6902125,10.8172363 C3.50286089,10.7800892 3.32318762,10.7340267 3.14351435,10.6864785 L2.85173725,10.615156 L2.63060092,10.5349183 L2.41714294,10.4561664 C2.15147221,10.3536404 1.89194415,10.2392273 1.65545113,10.1069837 L1.5878817,10.0683507 L1.44660016,9.97771174 L1.2515702,9.85141159 L1.0980033,9.73402675 L0.930615387,9.60029718 L0.89683067,9.57355126 L0.840010919,9.5141159 L0.608124906,9.27340267 L0.557447831,9.21991085 L0.520591776,9.16641902 L0.391595584,8.98216939 L0.33784717,8.90490342 L0.317883474,8.86478455 L0.238028688,8.69985141 L0.191958619,8.60326895 L0.182744606,8.57057949 L0.135138868,8.41307578 L0.104425489,8.30609212 L0.101354151,8.27637444 L0.0813904546,8.11144131 L0.067569434,8.00297177 L0.067569434,7.95542348 L0,3.03268945 L0.0138210206,3.18870728" id="Fill-431" fill="#FFD262"></path>
                            <path d="M1.6226342,0.879748395 C3.77811974,-0.291550914 7.26088993,-0.294460974 9.40246911,0.878293365 C11.5440483,2.04959267 11.5301419,3.94986211 9.3746564,5.12261645 C7.22226116,6.2910057 3.73949097,6.29391576 1.59791178,5.12261645 C-0.543667404,3.94986211 -0.529761046,2.04959267 1.6226342,0.879748395" id="Fill-432" fill="#D9AE41"></path>
                        </g>
                    </g>
                </g>
                <polygon id="front-face" fill="#F0F0F0" points="260.291304 339.10014 356.890594 162.635296 389.59744 144 485.055794 213.653142 509.395772 199.905888 509.395772 243.559223 228 406.37641 228 356.974812"></polygon>
                <g id="Group-4" transform="translate(369.000000, 189.000000)">
                    <mask id="mask-3" fill="white">
                        <use xlink:href="#path-2"></use>
                    </mask>
                    <use id="Mask" fill="#5FC0CA" xlink:href="#path-2"></use>
                    <g mask="url(#mask-3)">
                        <g transform="translate(0.000000, -3.000000)">
                            <polyline id="Fill-1372" fill="#7AC4B0" points="15.2657143 20.4714286 0.542857143 29.0171429 0.542857143 26.1085714 12.52 19.1885714 15.2657143 20.4714286"></polyline>
                            <polyline id="Fill-1373" fill="#1B6052" points="15.26 0.522857143 15.2657143 20.4714286 12.52 19.1885714 12.5171429 2.14857143 15.26 0.522857143"></polyline>
                            <polyline id="Fill-1374" fill="#5FC0CA" points="12.5171429 2.14857143 12.52 19.1885714 0.542857143 26.1085714 0.537142857 9.06857143 12.5171429 2.14857143"></polyline>
                            <polyline id="Fill-1375" fill="#B6DEE0" points="9.39142857 17.3314286 9.38857143 3.95714286 0.537142857 9.06857143 9.39142857 17.3314286"></polyline>
                            <polyline id="Fill-1376" fill="#B6DEE0" points="0.537142857 11.0514286 8.08 18.0914286 6.76571429 18.8485714 0.54 13.1114286 0.537142857 11.0514286"></polyline>
                            <polyline id="Fill-1377" fill="#1F91AD" points="10.7371429 18.16 10.7342857 3.18 12.5171429 2.14857143 12.52 19.1885714 0.542857143 26.1085714 0.542857143 24.0485714 10.7371429 18.16"></polyline>
                        </g>
                    </g>
                </g>
                <g id="small-window" transform="translate(320.000000, 268.000000)">
                    <polyline id="Fill-1372" fill="#1B6052" points="23.8677 29.3735 3.771 41.0384 3.771 37.0682 20.1198 27.6224 23.8677 29.3735"></polyline>
                    <polygon id="Fill-1372" fill="#7AC4B0" points="3.75820312 13.8125 0.051171875 12.4007813 20.5142381 0.553216078 23.8724543 2.13545955"></polygon>
                    <polygon id="Fill-1373" fill="#1B6052" points="23.8677 29.3735 20.1198 27.6224 20.1159 4.3628 23.8599 2.1437"></polygon>
                    <polyline id="Fill-1374" fill="#5FC0CA" points="20.1159 4.3628 20.1198 27.6224 3.771 37.0682 3.7632 13.8086 20.1159 4.3628"></polyline>
                    <polyline id="Fill-1375" fill="#B6DEE0" points="15.8493 25.0874 15.8454 6.8315 3.7632 13.8086 15.8493 25.0874"></polyline>
                    <polyline id="Fill-1376" fill="#B6DEE0" points="3.7632 16.5152 14.0592 26.1248 12.2652 27.1583 3.7671 19.3271 3.7632 16.5152"></polyline>
                    <polyline id="Fill-1377" fill="#1F91AD" points="17.6862 26.2184 17.6823 5.7707 20.1159 4.3628 20.1198 27.6224 3.771 37.0682 3.771 34.2563 17.6862 26.2184"></polyline>
                    <polygon id="Fill-1373" fill="#1B6052" points="3.79186348 41.0097683 0.0439634766 39.2586683 0.0439634766 12.4000515 3.76328125 13.8074219"></polygon>
                    <polygon id="Fill-1372" fill="#7AC4B0" points="3.75820312 13.8125 3.75820312 16.179151 23.8724543 4.3651232 23.8724543 2.13545955"></polygon>
                    <polygon id="Fill-1372" fill="#7AC4B0" points="3.82406576 38.6249725 3.82406576 40.9916236 23.8729683 29.3538655 23.8729683 27.1242018"></polygon>
                    <polygon id="Fill-1372" fill="#7AC4B0" points="23.8729683 4.25357388 22.1534912 5.29499052 22.1534912 28.2839634 23.8729683 27.1242018"></polygon>
                    <polygon id="Fill-1372" fill="#7AC4B0" points="3.76328125 41.0318087 5.51409601 40.0303256 5.51409601 12.7829632 3.76328125 13.7972656"></polygon>
                    <polygon id="Fill-1372" fill="#5DA08E" points="3.75820312 13.8125 0.051171875 12.4007813 20.5142381 0.553216078 23.8724543 2.13545955"></polygon>
                </g>
                <g id="top-window-unit" transform="translate(143.000000, 203.000000)">
                    <g id="windows" transform="translate(0.000000, 36.000000)">
                        <path d="M0.1185,0.127578947 L0.1185,77.7965789 L40.9175,100.558789 L40.9175,22.8897895 L0.1185,0.127578947 Z M4.315,7.15505263 L36.7155,25.2340526 L36.7155,93.5313158 L4.315,75.4523158 L4.315,7.15505263 L4.315,7.15505263 Z" id="Fill-719" fill="#F3F6F6"></path>
                        <polyline id="Fill-720" fill="#BCD3D3" points="4.315 75.4523158 36.7155 93.5313158 36.7155 88.8481053 8.517 73.1133684 4.315 75.4523158"></polyline>
                        <polyline id="Fill-721" fill="#7CA3AA" points="4.315 7.15505263 4.315 75.4523158 8.517 73.1133684 8.517 9.494 4.315 7.15505263"></polyline>
                        <polyline id="Fill-722" fill="#5FC0CA" points="8.517 9.494 8.517 73.1133684 36.7155 88.8481053 36.7155 25.2340526 8.517 9.494"></polyline>
                        <polyline id="Fill-723" fill="#B6DEE0" points="15.876 44.0413158 15.876 13.6031053 36.7155 25.2340526 15.876 44.0413158"></polyline>
                        <polyline id="Fill-724" fill="#B6DEE0" points="36.7155 29.7471579 18.967 45.7689474 22.058 47.4912632 36.7155 34.4356842 36.7155 29.7471579"></polyline>
                        <polygon id="Fill-725" fill="#1F91AD" points="12.7135 11.8382632 8.517 9.494 8.517 73.1133684 36.7155 88.8481053 36.7155 84.1648947 12.7135 70.7691053"></polygon>
                        <polygon id="Fill-726" fill="#BCD3D3" points="8.517 26.9322105 5.987 28.3249474 36.7155 45.4683684 36.7155 42.6722632"></polygon>
                        <g id="Group-2" transform="translate(24.000000, 17.400024)">
                            <polygon id="Rectangle-5" fill="#7CA3AA" points="2 1.78515625 4 2.89453125 4 20.4385611 2 22.0882568"></polygon>
                            <polygon id="Rectangle-5" fill="#F3F6F6" points="0 0.670763723 2 1.78013872 2 22.1131624 0 21.0059174"></polygon>
                        </g>
                        <g id="Group-2" transform="translate(14.000000, 11.900024)">
                            <polygon id="Rectangle-5" fill="#7CA3AA" points="2 1.75699033 4 2.86636533 4 20.4385611 2 22.0882568"></polygon>
                            <polygon id="Rectangle-5" fill="#F3F6F6" points="0 0.635476498 2 1.7448515 2 22.1131624 0 21.0059174"></polygon>
                        </g>
                        <polyline id="Fill-727" fill="#F3F6F6" points="36.7155 45.4683684 5.987 28.3249474 5.987 30.8180526 36.7155 47.9667895 36.7155 45.4683684"></polyline>
                        <g id="Group-3" transform="translate(5.000000, 48.799988)">
                            <polyline id="Fill-726" fill="#BCD3D3" points="31.7155 16.6722632 3.517 0.932210526 0.987 2.32494737 31.7155 19.4683684 31.7155 16.6722632"></polyline>
                            <polyline id="Fill-727" fill="#F3F6F6" points="31.7155 19.4683684 0.987 2.32494737 0.987 4.81805263 31.7155 21.9667895 31.7155 19.4683684"></polyline>
                        </g>
                        <g id="Group-2" transform="translate(24.000000, 40.200012)">
                            <polygon id="Rectangle-5" fill="#7CA3AA" points="2 1.78515625 4 2.89453125 4 20.4385611 2 22.0882568"></polygon>
                            <polygon id="Rectangle-5" fill="#F3F6F6" points="0 0.670763723 2 1.78013872 2 22.1131624 0 21.0059174"></polygon>
                        </g>
                        <g id="Group-2" transform="translate(14.000000, 34.599976)">
                            <polygon id="Rectangle-5" fill="#7CA3AA" points="2 1.75699033 4 2.86636533 4 20.4385611 2 22.0882568"></polygon>
                            <polygon id="Rectangle-5" fill="#F3F6F6" points="0 0.635476498 2 1.7448515 2 22.1131624 0 21.0059174"></polygon>
                        </g>
                        <g id="Group-2" transform="translate(24.000000, 63.000000)">
                            <polygon id="Rectangle-5" fill="#7CA3AA" points="2 1.78515625 4 2.89453125 4 21.4385611 2 23.0882568"></polygon>
                            <polygon id="Rectangle-5" fill="#F3F6F6" points="0 0.670763723 2 1.78013872 2 23.1131624 0 22.0059174"></polygon>
                        </g>
                        <g id="Group-2" transform="translate(14.000000, 57.400024)">
                            <polygon id="Rectangle-5" fill="#7CA3AA" points="2 1.75699033 4 2.86636533 4 21.4385611 2 23.0882568"></polygon>
                            <polygon id="Rectangle-5" fill="#F3F6F6" points="0 0.635476498 2 1.7448515 2 23.1131624 0 22.0059174"></polygon>
                        </g>
                    </g>
                    <polygon id="Rectangle-3-Copy" stroke="#8AB5FB" stroke-width="0.7" fill="#3479EB" stroke-linecap="round" stroke-linejoin="round" transform="translate(26.228024, 43.809723) scale(-1, 1) translate(-26.228024, -43.809723) " points="11.5320077 58.6194467 52.0560239 36.1889744 40.2114316 29 0.400024414 51.0255357"></polygon>
                    <polygon id="Rectangle-3-Copy" stroke="#8AB5FB" stroke-width="0.7" fill="#295BAD" stroke-linecap="round" stroke-linejoin="round" transform="translate(50.466926, 29.345765) scale(-1, 1) translate(-50.466926, -29.345765) " points="60.4098363 58.6194467 100.933852 36.1889744 41.3399949 0.0720840243 -1.36424205e-12 24.0207707"></polygon>
                    <polygon id="Rectangle-3-Copy" stroke="#8AB5FB" stroke-width="0.7" fill="#3479EB" stroke-linecap="round" stroke-linejoin="round" transform="translate(70.919586, 80.133766) scale(-1, 1) translate(-70.919586, -80.133766) " points="100.921664 136.245415 100.921664 58.6052019 40.9175078 24.022117 89.84761 128.91343"></polygon>
                </g>
            </g>
        </g>
    </g>
</svg>